<?xml version="1.0" encoding="utf-8"?>
<!-- Generator: Adobe Illustrator 21.1.0, SVG Export Plug-In . SVG Version: 6.00 Build 0)  -->
<svg version="1.1" id="Layer_1" xmlns="http://www.w3.org/2000/svg" xmlns:xlink="http://www.w3.org/1999/xlink" x="0px" y="0px"
	 viewBox="0 0 320 75" style="enable-background:new 0 0 320 75;" xml:space="preserve">
<style type="text/css">
	.st0{fill:#FFFFFF;}
	.st1{clip-path:url(#SVGID_2_);}
	.st2{clip-path:url(#SVGID_4_);}
	.st3{fill:#3A69A3;}
	.st4{fill:#281C1C;}
	.st5{fill:#F4C726;stroke:#231F20;stroke-width:0.9416;stroke-miterlimit:10;}
	.st6{fill:none;stroke:#FFFFFF;stroke-width:0.7939;stroke-linecap:round;stroke-miterlimit:10;}
	.st7{fill:#7F7F7F;}
	.st8{fill:#9B9B9B;}
	.st9{fill:#FFFFFF;stroke:#281C1C;stroke-width:0.7939;stroke-linecap:round;stroke-linejoin:round;stroke-miterlimit:10;}
	.st10{fill:#CECECE;}
	.st11{fill:#F2F2F2;}
	.st12{fill:#F4C995;}
	.st13{fill:#CEA05D;}
	.st14{fill:#7A5C35;}
	.st15{fill:#7A5C35;stroke:#281C1C;stroke-width:0.7939;stroke-linecap:round;stroke-linejoin:round;stroke-miterlimit:10;}
	.st16{fill:#F4C726;}
	.st17{fill:#ADE555;}
	.st18{fill:#CEA05D;stroke:#281C1C;stroke-width:0.7939;stroke-linecap:round;stroke-linejoin:round;stroke-miterlimit:10;}
	.st19{fill:none;stroke:#281C1C;stroke-width:0.7939;stroke-linecap:round;stroke-miterlimit:10;}
	.st20{fill:#38464C;}
	.st21{fill:#FF7143;}
	.st22{fill:#AAAAAA;}
	.st23{fill:#FFC928;}
	.st24{fill:#516066;}
	.st25{fill:#838E91;}
	.st26{fill:none;stroke:#838E91;stroke-width:9.324033e-02;stroke-miterlimit:10;}
	.st27{fill:#FFE5C2;}
	.st28{fill:#C1C1C1;}
	.st29{fill:#BA8900;}
	.st30{font-family:'AnandaNeptouch';}
	.st31{font-size:13px;}
	.st32{fill:#FFC7C7;}
	.st33{fill:#FFD7D7;}
	.st34{fill:#9B643B;}
	.st35{fill:url(#SVGID_5_);}
	.st36{fill:#F8222E;}
	.st37{fill:url(#SVGID_6_);}
	.st38{fill:url(#SVGID_7_);}
	.st39{font-family:'AMCAPEternal';}
	.st40{font-size:13.2335px;}
	.st41{font-size:15.8802px;}
</style>
<g id="XMLID_49_">
	<path id="XMLID_50_" class="st0" d="M59.9,50.8l-2.5-0.2l1.7,2.7l0,0c0.1,0.2,0.2,0.4,0.1,0.6L59,56.7l-1.1-1.3
		c-0.2-0.3-0.4-0.5-0.6-0.8l-1.7-2.9c-0.3-0.4-0.8-0.5-1.2-0.2c-0.4,0.2-0.5,0.7-0.3,1.1l4,8.1c0.1,0.1,0.1,0.2,0.3,0.3l2.1,1.9
		l1.2,1.9l4.1-2.6l-1.2-1.9l-0.3-0.5l0,0l-0.8-4c0-0.1-0.1-0.2-0.1-0.3l-2.7-4.2C60.4,51,60.2,50.8,59.9,50.8z"/>
</g>
<g>
	<g>
		<defs>
			<rect id="SVGID_1_" y="0.2" width="320.1" height="74.8"/>
		</defs>
		<clipPath id="SVGID_2_">
			<use xlink:href="#SVGID_1_"  style="overflow:visible;"/>
		</clipPath>
		<g class="st1">
			
				<image style="overflow:visible;" width="1434" height="1005" xlink:href="E2492812.jpg"  transform="matrix(0.24 0 0 0.24 -14.16 -22.2)">
			</image>
			
				<image style="overflow:visible;" width="350" height="126" xlink:href="C:\Users\srinivas.e\Desktop\fade_left_green.png"  transform="matrix(-1 0 0 1 321.4799 -48.2256)">
			</image>
			
				<image style="overflow:visible;" width="500" height="500" xlink:href="C:\Users\srinivas.e\Desktop\stylzzz2525202525286462525291.png"  transform="matrix(1 0 0 1 -73.2236 -209.9183)">
			</image>
			<g>
				<defs>
					<rect id="SVGID_3_" y="0.2" width="320.1" height="74.8"/>
				</defs>
				<clipPath id="SVGID_4_">
					<use xlink:href="#SVGID_3_"  style="overflow:visible;"/>
				</clipPath>
				<g class="st2">
					<g id="XMLID_69_">
						<g id="XMLID_434_">
							<g id="XMLID_839_">
								<path id="XMLID_880_" class="st3" d="M43,57.4c-8.4,0-16.2-3.7-21.6-10.1c0,0,0,0,0,0c-2.5-3-4.3-6.4-5.3-10.1
									C15.4,34.6,15,32,15,29.4c0-3,0.5-6,1.4-8.8c1.3-3.8,3.3-7.2,6-10.2c2.6-2.8,5.7-5,9.2-6.6C35.2,2.2,39,1.4,43,1.4
									c4,0,7.8,0.8,11.4,2.4c3.5,1.6,6.6,3.8,9.2,6.6c2.7,3,4.8,6.4,6,10.2c0.9,2.8,1.4,5.8,1.4,8.8c0,2.6-0.4,5.2-1.1,7.7
									c-1.1,3.7-2.9,7.1-5.3,10.1c0,0,0,0,0,0C59.2,53.7,51.4,57.4,43,57.4z"/>
								<path id="XMLID_877_" class="st4" d="M43,1.8c8,0,15.2,3.4,20.3,8.9c2.6,2.9,4.7,6.3,5.9,10c0.9,2.7,1.4,5.7,1.4,8.7
									c0,2.6-0.4,5.2-1.1,7.6c-1.1,3.7-2.9,7.1-5.3,10c0,0,0,0,0,0C59.2,53.1,51.6,57,43,57c-8.6,0-16.2-3.9-21.3-10c0,0,0,0,0,0
									c-2.4-2.9-4.2-6.3-5.3-10c-0.7-2.4-1.1-4.9-1.1-7.6c0-3,0.5-6,1.4-8.7c1.3-3.8,3.3-7.2,5.9-10C27.8,5.2,35,1.8,43,1.8 M43,1
									c-4,0-7.9,0.8-11.6,2.5c-3.5,1.6-6.6,3.8-9.3,6.7c-1.4,1.5-2.6,3.1-3.6,4.8c-1,1.7-1.9,3.6-2.5,5.5c-1,2.9-1.4,5.9-1.4,9
									c0,2.6,0.4,5.3,1.1,7.8c1.1,3.8,2.9,7.2,5.4,10.3c0,0,0,0,0,0.1c5.4,6.5,13.4,10.3,21.9,10.3s16.5-3.7,21.9-10.3
									c0,0,0,0,0-0.1c2.5-3,4.3-6.5,5.4-10.3c0.7-2.5,1.1-5.1,1.1-7.8c0-3.1-0.5-6.1-1.4-9c-0.6-1.9-1.5-3.8-2.5-5.5
									c-1-1.7-2.2-3.3-3.6-4.8c-2.6-2.8-5.8-5.1-9.3-6.7C50.9,1.8,47,1,43,1L43,1z"/>
							</g>
						</g>
					</g>
					<g>
						<path class="st5" d="M76.6,51.7c0.1-0.1,0.1-0.2,0.1-0.4c0-0.2-0.1-0.4-0.2-0.5c0.4-0.2,0.7-0.6,0.7-1.2
							c0-0.5-0.3-0.9-0.7-1.1l-0.6-1l-0.6,1c-0.4,0.2-0.7,0.6-0.7,1.1c0,0.5,0.3,1,0.7,1.2c-0.1,0.1-0.2,0.3-0.2,0.5
							c0,0.1,0,0.3,0.1,0.4h-3.6c0.1-0.1,0.1-0.2,0.1-0.4c0-0.2-0.1-0.4-0.2-0.5c0.4-0.2,0.7-0.6,0.7-1.2c0-0.5-0.3-0.9-0.7-1.1
							l-0.6-1l-0.6,1c-0.4,0.2-0.7,0.6-0.7,1.1c0,0.5,0.3,1,0.7,1.2c-0.1,0.1-0.2,0.3-0.2,0.5c0,0.1,0,0.3,0.1,0.4h-3.6
							c0.1-0.1,0.1-0.2,0.1-0.4c0-0.2-0.1-0.4-0.2-0.5c0.4-0.2,0.7-0.6,0.7-1.2c0-0.5-0.3-0.9-0.7-1.1l-0.6-1l-0.6,1
							c-0.4,0.2-0.7,0.6-0.7,1.1c0,0.5,0.3,1,0.7,1.2c-0.1,0.1-0.2,0.3-0.2,0.5c0,0.1,0,0.3,0.1,0.4h-3.6c0.1-0.1,0.1-0.2,0.1-0.4
							c0-0.4-0.3-0.7-0.7-0.7c-0.2,0-0.3,0.1-0.5,0.2l-0.1-0.3c0.2,0.1,0.3,0.1,0.5,0.1c0.7,0,1.3-0.6,1.3-1.3
							c0-0.5-0.3-0.9-0.7-1.1l-0.6-1l-0.6,1c-0.1,0.1-0.2,0.1-0.3,0.2L52.7,9h0V6l-3,3H48c0.1-0.1,0.1-0.2,0.1-0.4
							c0-0.2-0.1-0.4-0.2-0.5c0.4-0.2,0.7-0.6,0.7-1.2c0-0.5-0.3-0.9-0.7-1.1l-0.6-1l-0.6,1C46.3,6,46,6.5,46,6.9
							c0,0.5,0.3,1,0.7,1.2c-0.1,0.1-0.2,0.3-0.2,0.5c0,0.1,0,0.3,0.1,0.4h-3.6c0.1-0.1,0.1-0.2,0.1-0.4c0-0.2-0.1-0.4-0.2-0.5
							c0.4-0.2,0.7-0.6,0.7-1.2c0-0.5-0.3-0.9-0.7-1.1l-0.6-1l-0.6,1c-0.4,0.2-0.7,0.6-0.7,1.1c0,0.5,0.3,1,0.7,1.2
							c-0.1,0.1-0.2,0.3-0.2,0.5c0,0.1,0,0.3,0.1,0.4h-3.6c0.1-0.1,0.1-0.2,0.1-0.4c0-0.2-0.1-0.4-0.2-0.5c0.4-0.2,0.7-0.6,0.7-1.2
							c0-0.5-0.3-0.9-0.7-1.1l-0.6-1l-0.6,1c-0.4,0.2-0.7,0.6-0.7,1.1c0,0.5,0.3,1,0.7,1.2c-0.1,0.1-0.2,0.3-0.2,0.5
							c0,0.1,0,0.3,0.1,0.4h-1.7l-3-3v3h0l-7.8,39.4c-0.1-0.1-0.2-0.2-0.3-0.2l-0.6-1l-0.6,1c-0.4,0.2-0.7,0.6-0.7,1.1
							c0,0.7,0.6,1.3,1.3,1.3c0.2,0,0.3,0,0.5-0.1L24,50.8c-0.1-0.1-0.3-0.2-0.5-0.2c-0.4,0-0.7,0.3-0.7,0.7c0,0.1,0,0.3,0.1,0.4
							h-3.6c0.1-0.1,0.1-0.2,0.1-0.4c0-0.2-0.1-0.4-0.2-0.5c0.4-0.2,0.7-0.6,0.7-1.2c0-0.5-0.3-0.9-0.7-1.1l-0.6-1l-0.6,1
							c-0.4,0.2-0.7,0.6-0.7,1.1c0,0.5,0.3,1,0.7,1.2c-0.1,0.1-0.2,0.3-0.2,0.5c0,0.1,0,0.3,0.1,0.4h-3.6c0.1-0.1,0.1-0.2,0.1-0.4
							c0-0.2-0.1-0.4-0.2-0.5c0.4-0.2,0.7-0.6,0.7-1.2c0-0.5-0.3-0.9-0.7-1.1l-0.6-1l-0.6,1c-0.4,0.2-0.7,0.6-0.7,1.1
							c0,0.5,0.3,1,0.7,1.2c-0.1,0.1-0.2,0.3-0.2,0.5c0,0.1,0,0.3,0.1,0.4H9.6c0.1-0.1,0.1-0.2,0.1-0.4c0-0.2-0.1-0.4-0.2-0.5
							c0.4-0.2,0.7-0.6,0.7-1.2c0-0.5-0.3-0.9-0.7-1.1l-0.6-1l-0.6,1c-0.4,0.2-0.7,0.6-0.7,1.1c0,0.5,0.3,1,0.7,1.2
							c-0.1,0.1-0.2,0.3-0.2,0.5c0,0.1,0,0.3,0.1,0.4H6.6v23.4h7.8V62.2H14v-1.4h3.3v1.4h-0.5v12.9h2.5V62.2h-0.5v-1.4h3.3v1.4h-0.5
							v12.9h2.5V62.2h-0.5v-1.4H27v1.4h-0.5v12.9h11.4v-17H47v17h11.4V62.2H58v-1.4h3.3v1.4h-0.5v12.9h2.5V62.2h-0.5v-1.4h3.3v1.4
							h-0.5v12.9h2.5V62.2h-0.5v-1.4H71v1.4h-0.5v12.9h7.8V51.7H76.6z M17.9,60.5h-4.5v-1.1h0.8v-0.7h1v0.7h0.9v-0.7h1v0.7h0.8V60.5
							z M22.7,60.5h-4.5v-1.1H19v-0.7h1v0.7h0.9v-0.7h1v0.7h0.8V60.5z M27.6,60.5h-4.5v-1.1h0.8v-0.7h1v0.7h0.9v-0.7h1v0.7h0.8V60.5
							z M43.6,45.4h-2.3v-3.3h2.3V45.4z M43.6,35.7h-2.3v-3.3h2.3V35.7z M43.6,26h-2.3v-3.3h2.3V26z M43.6,16.3h-2.3V13h2.3V16.3z
							 M61.9,60.5h-4.5v-1.1h0.8v-0.7h1v0.7h0.9v-0.7h1v0.7h0.8V60.5z M66.7,60.5h-4.5v-1.1H63v-0.7h1v0.7h0.9v-0.7h1v0.7h0.8V60.5z
							 M71.6,60.5h-4.5v-1.1h0.8v-0.7h1v0.7h0.9v-0.7h1v0.7h0.8V60.5z M71.6,60.5"/>
					</g>
					<g id="XMLID_413_">
						<path id="XMLID_437_" class="st6" d="M72.3,17.2c0.8,0.9,1.5,1.9,1.8,3.1"/>
						<path id="XMLID_438_" class="st6" d="M57.4,23c0-0.9,0.2-1.9,0.4-2.7c0.4-1.2,1-2.2,1.8-3.1c1.6-1.7,3.8-2.7,6.3-2.7
							c1.9,0,3.6,0.6,5,1.6"/>
						<path id="XMLID_64_" class="st6" d="M74.2,25.3c-0.3,1.2-0.9,2.2-1.6,3.1c0,0,0,0,0,0c-1.6,1.9-3.9,3.1-6.6,3.1
							c-2.7,0-5-1.2-6.6-3.1c0,0,0,0,0,0"/>
					</g>
					<g id="XMLID_440_">
						<path id="XMLID_684_" class="st6" d="M24.2,24.9c0.8,0.9,1.5,1.9,1.8,3.1"/>
						<path id="XMLID_682_" class="st6" d="M9.4,30.7c0-0.9,0.2-1.9,0.4-2.7c0.4-1.2,1-2.2,1.8-3.1c1.6-1.7,3.8-2.7,6.3-2.7
							c1.9,0,3.6,0.6,5,1.6"/>
						<path id="XMLID_482_" class="st6" d="M26.2,33c-0.3,1.2-0.9,2.2-1.6,3.1c0,0,0,0,0,0c-1.6,1.9-3.9,3.1-6.6,3.1s-5-1.2-6.6-3.1
							c0,0,0,0,0,0"/>
					</g>
					<g id="XMLID_795_">
						<g id="XMLID_787_">
							<g id="XMLID_846_">
								<g id="XMLID_63_">
									<path id="XMLID_609_" class="st7" d="M39.4,49.3c-0.2,0-0.4-0.2-0.4-0.4V35.7c0-0.2,0.2-0.4,0.4-0.4h2.1
										c0.2,0,0.4,0.2,0.4,0.4v13.3c0,0.2-0.2,0.4-0.4,0.4H39.4z"/>
									<path id="XMLID_606_" class="st4" d="M41.6,35.7v13.3h-2.1V35.7H41.6 M41.6,34.9h-2.1c-0.4,0-0.8,0.4-0.8,0.8v13.3
										c0,0.4,0.4,0.8,0.8,0.8h2.1c0.4,0,0.8-0.4,0.8-0.8V35.7C42.4,35.2,42,34.9,41.6,34.9L41.6,34.9z"/>
								</g>
							</g>
							<g id="XMLID_845_">
								<g id="XMLID_62_">
									<path id="XMLID_577_" class="st7" d="M44.5,49.3c-0.2,0-0.4-0.2-0.4-0.4V35.7c0-0.2,0.2-0.4,0.4-0.4h2.1
										c0.2,0,0.4,0.2,0.4,0.4v13.3c0,0.2-0.2,0.4-0.4,0.4H44.5z"/>
									<path id="XMLID_574_" class="st4" d="M46.7,35.7v13.3h-2.1V35.7H46.7 M46.7,34.9h-2.1c-0.4,0-0.8,0.4-0.8,0.8v13.3
										c0,0.4,0.4,0.8,0.8,0.8h2.1c0.4,0,0.8-0.4,0.8-0.8V35.7C47.5,35.2,47.1,34.9,46.7,34.9L46.7,34.9z"/>
								</g>
							</g>
							<g id="XMLID_843_">
								<g id="XMLID_599_">
									<path id="XMLID_604_" class="st0" d="M39.4,49.3c-0.2,0-0.4-0.2-0.4-0.4v-1.3c0-0.2,0.2-0.4,0.4-0.4h2.1
										c0.2,0,0.4,0.2,0.4,0.4v1.3c0,0.2-0.2,0.4-0.4,0.4H39.4z"/>
									<g id="XMLID_600_">
										<path id="XMLID_61_" class="st4" d="M41.6,47.6v1.3h-2.1v-1.3H41.6 M41.6,46.8h-2.1c-0.4,0-0.8,0.4-0.8,0.8v1.3
											c0,0.4,0.4,0.8,0.8,0.8h2.1c0.4,0,0.8-0.4,0.8-0.8v-1.3C42.4,47.2,42,46.8,41.6,46.8L41.6,46.8z"/>
									</g>
								</g>
							</g>
							<g id="XMLID_844_">
								<g id="XMLID_593_">
									<path id="XMLID_60_" class="st0" d="M44.5,49.3c-0.2,0-0.4-0.2-0.4-0.4v-1.3c0-0.2,0.2-0.4,0.4-0.4h2.1
										c0.2,0,0.4,0.2,0.4,0.4v1.3c0,0.2-0.2,0.4-0.4,0.4H44.5z"/>
									<g id="XMLID_594_">
										<path id="XMLID_59_" class="st4" d="M46.7,47.6v1.3h-2.1v-1.3H46.7 M46.7,46.8h-2.1c-0.4,0-0.8,0.4-0.8,0.8v1.3
											c0,0.4,0.4,0.8,0.8,0.8h2.1c0.4,0,0.8-0.4,0.8-0.8v-1.3C47.5,47.2,47.1,46.8,46.7,46.8L46.7,46.8z"/>
									</g>
								</g>
							</g>
						</g>
						<g id="XMLID_56_">
							<g id="XMLID_683_">
								<g id="XMLID_584_">
									<path id="XMLID_592_" class="st0" d="M46.5,39.7c-0.2,0-0.3,0-0.5-0.1l-1.1-0.7c-0.2-0.1-0.3-0.3-0.3-0.5
										c0-0.2,0.1-0.4,0.2-0.5l0.9-0.8c0.1-0.1,0.3-0.2,0.4-0.2c0.3,0,0.5,0.1,0.6,0.4l0.6,1.2c0.1,0.3,0.1,0.6,0,0.9
										C47.1,39.6,46.8,39.7,46.5,39.7L46.5,39.7z"/>
									<g id="XMLID_585_">
										<path id="XMLID_586_" class="st4" d="M46.1,37.2c0.1,0,0.2,0.1,0.2,0.1l0.6,1.2c0.2,0.4-0.1,0.7-0.5,0.7
											c-0.1,0-0.2,0-0.3-0.1l-1.1-0.7c-0.1-0.1-0.2-0.3,0-0.4l0.9-0.8C46,37.3,46,37.2,46.1,37.2 M46.1,36.4
											c-0.3,0-0.5,0.1-0.7,0.3l-0.9,0.8c-0.2,0.2-0.4,0.5-0.3,0.9s0.2,0.6,0.5,0.8l1.1,0.7c0.2,0.1,0.5,0.2,0.7,0.2
											c0.4,0,0.9-0.2,1.1-0.6c0.2-0.4,0.3-0.9,0.1-1.3L47,37C46.9,36.7,46.5,36.4,46.1,36.4L46.1,36.4z"/>
									</g>
								</g>
							</g>
							<g id="XMLID_687_">
								<g id="XMLID_578_">
									<path id="XMLID_583_" class="st0" d="M39.6,39.7c-0.3,0-0.6-0.2-0.8-0.4c-0.2-0.3-0.2-0.6,0-0.9l0.6-1.2
										c0.1-0.2,0.3-0.4,0.6-0.4c0.2,0,0.3,0.1,0.4,0.2l0.9,0.8c0.2,0.1,0.2,0.3,0.2,0.5c0,0.2-0.1,0.4-0.3,0.5l-1.1,0.7
										C39.9,39.7,39.7,39.7,39.6,39.7z"/>
									<g id="XMLID_579_">
										<path id="XMLID_580_" class="st4" d="M39.9,37.2c0.1,0,0.1,0,0.2,0.1l0.9,0.8c0.1,0.1,0.1,0.3,0,0.4l-1.1,0.7
											c-0.1,0.1-0.2,0.1-0.3,0.1c-0.3,0-0.6-0.4-0.5-0.7l0.6-1.2C39.7,37.3,39.8,37.2,39.9,37.2 M39.9,36.4L39.9,36.4
											c-0.4,0-0.8,0.2-0.9,0.6l-0.6,1.2c-0.2,0.4-0.2,0.9,0.1,1.3c0.2,0.4,0.7,0.6,1.1,0.6c0.2,0,0.5-0.1,0.7-0.2l1.1-0.7
											c0.3-0.2,0.5-0.5,0.5-0.8c0-0.3-0.1-0.6-0.3-0.9l-0.9-0.8C40.4,36.5,40.2,36.4,39.9,36.4L39.9,36.4z"/>
									</g>
								</g>
							</g>
						</g>
						<g id="XMLID_71_">
							<g id="XMLID_72_">
								<g id="XMLID_44_">
									<g id="XMLID_45_">
										<path id="XMLID_572_" class="st8" d="M41.1,47.6c-1.7,0-3-1.4-3-3v-0.5c0-0.6,0.5-1.1,1.1-1.1c0.6,0,1.1,0.5,1.1,1.1v0.5
											c0,0.5,0.4,0.8,0.8,0.8c0.5,0,0.8-0.4,0.8-0.8v-7.8c0-0.6,0.5-1.1,1.1-1.1c0.6,0,1.1,0.5,1.1,1.1v7.8
											C44.1,46.3,42.8,47.6,41.1,47.6z"/>
										<path id="XMLID_569_" class="st4" d="M43,36.1c0.4,0,0.7,0.3,0.7,0.7v7.8c0,1.4-1.2,2.6-2.6,2.6c-1.4,0-2.6-1.2-2.6-2.6
											v-0.5c0-0.4,0.3-0.7,0.7-0.7s0.7,0.3,0.7,0.7v0.5c0,0.7,0.5,1.2,1.2,1.2c0.7,0,1.2-0.5,1.2-1.2v-7.8
											C42.3,36.4,42.7,36.1,43,36.1 M43,35.3c-0.8,0-1.5,0.7-1.5,1.5v7.8c0,0.2-0.2,0.4-0.4,0.4c-0.2,0-0.4-0.2-0.4-0.4v-0.5
											c0-0.8-0.7-1.5-1.5-1.5c-0.8,0-1.5,0.7-1.5,1.5v0.5c0,1.9,1.5,3.4,3.4,3.4c1.9,0,3.4-1.5,3.4-3.4v-7.8
											C44.5,35.9,43.9,35.3,43,35.3L43,35.3z"/>
									</g>
								</g>
							</g>
							<g id="XMLID_65_">
								<g id="XMLID_817_">
									<g id="XMLID_500_">
										<path id="XMLID_43_" class="st8" d="M45.1,36.7c-0.2,0-0.4-0.2-0.4-0.4v-7.7c0-0.5,0.4-1,1-1h2.7c0.5,0,0.9,0.2,1.2,0.5
											c0.4,0.4,0.9,0.7,1.5,0.7c0.5,0,0.9,0.2,1.2,0.6c0.3,0.4,0.3,0.8,0.2,1.3l-0.2,0.7c-0.5,1.5-1.5,2.9-2.8,3.8l-0.4,0.3
											C49,35.5,49,35.7,49,35.8c0,0.2-0.1,0.4-0.2,0.6c-0.2,0.2-0.4,0.3-0.6,0.3H45.1z"/>
										<path id="XMLID_38_" class="st4" d="M45.7,28h2.7c0.3,0,0.7,0.1,0.9,0.4c0.5,0.5,1.1,0.8,1.8,0.8c0.7,0,1.2,0.7,1,1.4
											L52,31.2c-0.5,1.5-1.4,2.7-2.7,3.6l-0.4,0.3c-0.2,0.1-0.3,0.4-0.3,0.7c0,0.3-0.2,0.5-0.5,0.5h-2.9v-7.7
											C45.1,28.3,45.4,28,45.7,28 M45.7,27.2c-0.8,0-1.4,0.6-1.4,1.4v7.7c0,0.4,0.4,0.8,0.8,0.8h2.9c0.3,0,0.7-0.1,0.9-0.4
											c0.2-0.2,0.4-0.6,0.4-0.9l0.4-0.3c1.4-1,2.5-2.4,3-4l0.2-0.7c0.2-0.6,0.1-1.2-0.3-1.6c-0.3-0.5-0.9-0.8-1.5-0.8
											c-0.5,0-0.9-0.2-1.2-0.6c-0.4-0.4-0.9-0.6-1.5-0.6H45.7L45.7,27.2z"/>
									</g>
								</g>
								<line id="XMLID_789_" class="st9" x1="45.4" y1="30.9" x2="48.9" y2="30.9"/>
								<g id="XMLID_70_">
									<g id="XMLID_459_">
										<path id="XMLID_35_" class="st8" d="M38,36.7c-0.2,0-0.5-0.1-0.6-0.3c-0.2-0.2-0.2-0.4-0.2-0.6c0-0.1-0.1-0.3-0.2-0.3
											l-0.4-0.3c-1.3-0.9-2.3-2.3-2.8-3.8l-0.2-0.7c-0.1-0.4-0.1-0.9,0.2-1.3c0.3-0.4,0.7-0.6,1.2-0.6c0.6,0,1.1-0.3,1.5-0.7
											c0.3-0.3,0.7-0.5,1.2-0.5h2.7c0.5,0,1,0.4,1,1v7.7c0,0.2-0.2,0.4-0.4,0.4H38z"/>
										<path id="XMLID_20_" class="st4" d="M40.3,28c0.3,0,0.6,0.3,0.6,0.6v7.7H38c-0.3,0-0.5-0.2-0.5-0.5c0-0.3-0.1-0.5-0.3-0.7
											l-0.4-0.3c-1.3-0.9-2.2-2.2-2.7-3.6l-0.2-0.7c-0.2-0.7,0.3-1.4,1-1.4c0.7,0,1.4-0.3,1.8-0.8c0.2-0.2,0.6-0.4,0.9-0.4H40.3
											 M40.3,27.2h-2.7c-0.6,0-1.1,0.2-1.5,0.6c-0.3,0.3-0.8,0.5-1.2,0.6c-0.6,0-1.2,0.3-1.5,0.8c-0.3,0.5-0.4,1.1-0.3,1.6
											l0.2,0.7c0.5,1.6,1.6,3.1,3,4l0.4,0.3c0,0.3,0.1,0.6,0.4,0.9c0.2,0.2,0.6,0.4,0.9,0.4h2.9c0.4,0,0.8-0.4,0.8-0.8v-7.7
											C41.7,27.8,41.1,27.2,40.3,27.2L40.3,27.2z"/>
									</g>
								</g>
								<line id="XMLID_790_" class="st9" x1="37.1" y1="30.9" x2="40.6" y2="30.9"/>
							</g>
							<g id="XMLID_12_">
								<g id="XMLID_442_">
									<path id="XMLID_19_" class="st8" d="M43,38.3c-0.1,0-0.2,0-0.3,0c-1.1-0.1-1.9-1-2-2c0-0.1,0-0.3,0-0.4
										c0.1-0.8-0.1-1.6-0.5-2.3c-0.2-0.5-0.4-1-0.3-1.5c0-1.6,1.3-3,2.9-3c0.1,0,0.1,0,0.2,0c1.7,0,3.1,1.4,3.1,3.1
										c0,0.5-0.1,1-0.4,1.5c-0.4,0.7-0.5,1.5-0.5,2.3c0,0.1,0,0.1,0,0.2c0,0.6-0.2,1.2-0.7,1.6C44.2,38.1,43.6,38.3,43,38.3
										C43,38.3,43,38.3,43,38.3z"/>
									<path id="XMLID_13_" class="st4" d="M43,29.4c1.5,0,2.7,1.2,2.7,2.7c0,0.5-0.1,0.9-0.3,1.3c-0.4,0.8-0.6,1.7-0.5,2.5
										c0,0,0,0.1,0,0.1c0,1-0.8,1.9-1.9,1.9c-0.1,0-0.1,0-0.2,0c-0.9-0.1-1.6-0.8-1.7-1.7c0-0.1,0-0.2,0-0.3
										c0.1-0.9-0.1-1.8-0.5-2.5c-0.2-0.4-0.3-0.8-0.3-1.3c0-1.4,1.1-2.6,2.5-2.7C42.9,29.4,43,29.4,43,29.4 M43,28.6
										c-0.1,0-0.1,0-0.2,0c-1.8,0.1-3.3,1.6-3.3,3.4c0,0.6,0.1,1.2,0.4,1.7c0.3,0.6,0.5,1.4,0.4,2.1c0,0.2,0,0.3,0,0.5
										c0.1,1.2,1.1,2.2,2.4,2.4c0.1,0,0.2,0,0.3,0c1.5,0,2.7-1.2,2.7-2.7c0-0.1,0-0.1,0-0.2c-0.1-0.8,0.1-1.5,0.4-2.1
										c0.3-0.5,0.4-1.1,0.4-1.6C46.5,30.2,44.9,28.6,43,28.6L43,28.6z"/>
								</g>
							</g>
						</g>
						<line id="XMLID_689_" class="st9" x1="42.3" y1="41.2" x2="43.7" y2="41.2"/>
						<line id="XMLID_690_" class="st9" x1="42.3" y1="39.7" x2="43.7" y2="39.7"/>
						<line id="XMLID_786_" class="st9" x1="42.3" y1="43.5" x2="43.7" y2="43.5"/>
						<circle id="XMLID_688_" class="st4" cx="41.6" cy="33.1" r="0.5"/>
						<circle id="XMLID_788_" class="st4" cx="44.4" cy="33.1" r="0.5"/>
					</g>
					<g id="XMLID_120_">
						<g id="XMLID_414_">
							<path id="XMLID_441_" class="st10" d="M29.7,73.3c-0.2,0-0.4-0.2-0.4-0.4V55.4c0-0.2,0.2-0.4,0.4-0.4h27
								c0.2,0,0.4,0.2,0.4,0.4v17.4c0,0.2-0.2,0.4-0.4,0.4H29.7z"/>
							<path id="XMLID_433_" class="st4" d="M56.7,55.4v17.4h-27V55.4H56.7 M56.7,54.6h-27c-0.4,0-0.8,0.4-0.8,0.8v17.4
								c0,0.4,0.4,0.8,0.8,0.8h27c0.4,0,0.8-0.4,0.8-0.8V55.4C57.5,55,57.1,54.6,56.7,54.6L56.7,54.6z"/>
						</g>
					</g>
					<g id="XMLID_115_">
						<g id="XMLID_298_">
							<path id="XMLID_324_" class="st11" d="M34.9,73.3c-0.2,0-0.4-0.2-0.4-0.4V55.4c0-0.2,0.2-0.4,0.4-0.4h16.6
								c0.2,0,0.4,0.2,0.4,0.4v17.4c0,0.2-0.2,0.4-0.4,0.4H34.9z"/>
							<path id="XMLID_321_" class="st4" d="M51.5,55.4v17.4H34.9V55.4H51.5 M51.5,54.6H34.9c-0.4,0-0.8,0.4-0.8,0.8v17.4
								c0,0.4,0.4,0.8,0.8,0.8h16.6c0.4,0,0.8-0.4,0.8-0.8V55.4C52.3,55,52,54.6,51.5,54.6L51.5,54.6z"/>
						</g>
					</g>
					<g id="XMLID_30_">
						<g id="XMLID_37_">
							<g id="XMLID_8_">
								<path id="XMLID_11_" class="st12" d="M41.8,62.7c-0.7,0-1.1-0.7-1.1-1.4c0-0.2,0-0.5,0.2-0.8c0.2-0.3,0.5-0.5,0.8-0.5
									c0.5,0,0.8-0.6,0.9-0.9c0.1-0.2,0.3-0.3,0.5-0.3c0.2,0,0.4,0.1,0.5,0.3c0.1,0.3,0.5,0.9,0.9,0.9c0.3,0,0.6,0.2,0.8,0.5
									c0.2,0.3,0.2,0.6,0.2,0.8c0,0.7-0.4,1.4-1.1,1.4H41.8z"/>
								<g id="XMLID_9_">
									<path id="XMLID_10_" class="st4" d="M43.2,59.3C43.2,59.3,43.3,59.3,43.2,59.3c0.3,0.4,0.7,1.1,1.4,1.1
										c0.9,0,0.8,1.9,0,1.9h-2.8c-0.8,0-0.9-1.9,0-1.9C42.5,60.4,42.9,59.7,43.2,59.3C43.1,59.3,43.2,59.3,43.2,59.3 M43.2,58.5
										c-0.3,0-0.7,0.2-0.8,0.5c-0.2,0.4-0.4,0.6-0.6,0.6c-0.5,0-0.9,0.2-1.2,0.6c-0.2,0.3-0.3,0.6-0.3,1c0,1,0.6,1.8,1.4,1.8h2.8
										c0.8,0,1.4-0.8,1.4-1.8c0-0.4-0.1-0.8-0.3-1c-0.3-0.4-0.7-0.6-1.2-0.6c-0.2,0-0.4-0.3-0.6-0.6
										C43.9,58.7,43.5,58.5,43.2,58.5L43.2,58.5z"/>
								</g>
							</g>
						</g>
						<g id="XMLID_21_">
							<g id="XMLID_292_">
								<path id="XMLID_319_" class="st13" d="M41.2,69.9c-0.2,0-0.4-0.2-0.4-0.4v-7c0-0.2,0.2-0.4,0.4-0.4h4c0.2,0,0.4,0.2,0.4,0.4
									v7c0,0.2-0.2,0.4-0.4,0.4H41.2z"/>
								<path id="XMLID_316_" class="st4" d="M45.2,62.5v7h-4v-7H45.2 M45.2,61.7h-4c-0.4,0-0.8,0.4-0.8,0.8v7
									c0,0.4,0.4,0.8,0.8,0.8h4c0.4,0,0.8-0.4,0.8-0.8v-7C46,62,45.7,61.7,45.2,61.7L45.2,61.7z"/>
							</g>
						</g>
						<g id="XMLID_22_">
							<g id="XMLID_284_">
								<path id="XMLID_313_" class="st14" d="M42.3,69.9c-0.2,0-0.4-0.2-0.4-0.4v-4c0-0.2,0.2-0.4,0.4-0.4h1.7
									c0.2,0,0.4,0.2,0.4,0.4v4c0,0.2-0.2,0.4-0.4,0.4H42.3z"/>
								<path id="XMLID_310_" class="st4" d="M44.1,65.5v4h-1.7v-4H44.1 M44.1,64.7h-1.7c-0.4,0-0.8,0.4-0.8,0.8v4
									c0,0.4,0.4,0.8,0.8,0.8h1.7c0.4,0,0.8-0.4,0.8-0.8v-4C44.9,65,44.5,64.7,44.1,64.7L44.1,64.7z"/>
							</g>
						</g>
						<line id="XMLID_25_" class="st15" x1="41.2" y1="63.5" x2="45.2" y2="63.5"/>
					</g>
					<g id="XMLID_31_">
						<g id="XMLID_277_">
							<path id="XMLID_302_" class="st10" d="M40.8,71.4c-0.2,0-0.4-0.2-0.4-0.4v-0.7c0-0.2,0.2-0.4,0.4-0.4h4.8
								c0.2,0,0.4,0.2,0.4,0.4V71c0,0.2-0.2,0.4-0.4,0.4H40.8z"/>
							<path id="XMLID_299_" class="st4" d="M45.6,70.3V71h-4.8v-0.7H45.6 M45.6,69.5h-4.8c-0.4,0-0.8,0.4-0.8,0.8V71
								c0,0.4,0.4,0.8,0.8,0.8h4.8c0.4,0,0.8-0.4,0.8-0.8v-0.7C46.4,69.8,46,69.5,45.6,69.5L45.6,69.5z"/>
						</g>
					</g>
					<g id="XMLID_33_">
						<g id="XMLID_303_">
							<path id="XMLID_308_" class="st11" d="M38.9,73.3c-0.2,0-0.4-0.2-0.4-0.4v-1c0-0.2,0.2-0.4,0.4-0.4h8.9
								c0.2,0,0.4,0.2,0.4,0.4v1c0,0.2-0.2,0.4-0.4,0.4H38.9z"/>
							<g id="XMLID_304_">
								<path id="XMLID_305_" class="st4" d="M47.7,71.8v1h-8.9v-1H47.7 M47.7,71h-8.9c-0.4,0-0.8,0.4-0.8,0.8v1
									c0,0.4,0.4,0.8,0.8,0.8h8.9c0.4,0,0.8-0.4,0.8-0.8v-1C48.5,71.4,48.2,71,47.7,71L47.7,71z"/>
							</g>
						</g>
					</g>
					<g id="XMLID_26_">
						<g id="XMLID_278_">
							<g id="XMLID_272_">
								<path id="XMLID_297_" class="st0" d="M47.7,73.3c-0.2,0-0.4-0.2-0.4-0.4V57.4c0-0.2,0.2-0.4,0.4-0.4h1
									c0.2,0,0.4,0.2,0.4,0.4v15.5c0,0.2-0.2,0.4-0.4,0.4H47.7z"/>
								<path id="XMLID_293_" class="st4" d="M48.7,57.4v15.5h-1V57.4H48.7 M48.7,56.6h-1c-0.4,0-0.8,0.4-0.8,0.8v15.5
									c0,0.4,0.4,0.8,0.8,0.8h1c0.4,0,0.8-0.4,0.8-0.8V57.4C49.5,57,49.2,56.6,48.7,56.6L48.7,56.6z"/>
							</g>
						</g>
						<g id="XMLID_261_">
							<g id="XMLID_266_">
								<path id="XMLID_288_" class="st0" d="M51.2,73.3c-0.2,0-0.4-0.2-0.4-0.4V57.4c0-0.2,0.2-0.4,0.4-0.4h1
									c0.2,0,0.4,0.2,0.4,0.4v15.5c0,0.2-0.2,0.4-0.4,0.4H51.2z"/>
								<path id="XMLID_285_" class="st4" d="M52.2,57.4v15.5h-1V57.4H52.2 M52.2,56.6h-1c-0.4,0-0.8,0.4-0.8,0.8v15.5
									c0,0.4,0.4,0.8,0.8,0.8h1c0.4,0,0.8-0.4,0.8-0.8V57.4C53,57,52.6,56.6,52.2,56.6L52.2,56.6z"/>
							</g>
						</g>
						<g id="XMLID_290_">
							<g id="XMLID_258_">
								<path id="XMLID_283_" class="st0" d="M34.2,73.3c-0.2,0-0.4-0.2-0.4-0.4V57.4c0-0.2,0.2-0.4,0.4-0.4h1
									c0.2,0,0.4,0.2,0.4,0.4v15.5c0,0.2-0.2,0.4-0.4,0.4H34.2z"/>
								<path id="XMLID_279_" class="st4" d="M35.3,57.4v15.5h-1V57.4H35.3 M35.3,56.6h-1c-0.4,0-0.8,0.4-0.8,0.8v15.5
									c0,0.4,0.4,0.8,0.8,0.8h1c0.4,0,0.8-0.4,0.8-0.8V57.4C36,57,35.7,56.6,35.3,56.6L35.3,56.6z"/>
							</g>
						</g>
						<g id="XMLID_289_">
							<g id="XMLID_253_">
								<path id="XMLID_276_" class="st0" d="M37.7,73.3c-0.2,0-0.4-0.2-0.4-0.4V57.4c0-0.2,0.2-0.4,0.4-0.4h1
									c0.2,0,0.4,0.2,0.4,0.4v15.5c0,0.2-0.2,0.4-0.4,0.4H37.7z"/>
								<path id="XMLID_273_" class="st4" d="M38.7,57.4v15.5h-1V57.4H38.7 M38.7,56.6h-1c-0.4,0-0.8,0.4-0.8,0.8v15.5
									c0,0.4,0.4,0.8,0.8,0.8h1c0.4,0,0.8-0.4,0.8-0.8V57.4C39.5,57,39.1,56.6,38.7,56.6L38.7,56.6z"/>
							</g>
						</g>
					</g>
					<g id="XMLID_14_">
						<g id="XMLID_91_">
							<g id="XMLID_205_">
								<path id="XMLID_226_" class="st13" d="M34.1,57.4c-0.2,0-0.3-0.1-0.4-0.3c-0.1-0.2,0-0.3,0.1-0.4c5.9-4.3,8.9-12.3,9-12.4
									c0.1-0.2,0.2-0.3,0.4-0.3c0,0,0,0,0.1,0c0.2,0,0.3,0.2,0.3,0.4c0,3.4,6.4,9.5,8.8,11.8c0.2,0.2,0.3,0.3,0.4,0.4
									c0.1,0.1,0.2,0.3,0.1,0.4c-0.1,0.2-0.2,0.2-0.4,0.2H34.1z"/>
								<path id="XMLID_223_" class="st4" d="M43.2,44.4c0,3.8,7.3,10.6,9.4,12.5H34.1C40.1,52.5,43.2,44.4,43.2,44.4 M43.2,43.6
									c-0.3,0-0.6,0.2-0.7,0.5l0,0c0,0-0.8,2-2.2,4.5c-1.3,2.3-3.6,5.5-6.6,7.7c-0.3,0.2-0.4,0.6-0.3,0.9c0.1,0.3,0.4,0.5,0.8,0.5
									h18.5c0.3,0,0.6-0.2,0.7-0.5c0.1-0.3,0-0.6-0.2-0.9c-0.1-0.1-0.3-0.3-0.4-0.4c-1.2-1.2-3.4-3.3-5.3-5.6
									c-2.8-3.3-3.3-5.1-3.3-6c0-0.4-0.3-0.7-0.7-0.8C43.3,43.6,43.2,43.6,43.2,43.6L43.2,43.6z"/>
							</g>
						</g>
						<g id="XMLID_16_">
							<g id="XMLID_17_">
								<g id="XMLID_200_">
									<path id="XMLID_221_" class="st16" d="M52.8,57.7c-0.1,0-0.3,0-0.4-0.1c-1.8-0.8-3.5-2.1-5-3.7c-1.2-1.3-2.2-2.8-3.1-4.5
										c-0.4-0.8-0.8-1.6-1.1-2.5c-0.3,0.8-0.7,1.7-1.1,2.5c-0.9,1.7-1.9,3.3-3.1,4.5c-1.5,1.6-3.2,2.9-5,3.7
										c-0.1,0.1-0.3,0.1-0.4,0.1c-0.4,0-0.7-0.2-0.9-0.6c-0.2-0.5,0-1.1,0.5-1.3c3.6-1.6,5.9-4.9,7.1-7.3c1.4-2.7,1.9-5,1.9-5
										c0.1-0.5,0.5-0.8,1-0.8c0.5,0,0.9,0.3,1,0.8c0,0,0.5,2.4,1.9,5c1.3,2.4,3.5,5.7,7.1,7.3c0.2,0.1,0.4,0.3,0.5,0.6
										c0.1,0.2,0.1,0.5,0,0.8C53.5,57.5,53.2,57.7,52.8,57.7z"/>
									<path id="XMLID_217_" class="st4" d="M43.2,43.1c0.3,0,0.5,0.2,0.6,0.5c0,0,0.5,2.4,2,5.1c1.3,2.5,3.6,5.8,7.3,7.5
										c0.3,0.1,0.4,0.5,0.3,0.8c-0.1,0.2-0.3,0.4-0.5,0.4c-0.1,0-0.2,0-0.2-0.1c-1.8-0.8-3.4-2-4.8-3.6c-1.1-1.3-2.2-2.8-3-4.5
										c-0.7-1.3-1.1-2.5-1.5-3.4c-0.3,0.9-0.8,2.1-1.5,3.4c-0.9,1.7-1.9,3.2-3,4.5c-1.4,1.6-3.1,2.8-4.8,3.6
										c-0.1,0-0.2,0.1-0.2,0.1c-0.2,0-0.4-0.1-0.5-0.4c-0.1-0.3,0-0.7,0.3-0.8c3.7-1.7,6-5,7.3-7.5c1.4-2.7,1.9-5.1,1.9-5.1
										C42.7,43.3,42.9,43.1,43.2,43.1 M43.2,42.3c-0.6,0-1.2,0.5-1.4,1.1c0,0-0.5,2.3-1.9,4.9c-1.2,2.4-3.4,5.6-6.9,7.1
										c-0.3,0.2-0.6,0.4-0.7,0.8c-0.1,0.3-0.1,0.7,0,1.1c0.2,0.5,0.7,0.8,1.3,0.8c0.2,0,0.4,0,0.6-0.1c1.9-0.8,3.6-2.1,5.1-3.8
										c1.2-1.3,2.2-2.9,3.2-4.6c0.3-0.5,0.5-1.1,0.8-1.6c0.2,0.5,0.5,1.1,0.8,1.6c0.9,1.8,2,3.3,3.2,4.6c1.5,1.7,3.2,2.9,5.1,3.8
										c0.2,0.1,0.4,0.1,0.6,0.1c0.5,0,1-0.3,1.3-0.8c0.2-0.3,0.2-0.7,0-1.1c-0.1-0.3-0.4-0.6-0.7-0.8c-3.5-1.6-5.7-4.7-6.9-7.1
										c-1.4-2.6-1.9-4.9-1.9-5C44.4,42.7,43.9,42.3,43.2,42.3L43.2,42.3z"/>
								</g>
							</g>
						</g>
					</g>
					<g id="XMLID_29_">
						<g id="XMLID_195_">
							<path id="XMLID_215_" class="st12" d="M40,57.4c-0.2,0-0.4-0.2-0.4-0.4v-2.1c0-0.2,0.2-0.4,0.4-0.4h6.5
								c0.2,0,0.4,0.2,0.4,0.4V57c0,0.2-0.2,0.4-0.4,0.4H40z"/>
							<path id="XMLID_211_" class="st4" d="M46.5,54.9V57H40v-2.1H46.5 M46.5,54.1H40c-0.4,0-0.8,0.4-0.8,0.8V57
								c0,0.4,0.4,0.8,0.8,0.8h6.5c0.4,0,0.8-0.4,0.8-0.8v-2.1C47.3,54.4,46.9,54.1,46.5,54.1L46.5,54.1z"/>
						</g>
					</g>
					<g id="XMLID_51_">
						<g id="XMLID_190_">
							<path id="XMLID_209_" class="st13" d="M34.2,60.3c-0.2,0-0.4-0.2-0.4-0.4v-0.6c0-0.2,0.2-0.4,0.4-0.4h1
								c0.2,0,0.4,0.2,0.4,0.4v0.6c0,0.2-0.2,0.4-0.4,0.4H34.2z"/>
							<path id="XMLID_206_" class="st4" d="M35.3,59.3v0.6h-1v-0.6H35.3 M35.3,58.5h-1c-0.4,0-0.8,0.4-0.8,0.8v0.6
								c0,0.4,0.4,0.8,0.8,0.8h1c0.4,0,0.8-0.4,0.8-0.8v-0.6C36,58.8,35.7,58.5,35.3,58.5L35.3,58.5z"/>
						</g>
					</g>
					<g id="XMLID_53_">
						<g id="XMLID_185_">
							<path id="XMLID_204_" class="st13" d="M37.7,60.3c-0.2,0-0.4-0.2-0.4-0.4v-0.6c0-0.2,0.2-0.4,0.4-0.4h1
								c0.2,0,0.4,0.2,0.4,0.4v0.6c0,0.2-0.2,0.4-0.4,0.4H37.7z"/>
							<path id="XMLID_201_" class="st4" d="M38.7,59.3v0.6h-1v-0.6H38.7 M38.7,58.5h-1c-0.4,0-0.8,0.4-0.8,0.8v0.6
								c0,0.4,0.4,0.8,0.8,0.8h1c0.4,0,0.8-0.4,0.8-0.8v-0.6C39.5,58.8,39.1,58.5,38.7,58.5L38.7,58.5z"/>
						</g>
					</g>
					<g id="XMLID_267_">
						<g id="XMLID_180_">
							<path id="XMLID_199_" class="st13" d="M47.7,60.3c-0.2,0-0.4-0.2-0.4-0.4v-0.6c0-0.2,0.2-0.4,0.4-0.4h1
								c0.2,0,0.4,0.2,0.4,0.4v0.6c0,0.2-0.2,0.4-0.4,0.4H47.7z"/>
							<path id="XMLID_196_" class="st4" d="M48.7,59.3v0.6h-1v-0.6H48.7 M48.7,58.5h-1c-0.4,0-0.8,0.4-0.8,0.8v0.6
								c0,0.4,0.4,0.8,0.8,0.8h1c0.4,0,0.8-0.4,0.8-0.8v-0.6C49.5,58.8,49.2,58.5,48.7,58.5L48.7,58.5z"/>
						</g>
					</g>
					<g id="XMLID_265_">
						<g id="XMLID_175_">
							<path id="XMLID_194_" class="st13" d="M51.2,60.3c-0.2,0-0.4-0.2-0.4-0.4v-0.6c0-0.2,0.2-0.4,0.4-0.4h1
								c0.2,0,0.4,0.2,0.4,0.4v0.6c0,0.2-0.2,0.4-0.4,0.4H51.2z"/>
							<path id="XMLID_191_" class="st4" d="M52.2,59.3v0.6h-1v-0.6H52.2 M52.2,58.5h-1c-0.4,0-0.8,0.4-0.8,0.8v0.6
								c0,0.4,0.4,0.8,0.8,0.8h1c0.4,0,0.8-0.4,0.8-0.8v-0.6C53,58.8,52.6,58.5,52.2,58.5L52.2,58.5z"/>
						</g>
					</g>
					<g id="XMLID_41_">
						<g id="XMLID_170_">
							<path id="XMLID_189_" class="st13" d="M34.2,63.1c-0.2,0-0.4-0.2-0.4-0.4v-0.6c0-0.2,0.2-0.4,0.4-0.4h1
								c0.2,0,0.4,0.2,0.4,0.4v0.6c0,0.2-0.2,0.4-0.4,0.4H34.2z"/>
							<path id="XMLID_186_" class="st4" d="M35.3,62.1v0.6h-1v-0.6H35.3 M35.3,61.3h-1c-0.4,0-0.8,0.4-0.8,0.8v0.6
								c0,0.4,0.4,0.8,0.8,0.8h1c0.4,0,0.8-0.4,0.8-0.8v-0.6C36,61.7,35.7,61.3,35.3,61.3L35.3,61.3z"/>
						</g>
					</g>
					<g id="XMLID_42_">
						<g id="XMLID_165_">
							<path id="XMLID_184_" class="st13" d="M37.7,63.1c-0.2,0-0.4-0.2-0.4-0.4v-0.6c0-0.2,0.2-0.4,0.4-0.4h1
								c0.2,0,0.4,0.2,0.4,0.4v0.6c0,0.2-0.2,0.4-0.4,0.4H37.7z"/>
							<path id="XMLID_181_" class="st4" d="M38.7,62.1v0.6h-1v-0.6H38.7 M38.7,61.3h-1c-0.4,0-0.8,0.4-0.8,0.8v0.6
								c0,0.4,0.4,0.8,0.8,0.8h1c0.4,0,0.8-0.4,0.8-0.8v-0.6C39.5,61.7,39.1,61.3,38.7,61.3L38.7,61.3z"/>
						</g>
					</g>
					<g id="XMLID_231_">
						<g id="XMLID_145_">
							<path id="XMLID_179_" class="st13" d="M47.7,63.1c-0.2,0-0.4-0.2-0.4-0.4v-0.6c0-0.2,0.2-0.4,0.4-0.4h1
								c0.2,0,0.4,0.2,0.4,0.4v0.6c0,0.2-0.2,0.4-0.4,0.4H47.7z"/>
							<path id="XMLID_176_" class="st4" d="M48.7,62.1v0.6h-1v-0.6H48.7 M48.7,61.3h-1c-0.4,0-0.8,0.4-0.8,0.8v0.6
								c0,0.4,0.4,0.8,0.8,0.8h1c0.4,0,0.8-0.4,0.8-0.8v-0.6C49.5,61.7,49.2,61.3,48.7,61.3L48.7,61.3z"/>
						</g>
					</g>
					<g id="XMLID_263_">
						<g id="XMLID_129_">
							<path id="XMLID_174_" class="st13" d="M51.2,63.1c-0.2,0-0.4-0.2-0.4-0.4v-0.6c0-0.2,0.2-0.4,0.4-0.4h1
								c0.2,0,0.4,0.2,0.4,0.4v0.6c0,0.2-0.2,0.4-0.4,0.4H51.2z"/>
							<path id="XMLID_171_" class="st4" d="M52.2,62.1v0.6h-1v-0.6H52.2 M52.2,61.3h-1c-0.4,0-0.8,0.4-0.8,0.8v0.6
								c0,0.4,0.4,0.8,0.8,0.8h1c0.4,0,0.8-0.4,0.8-0.8v-0.6C53,61.7,52.6,61.3,52.2,61.3L52.2,61.3z"/>
						</g>
					</g>
					<g id="XMLID_23_">
						<g id="XMLID_27_">
							<g id="XMLID_112_">
								<path id="XMLID_169_" class="st14" d="M54.2,69.1c-0.2,0-0.4-0.2-0.4-0.4v-2.4c0-0.2,0.2-0.4,0.4-0.4h1.1
									c0.2,0,0.4,0.2,0.4,0.4v2.4c0,0.2-0.2,0.4-0.4,0.4H54.2z"/>
								<path id="XMLID_166_" class="st4" d="M55.3,66.3v2.4h-1.1v-2.4H55.3 M55.3,65.5h-1.1c-0.4,0-0.8,0.4-0.8,0.8v2.4
									c0,0.4,0.4,0.8,0.8,0.8h1.1c0.4,0,0.8-0.4,0.8-0.8v-2.4C56.1,65.8,55.7,65.5,55.3,65.5L55.3,65.5z"/>
							</g>
						</g>
						<g id="XMLID_28_">
							<g id="XMLID_96_">
								<path id="XMLID_149_" class="st14" d="M31.1,69.1c-0.2,0-0.4-0.2-0.4-0.4v-2.4c0-0.2,0.2-0.4,0.4-0.4h1.1
									c0.2,0,0.4,0.2,0.4,0.4v2.4c0,0.2-0.2,0.4-0.4,0.4H31.1z"/>
								<path id="XMLID_146_" class="st4" d="M32.2,66.3v2.4h-1.1v-2.4H32.2 M32.2,65.5h-1.1c-0.4,0-0.8,0.4-0.8,0.8v2.4
									c0,0.4,0.4,0.8,0.8,0.8h1.1c0.4,0,0.8-0.4,0.8-0.8v-2.4C33,65.8,32.6,65.5,32.2,65.5L32.2,65.5z"/>
							</g>
						</g>
					</g>
					<g id="XMLID_36_">
						<g id="XMLID_159_">
							<path id="XMLID_164_" class="st0" d="M37.6,75.1c-0.2,0-0.4-0.2-0.4-0.4v-1c0-0.2,0.2-0.4,0.4-0.4H49c0.2,0,0.4,0.2,0.4,0.4
								v1c0,0.2-0.2,0.4-0.4,0.4H37.6z"/>
							<g id="XMLID_160_">
								<path id="XMLID_161_" class="st4" d="M49,73.7v1H37.6v-1H49 M49,72.9H37.6c-0.4,0-0.8,0.4-0.8,0.8v1c0,0.4,0.4,0.8,0.8,0.8
									H49c0.4,0,0.8-0.4,0.8-0.8v-1C49.8,73.2,49.4,72.9,49,72.9L49,72.9z"/>
							</g>
						</g>
					</g>
					<g id="XMLID_54_">
						<g id="XMLID_5_">
							<g id="XMLID_48_">
								<g id="XMLID_47_">
									<g id="XMLID_152_">
										<path id="XMLID_158_" class="st13" d="M67.9,76.8c-0.2,0-0.4-0.2-0.4-0.4V73c0-0.2,0.2-0.4,0.4-0.4h0.6
											c0.2,0,0.4,0.2,0.4,0.4v3.5c0,0.2-0.2,0.4-0.4,0.4H67.9z"/>
										<g id="XMLID_153_">
											<path id="XMLID_154_" class="st4" d="M68.5,73v3.5h-0.6V73H68.5 M68.5,72.2h-0.6c-0.4,0-0.8,0.4-0.8,0.8v3.5
												c0,0.4,0.4,0.8,0.8,0.8h0.6c0.4,0,0.8-0.4,0.8-0.8V73C69.3,72.5,68.9,72.2,68.5,72.2L68.5,72.2z"/>
										</g>
									</g>
								</g>
								<g id="XMLID_46_">
									<g id="XMLID_90_">
										<path id="XMLID_135_" class="st17" d="M68.2,75.3c-1.2,0-2.1-1.3-2.1-2.9c0-1.6,0.9-2.9,2.1-2.9c1.2,0,2.1,1.3,2.1,2.9
											C70.3,74,69.4,75.3,68.2,75.3z"/>
										<path id="XMLID_132_" class="st4" d="M68.2,70c1,0,1.7,1.1,1.7,2.5c0,1.4-0.8,2.5-1.7,2.5c-1,0-1.7-1.1-1.7-2.5
											C66.4,71.1,67.2,70,68.2,70 M68.2,69.2c-1.4,0-2.5,1.4-2.5,3.3c0,1.8,1.1,3.3,2.5,3.3s2.5-1.4,2.5-3.3
											C70.7,70.6,69.6,69.2,68.2,69.2L68.2,69.2z"/>
									</g>
								</g>
							</g>
							<g id="XMLID_6_">
								<g id="XMLID_7_">
									<g id="XMLID_136_">
										<path id="XMLID_143_" class="st13" d="M60.3,76.8c-0.2,0-0.4-0.2-0.4-0.4V73c0-0.2,0.2-0.4,0.4-0.4h0.6
											c0.2,0,0.4,0.2,0.4,0.4v3.5c0,0.2-0.2,0.4-0.4,0.4H60.3z"/>
										<g id="XMLID_139_">
											<path id="XMLID_140_" class="st4" d="M60.9,73v3.5h-0.6V73H60.9 M60.9,72.2h-0.6c-0.4,0-0.8,0.4-0.8,0.8v3.5
												c0,0.4,0.4,0.8,0.8,0.8h0.6c0.4,0,0.8-0.4,0.8-0.8V73C61.7,72.5,61.4,72.2,60.9,72.2L60.9,72.2z"/>
										</g>
									</g>
								</g>
								<g id="XMLID_52_">
									<g id="XMLID_89_">
										<path id="XMLID_121_" class="st17" d="M60.6,75.3c-1.2,0-2.1-1.3-2.1-2.9c0-1.6,0.9-2.9,2.1-2.9c1.2,0,2.1,1.3,2.1,2.9
											C62.8,74,61.8,75.3,60.6,75.3z"/>
										<path id="XMLID_113_" class="st4" d="M60.6,70c1,0,1.7,1.1,1.7,2.5c0,1.4-0.8,2.5-1.7,2.5c-1,0-1.7-1.1-1.7-2.5
											C58.9,71.1,59.7,70,60.6,70 M60.6,69.2c-1.4,0-2.5,1.4-2.5,3.3c0,1.8,1.1,3.3,2.5,3.3c1.4,0,2.5-1.4,2.5-3.3
											C63.2,70.6,62,69.2,60.6,69.2L60.6,69.2z"/>
									</g>
								</g>
							</g>
							<line id="XMLID_382_" class="st18" x1="69.8" y1="76.9" x2="56.8" y2="76.9"/>
						</g>
						<g id="XMLID_55_">
							<g id="XMLID_2_">
								<g id="XMLID_4_">
									<g id="XMLID_122_">
										<path id="XMLID_128_" class="st13" d="M17.9,76.8c-0.2,0-0.4-0.2-0.4-0.4V73c0-0.2,0.2-0.4,0.4-0.4h0.6
											c0.2,0,0.4,0.2,0.4,0.4v3.5c0,0.2-0.2,0.4-0.4,0.4H17.9z"/>
										<g id="XMLID_123_">
											<path id="XMLID_125_" class="st4" d="M18.5,73v3.5h-0.6V73H18.5 M18.5,72.2h-0.6c-0.4,0-0.8,0.4-0.8,0.8v3.5
												c0,0.4,0.4,0.8,0.8,0.8h0.6c0.4,0,0.8-0.4,0.8-0.8V73C19.3,72.5,18.9,72.2,18.5,72.2L18.5,72.2z"/>
										</g>
									</g>
								</g>
								<g id="XMLID_3_">
									<g id="XMLID_87_">
										<path id="XMLID_103_" class="st17" d="M18.2,75.3c-1.2,0-2.1-1.3-2.1-2.9c0-1.6,0.9-2.9,2.1-2.9c1.2,0,2.1,1.3,2.1,2.9
											C20.3,74,19.4,75.3,18.2,75.3z"/>
										<path id="XMLID_97_" class="st4" d="M18.2,70c1,0,1.7,1.1,1.7,2.5c0,1.4-0.8,2.5-1.7,2.5c-1,0-1.7-1.1-1.7-2.5
											C16.5,71.1,17.2,70,18.2,70 M18.2,69.2c-1.4,0-2.5,1.4-2.5,3.3c0,1.8,1.1,3.3,2.5,3.3c1.4,0,2.5-1.4,2.5-3.3
											C20.7,70.6,19.6,69.2,18.2,69.2L18.2,69.2z"/>
									</g>
								</g>
							</g>
							<g id="XMLID_374_">
								<g id="XMLID_1_">
									<g id="XMLID_104_">
										<path id="XMLID_111_" class="st13" d="M25.4,76.8c-0.2,0-0.4-0.2-0.4-0.4V73c0-0.2,0.2-0.4,0.4-0.4H26
											c0.2,0,0.4,0.2,0.4,0.4v3.5c0,0.2-0.2,0.4-0.4,0.4H25.4z"/>
										<g id="XMLID_105_">
											<path id="XMLID_107_" class="st4" d="M26,73v3.5h-0.6V73H26 M26,72.2h-0.6c-0.4,0-0.8,0.4-0.8,0.8v3.5
												c0,0.4,0.4,0.8,0.8,0.8H26c0.4,0,0.8-0.4,0.8-0.8V73C26.8,72.5,26.5,72.2,26,72.2L26,72.2z"/>
										</g>
									</g>
								</g>
								<g id="XMLID_461_">
									<g id="XMLID_86_">
										<path id="XMLID_95_" class="st17" d="M25.7,75.3c-1.2,0-2.1-1.3-2.1-2.9c0-1.6,0.9-2.9,2.1-2.9c1.2,0,2.1,1.3,2.1,2.9
											C27.8,74,26.9,75.3,25.7,75.3z"/>
										<path id="XMLID_92_" class="st4" d="M25.7,70c1,0,1.7,1.1,1.7,2.5c0,1.4-0.8,2.5-1.7,2.5c-1,0-1.7-1.1-1.7-2.5
											C24,71.1,24.8,70,25.7,70 M25.7,69.2c-1.4,0-2.5,1.4-2.5,3.3c0,1.8,1.1,3.3,2.5,3.3c1.4,0,2.5-1.4,2.5-3.3
											C28.2,70.6,27.1,69.2,25.7,69.2L25.7,69.2z"/>
									</g>
								</g>
							</g>
							<line id="XMLID_366_" class="st18" x1="16.5" y1="76.9" x2="29.6" y2="76.9"/>
						</g>
					</g>
					<g id="XMLID_686_">
						<line id="XMLID_685_" class="st6" x1="72.6" y1="13.8" x2="72.6" y2="15.2"/>
						<line id="XMLID_436_" class="st6" x1="73.3" y1="14.5" x2="71.9" y2="14.5"/>
					</g>
					<g id="XMLID_792_">
						<line id="XMLID_794_" class="st19" x1="30.4" y1="25.1" x2="30.4" y2="26.5"/>
						<line id="XMLID_793_" class="st19" x1="31.1" y1="25.8" x2="29.7" y2="25.8"/>
					</g>
					<g id="XMLID_704_">
						<line id="XMLID_706_" class="st6" x1="17.9" y1="18.8" x2="17.9" y2="20.2"/>
						<line id="XMLID_705_" class="st6" x1="18.6" y1="19.5" x2="17.2" y2="19.5"/>
					</g>
					<g id="XMLID_698_">
						<line id="XMLID_700_" class="st19" x1="70.1" y1="62.4" x2="70.1" y2="63.8"/>
						<line id="XMLID_699_" class="st19" x1="70.8" y1="63.1" x2="69.4" y2="63.1"/>
					</g>
					<g id="XMLID_701_">
						<line id="XMLID_703_" class="st6" x1="74.5" y1="29.9" x2="74.5" y2="31.3"/>
						<line id="XMLID_702_" class="st6" x1="75.2" y1="30.6" x2="73.8" y2="30.6"/>
					</g>
					<g id="XMLID_692_">
						<line id="XMLID_694_" class="st19" x1="10.6" y1="50.2" x2="10.6" y2="51.6"/>
						<line id="XMLID_693_" class="st19" x1="11.3" y1="50.9" x2="9.9" y2="50.9"/>
					</g>
					<g id="XMLID_66_">
						<line id="XMLID_68_" class="st19" x1="32.2" y1="41.7" x2="32.2" y2="43.1"/>
						<line id="XMLID_67_" class="st19" x1="32.9" y1="42.4" x2="31.5" y2="42.4"/>
					</g>
					<g id="XMLID_695_">
						<line id="XMLID_697_" class="st6" x1="9.9" y1="32.6" x2="9.9" y2="34.1"/>
						<line id="XMLID_696_" class="st6" x1="10.6" y1="33.4" x2="9.2" y2="33.4"/>
					</g>
				</g>
				<g class="st2">
					<g>
						<g id="XMLID_605_">
							<path id="XMLID_646_" class="st20" d="M307,63.9l-1,0.6c-2.1,1.4-5,0.8-6.5-1.4l-6.4-9.9c-1.4-2.1-0.8-5,1.4-6.5l1-0.6
								c2.1-1.4,5-0.8,6.5,1.4l6.4,9.9C309.8,59.6,309.1,62.5,307,63.9z"/>
							
								<rect id="XMLID_643_" x="296.1" y="47.5" transform="matrix(0.8423 -0.5391 0.5391 0.8423 17.6703 170.8906)" class="st21" width="9.6" height="15.5"/>
							<g id="XMLID_630_">
								<path id="XMLID_642_" class="st0" d="M302.5,52.6l-4.9,3.2c-0.5,0.3-1.2,0.2-1.5-0.3l-1.3-1.9c-0.3-0.5-0.2-1.2,0.3-1.5
									l4.9-3.2c0.5-0.3,1.2-0.2,1.5,0.3l1.3,1.9C303.2,51.6,303.1,52.3,302.5,52.6z"/>
								
									<rect id="XMLID_639_" x="294.4" y="51.1" transform="matrix(0.8423 -0.5391 0.5391 0.8423 19.2863 169.0092)" class="st20" width="8" height="0.9"/>
								
									<rect id="XMLID_634_" x="299.8" y="51.8" transform="matrix(0.8423 -0.5391 0.5391 0.8423 19.509 170.7729)" class="st22" width="3.5" height="0.6"/>
								
									<ellipse id="XMLID_631_" transform="matrix(0.8423 -0.5391 0.5391 0.8423 17.5185 169.0464)" class="st23" cx="297.6" cy="54.6" rx="0.5" ry="0.5"/>
							</g>
							
								<ellipse id="XMLID_627_" transform="matrix(0.8423 -0.5391 0.5391 0.8423 14.2669 174.7545)" class="st24" cx="305.7" cy="63" rx="0.8" ry="0.8"/>
							
								<ellipse id="XMLID_624_" transform="matrix(0.8423 -0.5391 0.5391 0.8423 21.9672 167.8478)" class="st24" cx="297.8" cy="46.4" rx="0.4" ry="0.4"/>
							
								<ellipse id="XMLID_623_" transform="matrix(0.8423 -0.5391 0.5391 0.8423 22.354 168.1854)" class="st25" cx="298.6" cy="45.9" rx="0.3" ry="0.3"/>
							
								<ellipse id="XMLID_620_" transform="matrix(0.8423 -0.5391 0.5391 0.8423 14.2669 174.7545)" class="st26" cx="305.7" cy="63" rx="0.8" ry="0.8"/>
							<path id="XMLID_619_" class="st25" d="M297.2,47.1l-2.4,1.5c-0.1,0.1-0.3,0-0.3-0.1l0,0c-0.1-0.1,0-0.3,0.1-0.3l2.4-1.5
								c0.1-0.1,0.3,0,0.3,0.1l0,0C297.4,46.9,297.3,47,297.2,47.1z"/>
							<path id="XMLID_616_" class="st23" d="M303.4,55.4l-3.6,2.2c-0.4,0.2-0.9,0.1-1.2-0.3l-0.1-0.2c-0.2-0.4-0.1-0.9,0.3-1.2
								l3.6-2.2c0.4-0.2,0.9-0.1,1.2,0.3l0.1,0.2C303.9,54.6,303.8,55.2,303.4,55.4z"/>
							<path id="XMLID_613_" class="st23" d="M304.6,57.3l-3.6,2.2c-0.4,0.2-0.9,0.1-1.2-0.3l-0.1-0.2c-0.2-0.4-0.1-0.9,0.3-1.2
								l3.6-2.2c0.4-0.2,0.9-0.1,1.2,0.3l0.1,0.2C305,56.5,304.9,57,304.6,57.3z"/>
							<path id="XMLID_610_" class="st23" d="M305.8,59.2l-3.6,2.2c-0.4,0.2-0.9,0.1-1.2-0.3L301,61c-0.2-0.4-0.1-0.9,0.3-1.2
								l3.6-2.2c0.4-0.2,0.9-0.1,1.2,0.3l0.1,0.2C306.3,58.5,306.2,58.9,305.8,59.2z"/>
						</g>
						<g id="XMLID_649_">
							<path id="XMLID_661_" class="st20" d="M324.2,78l-8.6-13.4l-7,4.4l7.9,12.3c0.1,0.1,0,0.3-0.2,0.3l-0.5-0.1h-0.1l-15.5,10
								l4.5,7l19.7-12.8c1.8-1.2,2.3-3.7,1.2-5.5L324.2,78z"/>
							<path id="XMLID_658_" class="st27" d="M308,53.4l-3-0.3c-0.5,0-0.9,0.3-1,0.9c0,0.4,0.2,0.8,0.6,0.9l2.1,0.6
								c0.4,0.1,0.7,0.5,0.6,1l-0.2,2.7l-1.1-1.3c-0.2-0.3-0.4-0.5-0.6-0.8l-1.6-2.8c-0.3-0.4-0.8-0.5-1.2-0.2
								c-0.4,0.2-0.5,0.7-0.3,1.1l3.9,7.8c0.1,0.1,0.1,0.2,0.3,0.3l2,1.8l1.2,1.8l4-2.5l-1.2-1.8l-0.3-0.5l0,0l-0.8-3.9
								c0-0.1-0.1-0.2-0.1-0.3l-2.6-4.1C308.5,53.6,308.3,53.4,308,53.4z"/>
							<polygon id="XMLID_657_" class="st28" points="307.3,58.1 307.3,58.1 307.2,59.1 307.7,59.6 							"/>
							
								<rect id="XMLID_656_" x="308.4" y="64" transform="matrix(0.8423 -0.5391 0.5391 0.8423 13.8506 178.2287)" class="st0" width="6.1" height="2.9"/>
							
								<ellipse id="XMLID_653_" transform="matrix(0.8423 -0.5391 0.5391 0.8423 11.5031 178.478)" class="st23" cx="310.7" cy="69.6" rx="0.6" ry="0.6"/>
							
								<ellipse id="XMLID_650_" transform="matrix(0.8423 -0.5391 0.5391 0.8423 10.7706 179.3734)" class="st23" cx="311.9" cy="71.3" rx="0.6" ry="0.6"/>
						</g>
					</g>
					<g id="XMLID_496_">
						<path id="XMLID_565_" class="st27" d="M286,56.8c0.4,0.2,0.6,0.7,0.4,1.1l-1.5,3l-0.1,0.2c-0.1,0.1,0,0.2,0.1,0.3
							c0.1,0.1,0.2,0,0.3-0.1l0.1-0.2l2.2-4.4c0.2-0.4,0.7-0.6,1.1-0.4c0.4,0.2,0.6,0.7,0.4,1.1l-2.2,4.4l-0.1,0.2
							c-0.1,0.1,0,0.2,0.1,0.3c0.1,0.1,0.2,0,0.3-0.1l0.1-0.2l2.5-4.8c0.2-0.4,0.7-0.6,1.1-0.4c0.4,0.2,0.6,0.7,0.4,1.1l-2.5,4.8
							l-0.1,0.2c-0.1,0.1,0,0.2,0.1,0.3c0.1,0.1,0.2,0,0.3-0.1l0.1-0.2l2-4c0.2-0.4,0.7-0.6,1.1-0.4l0,0c0.4,0.2,0.6,0.7,0.4,1.1
							l-3.1,6c0,0,0,0.1-0.1,0.1h0.4c0.3,0,0.6-0.2,0.6-0.5l0.2-0.7c0.1-0.3,0.3-0.5,0.5-0.5c0.5-0.1,0.9,0.3,0.8,0.8l-0.3,1.7
							c0,0.2-0.1,0.3-0.2,0.4l-2.3,2.2c-0.1,0.1-0.1,0.1-0.2,0.1l-2.8,1.1l-1.1,2.1l-4.6-2.3l1.1-2.1c0,0,0.1-3.8,1.1-5.7l2.6-5.1
							C285.2,56.7,285.6,56.6,286,56.8z"/>
						
							<rect id="XMLID_525_" x="280.9" y="68.3" transform="matrix(0.4523 -0.8919 0.8919 0.4523 91.0641 290.8689)" class="st0" width="2.9" height="6.1"/>
						
							<rect id="XMLID_517_" x="270.8" y="75.3" transform="matrix(0.4523 -0.8919 0.8919 0.4523 81.6488 291.9256)" class="st20" width="15.4" height="8.3"/>
						
							<ellipse id="XMLID_505_" transform="matrix(0.4523 -0.8919 0.8919 0.4523 88.0252 294.1564)" class="st23" cx="283.5" cy="75.4" rx="0.6" ry="0.6"/>
						
							<ellipse id="XMLID_499_" transform="matrix(0.4523 -0.8919 0.8919 0.4523 85.9604 294.3497)" class="st23" cx="282.6" cy="77.2" rx="0.6" ry="0.6"/>
					</g>
				</g>
			</g>
		</g>
	</g>
</g>
<text transform="matrix(1 0 0 1 146.6217 24.238)"><tspan x="0" y="0" class="st29 st30 st31">Your seva tickets and </tspan><tspan x="0" y="15.6" class="st29 st30 st31">accommodation without </tspan><tspan x="0" y="31.2" class="st29 st30 st31">visiting temple premises</tspan></text>
<text transform="matrix(1 0 0 1 146.4799 23.848)"><tspan x="0" y="0" class="st30 st31">Your seva tickets and </tspan><tspan x="0" y="15.6" class="st30 st31">accommodation without </tspan><tspan x="0" y="31.2" class="st30 st31">visiting temple premises</tspan></text>
<g>
	<path class="st32" d="M7.3,12.6h17.8c0,0-0.2-2.8-3.6-2.1c0,0,0.1-3.1-2.3-4C16.6,5.5,14.6,8,14.6,8s-3-0.9-3.6,1.6
		C11,9.5,7.3,9.3,7.3,12.6z"/>
	<path class="st33" d="M78.9,42.3c-0.4-1.7-2.4-1.1-2.4-1.1s-1.4-1.7-3.1-1.1c-1.7,0.6-1.6,2.7-1.6,2.7c-2.3-0.5-2.5,1.5-2.5,1.5
		h12.1C81.4,42.2,78.9,42.3,78.9,42.3z"/>
	<path class="st34" d="M0.5,8.6c0,0,1.5-0.6,2.3,0.2c0,0,0.7-1,2-0.5c0,0-1.7,0.3-1.9,1.3C2.9,9.6,2.9,8.7,0.5,8.6z"/>
	<path class="st34" d="M19.2,3.1c0,0,1.5-0.6,2.3,0.2c0,0,0.7-1,2-0.5c0,0-1.7,0.3-1.9,1.3C21.5,4.1,21.6,3.2,19.2,3.1z"/>
	<path class="st34" d="M74.5,20.7c0,0,1.5-0.6,2.3,0.2c0,0,0.7-1,2-0.5c0,0-1.7,0.3-1.9,1.3C76.9,21.7,76.9,20.9,74.5,20.7z"/>
	<path class="st34" d="M93.2,15.3c0,0,1.5-0.6,2.3,0.2c0,0,0.7-1,2-0.5c0,0-1.7,0.3-1.9,1.3C95.5,16.2,95.6,15.4,93.2,15.3z"/>
	<path class="st34" d="M25.7,8.7c0,0,1.2-0.5,1.8,0.1c0,0,0.5-0.8,1.5-0.4c0,0-1.3,0.2-1.5,1C27.6,9.4,27.6,8.7,25.7,8.7z"/>
</g>
<g>
	<g>
		<g>
			
				<radialGradient id="SVGID_5_" cx="113.2468" cy="32.9366" r="24.7007" gradientTransform="matrix(0.9993 3.670000e-02 -3.670000e-02 0.9993 1.5917 -6.3864)" gradientUnits="userSpaceOnUse">
				<stop  offset="0.5744" style="stop-color:#130C0E"/>
				<stop  offset="0.7977" style="stop-color:#130C0E"/>
				<stop  offset="1" style="stop-color:#130C0E"/>
			</radialGradient>
			<polygon class="st35" points="89.9,11.6 90.6,39.1 98.4,40.1 103.3,55.4 107,41.1 132.3,44.3 138.8,6.5 			"/>
			<polyline class="st36" points="92.9,37.9 92.3,13.5 137.4,8.8 131.5,42.7 106.4,39.6 103.8,49.6 100.4,38.9 92.9,37.9 			"/>
		</g>
		<g>
			
				<radialGradient id="SVGID_6_" cx="215.4493" cy="-664.2516" r="3.6639" gradientTransform="matrix(-0.9319 0.5355 0.5614 0.9289 706.9597 546.6043)" gradientUnits="userSpaceOnUse">
				<stop  offset="0.5744" style="stop-color:#130C0E"/>
				<stop  offset="0.7977" style="stop-color:#130C0E"/>
				<stop  offset="1" style="stop-color:#130C0E"/>
			</radialGradient>
			<polygon class="st37" points="129.2,41.1 137.4,48.8 135.3,49.6 			"/>
		</g>
		<g>
			
				<radialGradient id="SVGID_7_" cx="271.8699" cy="-636.1985" r="5.7677" gradientTransform="matrix(-0.9811 0.1937 0.1937 0.9811 523.1996 623.8133)" gradientUnits="userSpaceOnUse">
				<stop  offset="0.5744" style="stop-color:#130C0E"/>
				<stop  offset="0.7977" style="stop-color:#130C0E"/>
				<stop  offset="1" style="stop-color:#130C0E"/>
			</radialGradient>
			<polygon class="st38" points="129.6,45 136.9,59.6 133.7,59.4 			"/>
		</g>
	</g>
	<text transform="matrix(1 0 0 1 98.5086 23.5913)"><tspan x="0" y="0" class="st39 st40">Now </tspan><tspan x="0" y="14.6" class="st39 st41">book</tspan></text>
	<text transform="matrix(1 0 0 1 97.7186 22.3882)"><tspan x="0" y="0" class="st0 st39 st40">Now </tspan><tspan x="0" y="14.6" class="st0 st39 st41">book</tspan></text>
</g>
</svg>
