<?xml version="1.0" encoding="utf-8"?>
<!-- Generator: Adobe Illustrator 21.1.0, SVG Export Plug-In . SVG Version: 6.00 Build 0)  -->
<svg version="1.1" id="Layer_1" xmlns="http://www.w3.org/2000/svg" xmlns:xlink="http://www.w3.org/1999/xlink" x="0px" y="0px"
	 viewBox="0 0 320 75" style="enable-background:new 0 0 320 75;" xml:space="preserve">
<style type="text/css">
	.st0{fill:#FFFFFF;}
	.st1{clip-path:url(#SVGID_2_);}
	.st2{clip-path:url(#SVGID_5_);}
	.st3{fill:#143AB5;}
	.st4{fill:#FFCB31;}
	.st5{fill:#FDDB00;}
	.st6{clip-path:url(#SVGID_7_);}
	.st7{fill:#211E1F;}
	.st8{fill:#F9B717;}
	.st9{clip-path:url(#SVGID_9_);}
	.st10{clip-path:url(#SVGID_11_);}
	.st11{opacity:0.45;}
	.st12{fill:#D1D3D4;fill-opacity:0;}
	.st13{opacity:3.225806e-02;fill:#CACCCD;enable-background:new    ;}
	.st14{opacity:6.451613e-02;fill:#C4C5C6;enable-background:new    ;}
	.st15{opacity:9.677419e-02;fill:#BDBFBF;enable-background:new    ;}
	.st16{opacity:0.129;fill:#B6B8B9;enable-background:new    ;}
	.st17{opacity:0.1613;fill:#AFB1B2;enable-background:new    ;}
	.st18{opacity:0.1935;fill:#A9AAAB;enable-background:new    ;}
	.st19{opacity:0.2258;fill:#A2A3A4;enable-background:new    ;}
	.st20{opacity:0.2581;fill:#9B9D9D;enable-background:new    ;}
	.st21{opacity:0.2903;fill:#949696;enable-background:new    ;}
	.st22{opacity:0.3226;fill:#8E8F90;enable-background:new    ;}
	.st23{opacity:0.3548;fill:#878889;enable-background:new    ;}
	.st24{opacity:0.3871;fill:#808182;enable-background:new    ;}
	.st25{opacity:0.4194;fill:#797B7B;enable-background:new    ;}
	.st26{opacity:0.4516;fill:#737474;enable-background:new    ;}
	.st27{opacity:0.4839;fill:#6C6D6D;enable-background:new    ;}
	.st28{opacity:0.5161;fill:#656667;enable-background:new    ;}
	.st29{opacity:0.5484;fill:#5E5F60;enable-background:new    ;}
	.st30{opacity:0.5806;fill:#585859;enable-background:new    ;}
	.st31{opacity:0.6129;fill:#515252;enable-background:new    ;}
	.st32{opacity:0.6452;fill:#4A4B4B;enable-background:new    ;}
	.st33{opacity:0.6774;fill:#434444;enable-background:new    ;}
	.st34{opacity:0.7097;fill:#3D3D3E;enable-background:new    ;}
	.st35{opacity:0.7419;fill:#363637;enable-background:new    ;}
	.st36{opacity:0.7742;fill:#2F3030;enable-background:new    ;}
	.st37{opacity:0.8065;fill:#282929;enable-background:new    ;}
	.st38{opacity:0.8387;fill:#222222;enable-background:new    ;}
	.st39{opacity:0.871;fill:#1B1B1B;enable-background:new    ;}
	.st40{opacity:0.9032;fill:#141415;enable-background:new    ;}
	.st41{opacity:0.9355;fill:#0D0E0E;enable-background:new    ;}
	.st42{opacity:0.9677;fill:#070707;enable-background:new    ;}
	.st43{fill:#F9A500;}
	.st44{clip-path:url(#SVGID_13_);}
	.st45{opacity:0.55;}
	.st46{fill:#E7E7E7;}
	.st47{fill:#E6E6E6;}
	.st48{fill:#E5E5E5;}
	.st49{fill:#E4E4E4;}
	.st50{fill:#E3E3E3;}
	.st51{fill:#E2E2E2;}
	.st52{fill:#E1E1E1;}
	.st53{fill:#E0E0E0;}
	.st54{fill:#DFDFE0;}
	.st55{fill:#DEDEDF;}
	.st56{fill:#DDDDDE;}
	.st57{fill:#DCDCDD;}
	.st58{fill:#DBDBDC;}
	.st59{fill:#DADADB;}
	.st60{fill:#D9D9DA;}
	.st61{fill:#D8D8D9;}
	.st62{fill:#D7D7D8;}
	.st63{fill:#D6D6D7;}
	.st64{fill:#D5D5D6;}
	.st65{fill:#D4D4D5;}
	.st66{fill:#D3D3D4;}
	.st67{fill:#D2D2D3;}
	.st68{fill:#D1D1D3;}
	.st69{fill:#D0D0D2;}
	.st70{fill:#CFCFD1;}
	.st71{fill:#CECED0;}
	.st72{fill:#CDCDCF;}
	.st73{fill:#CCCCCE;}
	.st74{fill:#CBCBCD;}
	.st75{fill:#CACBCC;}
	.st76{fill:#C9CACB;}
	.st77{fill:#C8C9CA;}
	.st78{fill:#C7C8C9;}
	.st79{fill:#C6C7C8;}
	.st80{fill:#C5C6C7;}
	.st81{fill:#C4C5C6;}
	.st82{fill:#C3C4C6;}
	.st83{fill:#C2C3C5;}
	.st84{fill:#C1C2C4;}
	.st85{fill:#C0C1C3;}
	.st86{fill:#BFC0C2;}
	.st87{fill:#BEBFC1;}
	.st88{fill:#BDBEC0;}
	.st89{fill:#BCBDBF;}
	.st90{fill:#BBBCBE;}
	.st91{fill:#BABBBD;}
	.st92{fill:#B9BABC;}
	.st93{fill:#B8B9BB;}
	.st94{fill:#B7B8BA;}
	.st95{fill:#B6B7B9;}
	.st96{fill:#B5B6B8;}
	.st97{fill:#B4B5B8;}
	.st98{fill:#B3B4B7;}
	.st99{fill:#B2B3B6;}
	.st100{fill:#B1B2B5;}
	.st101{fill:#B0B1B4;}
	.st102{fill:#AFB0B3;}
	.st103{fill:#AEAFB2;}
	.st104{fill:#ADAEB1;}
	.st105{fill:#ACADB0;}
	.st106{fill:#ABACAF;}
	.st107{fill:#AAABAE;}
	.st108{fill:#A9AAAD;}
	.st109{fill:#A8A9AC;}
	.st110{fill:#A7A8AB;}
	.st111{fill:#A6A7AB;}
	.st112{fill:#A5A6AA;}
	.st113{fill:#A4A5A9;}
	.st114{fill:#A3A4A8;}
	.st115{fill:#A2A3A7;}
	.st116{fill:#A1A2A6;}
	.st117{fill:#A0A1A5;}
	.st118{fill:#9FA0A4;}
	.st119{fill:#9E9FA3;}
	.st120{fill:#9D9EA2;}
	.st121{fill:#9C9DA1;}
	.st122{fill:#9B9CA0;}
	.st123{fill:#9A9B9F;}
	.st124{fill:#999A9E;}
	.st125{fill:#98999E;}
	.st126{fill:#97989D;}
	.st127{fill:#96979C;}
	.st128{fill:#95969B;}
	.st129{fill:#94959A;}
	.st130{fill:#939499;}
	.st131{fill:#929398;}
	.st132{fill:#919397;}
	.st133{fill:#909296;}
	.st134{fill:#8F9195;}
	.st135{fill:#8E9094;}
	.st136{fill:#8D8F93;}
	.st137{fill:#8C8E92;}
	.st138{fill:#8B8D91;}
	.st139{fill:#8A8C90;}
	.st140{fill:#898B90;}
	.st141{fill:#888A8F;}
	.st142{fill:#87898E;}
	.st143{fill:#86888D;}
	.st144{fill:#85878C;}
	.st145{fill:#84868B;}
	.st146{fill:#83858A;}
	.st147{fill:#828489;}
	.st148{fill:#818388;}
	.st149{fill:#808287;}
	.st150{fill:#7F8186;}
	.st151{fill:#7E8085;}
	.st152{fill:#7D7F84;}
	.st153{fill:#7C7E83;}
	.st154{fill:#7B7D83;}
	.st155{fill:#7A7C82;}
	.st156{fill:#797B81;}
	.st157{fill:#787A80;}
	.st158{fill:#77797F;}
	.st159{fill:#76787E;}
	.st160{fill:#75777D;}
	.st161{fill:#74767C;}
	.st162{fill:#73757B;}
	.st163{fill:#72747A;}
	.st164{fill:#717379;}
	.st165{fill:#707278;}
	.st166{fill:#6F7177;}
	.st167{fill:#6E7076;}
	.st168{fill:#6D6F76;}
	.st169{fill:#6C6E75;}
	.st170{fill:#6B6D74;}
	.st171{fill:#6A6C73;}
	.st172{fill:#696B72;}
	.st173{fill:#686A71;}
	.st174{fill:#676970;}
	.st175{fill:#66686F;}
	.st176{fill:#65676E;}
	.st177{fill:#64666D;}
	.st178{fill:#63656C;}
	.st179{fill:#62646B;}
	.st180{fill:#61636A;}
	.st181{fill:#606269;}
	.st182{fill:#5F6169;}
	.st183{fill:#5E6068;}
	.st184{fill:#5D5F67;}
	.st185{fill:#5C5E66;}
	.st186{fill:#5B5D65;}
	.st187{fill:#5A5C64;}
	.st188{fill:#595B63;}
	.st189{fill:#585A62;}
	.st190{fill:#575A61;}
	.st191{fill:#565960;}
	.st192{fill:#55585F;}
	.st193{fill:#54575E;}
	.st194{fill:#53565D;}
	.st195{fill:#52555C;}
	.st196{fill:#51545B;}
	.st197{fill:#50535B;}
	.st198{fill:#4F525A;}
	.st199{fill:#4E5159;}
	.st200{fill:#4D5058;}
	.st201{fill:#4C4F57;}
	.st202{fill:#4B4E56;}
	.st203{fill:#4A4D55;}
	.st204{fill:#494C54;}
	.st205{fill:#484B53;}
	.st206{fill:#474A52;}
	.st207{fill:#464951;}
	.st208{fill:#454850;}
	.st209{fill:#44474F;}
	.st210{fill:#43464E;}
	.st211{fill:#42454E;}
	.st212{fill:#41444D;}
	.st213{fill:#40434C;}
	.st214{fill:#3F424B;}
	.st215{fill:#3E414A;}
	.st216{fill:#3D4049;}
	.st217{fill:#3C3F48;}
	.st218{fill:#3B3E47;}
	.st219{fill:#3A3D46;}
	.st220{fill:#393C45;}
	.st221{fill:#383B44;}
	.st222{fill:#373A43;}
	.st223{fill:#363942;}
	.st224{fill:#353841;}
	.st225{fill:#343741;}
	.st226{fill:#333640;}
	.st227{fill:#32353F;}
	.st228{fill:#31343E;}
	.st229{fill:#30333D;}
	.st230{fill:#2F323C;}
	.st231{fill:#2E313B;}
	.st232{fill:#2D303A;}
	.st233{fill:#2C2F39;}
	.st234{fill:#2B2E38;}
	.st235{fill:#2A2D37;}
	.st236{fill:#292C36;}
	.st237{fill:#282B35;}
	.st238{fill:#272A34;}
	.st239{fill:#262933;}
	.st240{fill:#252833;}
	.st241{fill:#242732;}
	.st242{fill:#232631;}
	.st243{fill:#222530;}
	.st244{fill:#21242F;}
	.st245{fill:#20232E;}
	.st246{fill:#1F222D;}
	.st247{fill:#1E222C;}
	.st248{fill:#1D212B;}
	.st249{fill:#1C202A;}
	.st250{fill:#1B1F29;}
	.st251{fill:#1A1E28;}
	.st252{fill:#191D27;}
	.st253{fill:#181C26;}
	.st254{fill:#171B26;}
	.st255{fill:#161A25;}
	.st256{fill:#151924;}
	.st257{fill:#141823;}
	.st258{fill:#131722;}
	.st259{fill:#121621;}
	.st260{fill:#111520;}
	.st261{fill:#10141F;}
	.st262{fill:#0F131E;}
	.st263{fill:#0E121D;}
	.st264{fill:#0D111C;}
	.st265{fill:#0C101B;}
	.st266{fill:#0B0F1A;}
	.st267{fill:#0A0E19;}
	.st268{fill:#090D19;}
	.st269{fill:#080C18;}
	.st270{fill:#070B17;}
	.st271{fill:#060A16;}
	.st272{fill:#050915;}
	.st273{fill:#040814;}
	.st274{fill:#030713;}
	.st275{fill:#020612;}
	.st276{fill:#D42424;}
	.st277{opacity:0.44;}
	.st278{fill:#FEFEFE;}
	.st279{fill:#FDFDFD;}
	.st280{fill:#FCFCFC;}
	.st281{fill:#FBFBFB;}
	.st282{fill:#FAFAFA;}
	.st283{fill:#F9F9F9;}
	.st284{fill:#F8F8F8;}
	.st285{fill:#F7F7F7;}
	.st286{fill:#F6F6F6;}
	.st287{fill:#F5F5F5;}
	.st288{fill:#F4F4F4;}
	.st289{fill:#F3F3F3;}
	.st290{fill:#F2F2F2;}
	.st291{fill:#F1F1F1;}
	.st292{fill:#F0F0F0;}
	.st293{fill:#EFEFEF;}
	.st294{fill:#EEEEEE;}
	.st295{fill:#EEEDED;}
	.st296{fill:#EDECEC;}
	.st297{fill:#ECEBEB;}
	.st298{fill:#EBEAEA;}
	.st299{fill:#EAE9E9;}
	.st300{fill:#E9E8E8;}
	.st301{fill:#E8E7E7;}
	.st302{fill:#E7E6E6;}
	.st303{fill:#E6E5E5;}
	.st304{fill:#E5E4E4;}
	.st305{fill:#E4E3E3;}
	.st306{fill:#E3E2E2;}
	.st307{fill:#E2E1E1;}
	.st308{fill:#E1E0E0;}
	.st309{fill:#E0DFDF;}
	.st310{fill:#DFDEDE;}
	.st311{fill:#DEDDDD;}
	.st312{fill:#DDDCDC;}
	.st313{fill:#DCDBDB;}
	.st314{fill:#DBDADA;}
	.st315{fill:#DAD9D9;}
	.st316{fill:#D9D8D8;}
	.st317{fill:#D8D7D7;}
	.st318{fill:#D7D6D6;}
	.st319{fill:#D6D5D5;}
	.st320{fill:#D5D4D4;}
	.st321{fill:#D4D3D3;}
	.st322{fill:#D3D2D2;}
	.st323{fill:#D2D1D1;}
	.st324{fill:#D1D0D0;}
	.st325{fill:#D0CFCF;}
	.st326{fill:#CFCECE;}
	.st327{fill:#CECDCD;}
	.st328{fill:#CDCCCC;}
	.st329{fill:#CCCBCB;}
	.st330{fill:#CBCACA;}
	.st331{fill:#CAC9C9;}
	.st332{fill:#C9C8C8;}
	.st333{fill:#C8C7C7;}
	.st334{fill:#C7C6C6;}
	.st335{fill:#C6C5C5;}
	.st336{fill:#C5C4C4;}
	.st337{fill:#C4C3C3;}
	.st338{fill:#C3C2C2;}
	.st339{fill:#C2C1C1;}
	.st340{fill:#C1C0C0;}
	.st341{fill:#C0BFBF;}
	.st342{fill:#BFBEBE;}
	.st343{fill:#BEBDBD;}
	.st344{fill:#BDBCBC;}
	.st345{fill:#BCBBBB;}
	.st346{fill:#BBBABA;}
	.st347{fill:#BAB9B9;}
	.st348{fill:#B9B8B8;}
	.st349{fill:#B8B7B7;}
	.st350{fill:#B7B6B6;}
	.st351{fill:#B6B5B5;}
	.st352{fill:#B5B4B4;}
	.st353{fill:#B4B3B3;}
	.st354{fill:#B3B2B2;}
	.st355{fill:#B2B1B1;}
	.st356{fill:#B1B0B0;}
	.st357{fill:#B0AFAF;}
	.st358{fill:#AFAEAE;}
	.st359{fill:#AEADAD;}
	.st360{fill:#ADACAC;}
	.st361{fill:#ADABAB;}
	.st362{fill:#ACAAAA;}
	.st363{fill:#ABA9A9;}
	.st364{fill:#AAA8A8;}
	.st365{fill:#A9A7A7;}
	.st366{fill:#A8A6A6;}
	.st367{fill:#A7A5A5;}
	.st368{fill:#A6A4A4;}
	.st369{fill:#A5A3A3;}
	.st370{fill:#A4A2A2;}
	.st371{fill:#A3A1A1;}
	.st372{fill:#A2A0A0;}
	.st373{fill:#A19F9F;}
	.st374{fill:#A09E9E;}
	.st375{fill:#9F9D9D;}
	.st376{fill:#9E9C9C;}
	.st377{fill:#9D9B9B;}
	.st378{fill:#9C9A9A;}
	.st379{font-family:'Montserrat-Bold';}
	.st380{font-size:4.4082px;}
	.st381{fill:#262626;}
	.st382{font-size:25.2616px;}
	.st383{fill:#FEF9F9;}
	.st384{fill:#FDF3F3;}
	.st385{fill:#FCEDED;}
	.st386{fill:#FAE7E7;}
	.st387{fill:#F9E1E1;}
	.st388{fill:#F8DBDB;}
	.st389{fill:#F7D6D6;}
	.st390{fill:#F6D0D0;}
	.st391{fill:#F5CACA;}
	.st392{fill:#F3C4C4;}
	.st393{fill:#F2BEBE;}
	.st394{fill:#F1B8B8;}
	.st395{fill:#F0B2B2;}
	.st396{fill:#EFACAC;}
	.st397{fill:#EEA6A6;}
	.st398{fill:#ECA0A0;}
	.st399{fill:#EB9A9A;}
	.st400{fill:#EA9494;}
	.st401{fill:#E98F8F;}
	.st402{fill:#E88989;}
	.st403{fill:#E78383;}
	.st404{fill:#E57D7D;}
	.st405{fill:#E47777;}
	.st406{fill:#E37171;}
	.st407{fill:#E26B6B;}
	.st408{fill:#E16565;}
	.st409{fill:#E05F5F;}
	.st410{fill:#DE5959;}
	.st411{fill:#DD5353;}
	.st412{fill:#DC4D4D;}
	.st413{fill:#DB4848;}
	.st414{fill:#DA4242;}
	.st415{fill:#D93C3C;}
	.st416{fill:#D73636;}
	.st417{fill:#D63030;}
	.st418{fill:#D52A2A;}
	.st419{fill:#122343;}
	.st420{fill:url(#SVGID_14_);}
	.st421{fill:url(#SVGID_15_);}
	.st422{fill:#1D3861;}
	.st423{fill:#132545;}
	.st424{fill:#142647;}
	.st425{fill:#152849;}
	.st426{fill:#15294B;}
	.st427{fill:#162B4D;}
	.st428{fill:#172C4F;}
	.st429{fill:#182E51;}
	.st430{fill:#192F53;}
	.st431{fill:#1A3155;}
	.st432{fill:#1A3257;}
	.st433{fill:#1B3359;}
	.st434{fill:#1C355B;}
	.st435{fill:#1D365D;}
	.st436{fill:#1E385F;}
	.st437{fill:#1E3961;}
	.st438{fill:#1F3B63;}
	.st439{fill:#203C65;}
	.st440{fill:#213E67;}
	.st441{fill:#143154;}
	.st442{fill:#133255;}
	.st443{fill:#133256;}
	.st444{fill:#123358;}
	.st445{fill:#113459;}
	.st446{fill:#11345A;}
	.st447{fill:#10355B;}
	.st448{fill:#0F365C;}
	.st449{fill:#0E375E;}
	.st450{fill:#0E375F;}
	.st451{fill:#0D3860;}
	.st452{fill:#0C3961;}
	.st453{fill:#0C3962;}
	.st454{fill:#0B3A64;}
	.st455{fill:#0A3B65;}
	.st456{fill:#0A3B66;}
	.st457{fill:#093C67;}
	.st458{fill:#083D69;}
	.st459{fill:#083D6A;}
	.st460{fill:#073E6B;}
	.st461{fill:#063F6C;}
	.st462{fill:#063F6D;}
	.st463{fill:#05406F;}
	.st464{fill:#044170;}
	.st465{fill:#034271;}
	.st466{fill:#034272;}
	.st467{fill:#024373;}
	.st468{fill:#014475;}
	.st469{fill:#014476;}
	.st470{fill:#004577;}
	.st471{fill:#F72129;}
	.st472{font-family:'Modena-CondensedLight';}
	.st473{font-size:11px;}
	.st474{font-family:'Modena-CondensedBold';}
	.st475{font-size:16.1604px;}
	.st476{fill:url(#XMLID_6_);}
</style>
<g>
	
		<image style="overflow:visible;enable-background:new    ;" width="1375" height="967" xlink:href="../80D39B1E.png"  transform="matrix(1.477673e-02 0 0 1.477673e-02 21.829 6.3453)">
	</image>
</g>
<g id="XMLID_49_">
	<path id="XMLID_50_" class="st0" d="M59.9,50.8l-2.5-0.2l1.7,2.7l0,0c0.1,0.2,0.2,0.4,0.1,0.6L59,56.7l-1.1-1.3
		c-0.2-0.3-0.4-0.5-0.6-0.8l-1.7-2.9c-0.3-0.4-0.8-0.5-1.2-0.2c-0.4,0.2-0.5,0.7-0.3,1.1l4,8.1c0.1,0.1,0.1,0.2,0.3,0.3l2.1,1.9
		l1.2,1.9l4.1-2.6l-1.2-1.9l-0.3-0.5l0,0l-0.8-4c0-0.1-0.1-0.2-0.1-0.3l-2.7-4.2C60.4,51,60.2,50.8,59.9,50.8z"/>
</g>
<g>
	<g>
		<g>
			<g>
				<defs>
					<rect id="SVGID_1_" y="0.3" width="320" height="74.8"/>
				</defs>
				<clipPath id="SVGID_2_">
					<use xlink:href="#SVGID_1_"  style="overflow:visible;"/>
				</clipPath>
				<g class="st1">
					
						<image style="overflow:visible;enable-background:new    ;" width="1375" height="967" xlink:href="../80D39B1E.png"  transform="matrix(0.2399 0 0 0.239 -5.0651 -75.2679)">
					</image>
				</g>
			</g>
			<g>
				<defs>
					<rect id="SVGID_4_" y="0.3" width="320" height="74.8"/>
				</defs>
				<clipPath id="SVGID_5_">
					<use xlink:href="#SVGID_4_"  style="overflow:visible;"/>
				</clipPath>
				<g class="st2">
					<path class="st3" d="M130.1,41.7l30.4,45.7L116,87.6l-2.1-13.2H98.3l-2.1,13.2l-45.7-0.2l31.6-46v0.1c0,1.1,0.1,2.2,0.9,3
						c0.8,0.8,2,1,3.1,1c1.6,0.1,3.2,0,4.8,0.1c3.4,0.1,5-1.6,4.6-4.9c0-0.1,0-0.4,0-0.6c0.1,0,0.2,0,0.3,0c2.7,0,5.4,0,8,0
						l-1.7,10.7h8.2l-1.7-10.7c2.7,0,5.4,0,8,0c0,0,0.1,0,0.2,0c-0.3,1.6-0.2,3.5,1.2,4.6c1.5,1.2,3.8,0.9,5.5,0.9h2.2h1.3
						C129.3,45.6,130,43.6,130.1,41.7L130.1,41.7z M113.3,70.3l-2.6-16.7h-9l-2.6,16.7H113.3z"/>
					<path d="M106.2,10.9L106.2,10.9c3.6,0,7.2,0.1,10.9,0c2.9-0.1,4.9,1.1,5.9,3.8c0.3,0.9,0.9,1.8,1.1,2.7
						c0.7,2.9,2.5,3.9,5.4,3.5c1.3-0.2,3.1-0.6,3.1,1.9c0,2-0.8,2.6-2.7,2.5c-1.7-0.1-1.5,1.2-1.5,2.2c0,4.6-0.1,9.2,0,13.8
						c0,1.7-0.4,2.8-1.6,2.9h-1.3h-2.2c-3,0-6,0.6-5.2-3.9c0.2-1.3-0.5-1.7-1.7-1.7c-7,0-13.9,0-20.9,0c-1.7,0-1.9,1-1.8,2.3
						c0.3,2.3-0.5,3.3-3,3.3c-8.6-0.2-7.1,1-7.2-7.1c0-3.2,0-6.5,0-9.7c0-1.4-0.3-2.3-1.9-2.1c-1.9,0.2-2.2-1-2.2-2.6
						c0-1.8,1.1-2,2.3-1.8c4,0.8,5.4-1.4,6.7-4.7c1.8-5,2.6-5.3,8.1-5.3C99.8,10.9,103,10.9,106.2,10.9L106.2,10.9z M117.6,28.2
						L117.6,28.2h8.7c0.4,0,0.7,0.3,0.7,0.7v2.2c0,0.4-0.3,0.7-0.7,0.7h-8.7c-0.4,0-0.7-0.3-0.7-0.7v-2.2
						C116.9,28.5,117.2,28.2,117.6,28.2L117.6,28.2z M86.3,28.2L86.3,28.2H95c0.4,0,0.7,0.3,0.7,0.7v2.2c0,0.4-0.3,0.7-0.7,0.7h-8.7
						c-0.4,0-0.7-0.3-0.7-0.7v-2.2C85.7,28.5,86,28.2,86.3,28.2L86.3,28.2z M106.1,23.8L106.1,23.8c5.4,0,10.7-0.1,16.1,0
						c2.2,0,3.2-0.5,2-2.9c-0.9-1.8-1.7-3.7-2.5-5.6c-0.9-2.2-2.5-3.1-4.8-3c-5.5,0.1-10.9,0-16.4,0c-10.3,0.1-8.1-1.2-12.4,8.3
						C88,20.8,88,21,87.9,21.1c-1.1,2-0.2,2.6,1.8,2.6C95.2,23.8,100.6,23.8,106.1,23.8L106.1,23.8z"/>
					<path d="M99.8,11.7c-0.3,0.1-0.8,0-1.1,0c4,0,10.7,0.4,14.6,0h-1c-0.4-0.9-1-3.9-1.4-4.3l-0.1-0.2c-0.3-0.3-0.9-0.2-1.4-0.2
						c-2.1,0-4.2,0-6.2,0c-0.5,0-1,0-1.5,0c-0.7,0-0.7,0.8-0.9,1.1c-0.1,0.2,0,0-0.1,0.3c-0.1,0.4-0.2,0.8-0.3,1.2
						c0,0.1-0.1,0.2-0.1,0.3C100.4,10,99.8,11.7,99.8,11.7L99.8,11.7z"/>
					<path class="st4" d="M100.4,9.9h0.3v0.6h-0.5L100.4,9.9L100.4,9.9z M112.2,11.1c-0.1-0.2-0.1-0.4-0.2-0.6h-0.2v0.6H112.2z
						 M100.1,11v0.1l0,0V11z M110.5,10.5h0.6v0.6h-0.6V10.5z M109.3,10.5h0.6v0.6h-0.6V10.5z M108.1,10.5h0.6v0.6h-0.6V10.5z
						 M106.8,10.5h0.6v0.6h-0.6V10.5z M105.6,10.5h0.6v0.6h-0.6V10.5z M104.4,10.5h0.6v0.6h-0.6V10.5z M103.1,10.5h0.6v0.6h-0.6
						V10.5z M101.9,10.5h0.6v0.6h-0.6V10.5z M100.7,10.5h0.6v0.6h-0.6V10.5z M111.1,9.9h0.6v0.6h-0.6V9.9z M109.9,9.9h0.6v0.6h-0.6
						V9.9z M108.7,9.9h0.6v0.6h-0.6V9.9z M107.4,9.9h0.6v0.6h-0.6V9.9z M106.2,9.9h0.6v0.6h-0.6V9.9z M105,9.9h0.6v0.6H105V9.9z
						 M103.8,9.9h0.6v0.6h-0.6V9.9z M102.5,9.9h0.6v0.6h-0.6V9.9z M101.3,9.9h0.6v0.6h-0.6V9.9z"/>
					<path class="st5" d="M98.1,28.4l15.8,0.1c-0.7,1.9-1.4,5.6-3.7,5.6h-8.1C99.9,34.1,98.8,30.2,98.1,28.4L98.1,28.4z"/>
					<path d="M103,30.2h5.8c-0.2,0.7-0.5,2.1-1.4,2.1h-3C103.7,32.3,103.3,30.9,103,30.2L103,30.2z"/>
				</g>
			</g>
			<g>
				<defs>
					<rect id="SVGID_6_" y="0.3" width="320" height="74.8"/>
				</defs>
				<clipPath id="SVGID_7_">
					<use xlink:href="#SVGID_6_"  style="overflow:visible;"/>
				</clipPath>
				<g class="st6">
					<rect y="100.8" class="st7" width="7.9" height="7.9"/>
					<rect x="7.9" y="100.8" class="st8" width="7.9" height="7.9"/>
					<rect x="15.8" y="100.8" class="st7" width="7.9" height="7.9"/>
					<rect x="23.6" y="100.8" class="st8" width="7.9" height="7.9"/>
					<rect x="31.5" y="100.8" class="st7" width="7.9" height="7.9"/>
					<rect x="39.4" y="100.8" class="st8" width="7.9" height="7.9"/>
					<rect x="7.9" y="108.6" class="st7" width="7.9" height="7.9"/>
					<rect x="15.8" y="108.6" class="st8" width="7.9" height="7.9"/>
					<rect x="23.6" y="108.6" class="st7" width="7.9" height="7.9"/>
					<rect x="31.5" y="108.6" class="st8" width="7.9" height="7.9"/>
					<rect x="39.4" y="108.6" class="st7" width="7.9" height="7.9"/>
					<rect y="116.5" class="st7" width="7.9" height="7.9"/>
					<rect x="7.9" y="116.5" class="st8" width="7.9" height="7.9"/>
					<rect x="15.8" y="116.5" class="st7" width="7.9" height="7.9"/>
					<rect x="23.6" y="116.5" class="st8" width="7.9" height="7.9"/>
					<rect x="31.5" y="116.5" class="st7" width="7.9" height="7.9"/>
					<rect x="39.4" y="116.5" class="st8" width="7.9" height="7.9"/>
					<rect y="108.6" class="st8" width="7.9" height="7.9"/>
				</g>
			</g>
			<g>
				<defs>
					<rect id="SVGID_8_" y="0.3" width="320" height="74.8"/>
				</defs>
				<clipPath id="SVGID_9_">
					<use xlink:href="#SVGID_8_"  style="overflow:visible;"/>
				</clipPath>
				<g class="st9">
					<rect x="272.9" y="59.8" class="st7" width="7.9" height="7.9"/>
					<rect x="280.7" y="59.8" class="st8" width="7.9" height="7.9"/>
					<rect x="288.6" y="59.8" class="st7" width="7.9" height="7.9"/>
					<rect x="296.5" y="59.8" class="st8" width="7.9" height="7.9"/>
					<rect x="304.3" y="59.8" class="st7" width="7.9" height="7.9"/>
					<rect x="312.2" y="59.8" class="st8" width="7.9" height="7.9"/>
					<rect x="280.7" y="67.6" class="st7" width="7.9" height="7.9"/>
					<rect x="288.6" y="67.6" class="st8" width="7.9" height="7.9"/>
					<rect x="296.5" y="67.6" class="st7" width="7.9" height="7.9"/>
					<rect x="304.3" y="67.6" class="st8" width="7.9" height="7.9"/>
					<rect x="312.2" y="67.6" class="st7" width="7.9" height="7.9"/>
					<rect x="272.9" y="75.5" class="st7" width="7.9" height="7.9"/>
					<rect x="280.7" y="75.5" class="st8" width="7.9" height="7.9"/>
					<rect x="288.6" y="75.5" class="st7" width="7.9" height="7.9"/>
					<rect x="296.5" y="75.5" class="st8" width="7.9" height="7.9"/>
					<rect x="304.3" y="75.5" class="st7" width="7.9" height="7.9"/>
					<rect x="312.2" y="75.5" class="st8" width="7.9" height="7.9"/>
					<rect x="272.9" y="67.6" class="st8" width="7.9" height="7.9"/>
				</g>
			</g>
			<g>
				<defs>
					<rect id="SVGID_10_" y="0.3" width="320" height="74.8"/>
				</defs>
				<clipPath id="SVGID_11_">
					<use xlink:href="#SVGID_10_"  style="overflow:visible;"/>
				</clipPath>
				<g class="st10">
					<g class="st11">
						<polygon class="st12" points="329.5,18.9 329.5,18.9 326.5,15.3 147.4,28.8 147.4,70.2 341,55.6 341,32.4 331.9,21.6 						
							"/>
						<polygon class="st13" points="329.4,18.6 329.4,18.6 326.4,15 147.3,28.5 147.3,69.9 340.8,55.3 340.8,32.1 331.8,21.4 						
							"/>
						<polygon class="st14" points="329.3,18.3 329.3,18.3 326.2,14.7 147.2,28.2 147.2,69.6 340.7,55 340.7,31.8 331.6,21.1 						
							"/>
						<polygon class="st15" points="329.1,18 329.1,18 326.1,14.4 147,28 147,69.4 340.6,54.7 340.6,31.5 331.5,20.8 						"/>
						<polygon class="st16" points="329,17.7 329,17.7 326,14.1 146.9,27.7 146.9,69.1 340.4,54.4 340.4,31.2 331.4,20.5 						"/>
						<polygon class="st17" points="328.9,17.5 328.9,17.5 325.8,13.9 146.8,27.4 146.8,68.8 340.3,54.2 340.3,31 331.2,20.2 						
							"/>
						<polygon class="st18" points="328.7,17.2 328.7,17.2 325.7,13.6 146.6,27.1 146.6,68.5 340.1,53.9 340.1,30.7 331.1,20 						
							"/>
						<polygon class="st19" points="328.6,16.9 328.6,16.9 325.6,13.3 146.5,26.8 146.5,68.2 340,53.6 340,30.4 331,19.7 						"/>
						<polygon class="st20" points="328.5,16.6 328.5,16.6 325.4,13 146.4,26.6 146.4,67.9 339.9,53.3 339.9,30.1 330.8,19.4 						
							"/>
						<polygon class="st21" points="328.3,16.3 328.3,16.3 325.3,12.7 146.2,26.3 146.2,67.7 339.7,53 339.7,29.8 330.7,19.1 						
							"/>
						<polygon class="st22" points="328.2,16.1 328.2,16.1 325.2,12.5 146.1,26 146.1,67.4 339.6,52.8 339.6,29.6 330.6,18.8 						
							"/>
						<polygon class="st23" points="328.1,15.8 328.1,15.8 325,12.2 146,25.7 146,67.1 339.5,52.5 339.5,29.3 330.4,18.6 						"/>
						<polygon class="st24" points="327.9,15.5 327.9,15.5 324.9,11.9 145.8,25.4 145.8,66.8 339.3,52.2 339.3,29 330.3,18.3 						
							"/>
						<polygon class="st25" points="327.8,15.2 327.8,15.2 324.8,11.6 145.7,25.1 145.7,66.5 339.2,51.9 339.2,28.7 330.1,18 						
							"/>
						<polygon class="st26" points="327.7,14.9 327.7,14.9 324.6,11.3 145.6,24.9 145.6,66.3 339.1,51.6 339.1,28.4 330,17.7 						
							"/>
						<polygon class="st27" points="327.5,14.6 327.5,14.6 324.5,11 145.4,24.6 145.4,66 338.9,51.4 338.9,28.2 329.9,17.4 						
							"/>
						<polygon class="st28" points="327.4,14.4 327.4,14.4 324.4,10.8 145.3,24.3 145.3,65.7 338.8,51.1 338.8,27.9 329.7,17.2 
													"/>
						<polygon class="st29" points="327.3,14.1 327.3,14.1 324.2,10.5 145.2,24 145.2,65.4 338.7,50.8 338.7,27.6 329.6,16.9 						
							"/>
						<polygon class="st30" points="327.1,13.8 327.1,13.8 324.1,10.2 145,23.7 145,65.1 338.5,50.5 338.5,27.3 329.5,16.6 						
							"/>
						<polygon class="st31" points="327,13.5 327,13.5 324,9.9 144.9,23.5 144.9,64.9 338.4,50.2 338.4,27 329.3,16.3 						"/>
						<polygon class="st32" points="326.9,13.2 326.9,13.2 323.8,9.6 144.8,23.2 144.8,64.6 338.3,49.9 338.3,26.8 329.2,16 						
							"/>
						<polygon class="st33" points="326.7,13 326.7,13 323.7,9.4 144.6,22.9 144.6,64.3 338.1,49.7 338.1,26.5 329.1,15.7 						"/>
						<polygon class="st34" points="326.6,12.7 326.6,12.7 323.6,9.1 144.5,22.6 144.5,64 338,49.4 338,26.2 328.9,15.5 						"/>
						<polygon class="st35" points="326.5,12.4 326.5,12.4 323.4,8.8 144.4,22.3 144.4,63.7 337.9,49.1 337.9,25.9 328.8,15.2 
													"/>
						<polygon class="st36" points="326.3,12.1 326.3,12.1 323.3,8.5 144.2,22.1 144.2,63.5 337.7,48.8 337.7,25.6 328.7,14.9 
													"/>
						<polygon class="st37" points="326.2,11.8 326.2,11.8 323.1,8.2 144.1,21.8 144.1,63.2 337.6,48.5 337.6,25.4 328.5,14.6 
													"/>
						<polygon class="st38" points="326.1,11.6 326.1,11.6 323,8 144,21.5 144,62.9 337.5,48.3 337.5,25.1 328.4,14.3 						"/>
						<polygon class="st39" points="325.9,11.3 325.9,11.3 322.9,7.7 143.8,21.2 143.8,62.6 337.3,48 337.3,24.8 328.3,14.1 						
							"/>
						<polygon class="st40" points="325.8,11 325.8,11 322.7,7.4 143.7,20.9 143.7,62.3 337.2,47.7 337.2,24.5 328.1,13.8 						"/>
						<polygon class="st41" points="325.7,10.7 325.7,10.7 322.6,7.1 143.6,20.7 143.6,62.1 337.1,47.4 337.1,24.2 328,13.5 						
							"/>
						<polygon class="st42" points="325.5,10.4 325.5,10.4 322.5,6.8 143.4,20.4 143.4,61.8 336.9,47.1 336.9,23.9 327.9,13.2 
													"/>
						<polygon points="325.4,10.2 325.4,10.2 322.3,6.6 143.3,20.1 143.3,61.5 336.8,46.9 336.8,23.7 327.7,12.9 						"/>
					</g>
					<polygon id="XMLID_5_" class="st0" points="143.3,16.2 143.3,61.7 334.8,45.6 334.8,20.2 320.5,1.4 					"/>
					<polygon id="XMLID_4_" class="st43" points="143.3,19.1 143.3,61.7 330.8,43.8 330.8,14.5 322.4,2 					"/>
				</g>
			</g>
			<g>
				<defs>
					<rect id="SVGID_12_" y="0.3" width="320" height="74.8"/>
				</defs>
				<clipPath id="SVGID_13_">
					<use xlink:href="#SVGID_12_"  style="overflow:visible;"/>
				</clipPath>
				<g class="st44">
					<g>
						<g class="st45">
							<path class="st46" d="M26.5,37.6c-1.6,5.9,2.2,11.8,8.2,12.8l30.4,4.9c2.4,0.5,4.6-1.3,4.6-3.7l-0.3-23c0-3.8-3.1-6.9-6.9-7
								l-31.4-0.8L26.5,37.6z"/>
							<path class="st47" d="M31,20.7l-4.6,16.8c-1.6,5.8,2.2,11.8,8.2,12.8l30.5,5c2.3,0.5,4.6-1.3,4.6-3.7l-0.3-22.9
								c0-3.8-3.1-7-6.9-7.1L31,20.7z"/>
							<path class="st48" d="M31,20.7l-4.6,16.8c-1.6,5.8,2.2,11.9,8.2,12.8L65,55.2c2.3,0.5,4.6-1.3,4.6-3.7l-0.2-22.9
								c0-3.8-3.1-7-6.9-7.1L31,20.7z"/>
							<path class="st49" d="M31,20.7l-4.6,16.8c-1.6,5.8,2.2,11.9,8.1,12.8L65,55.2c2.3,0.5,4.6-1.3,4.6-3.6l-0.2-22.9
								c0-3.8-3.1-7-6.8-7.1L31,20.7z"/>
							<path class="st50" d="M31,20.7l-4.5,16.8c-1.6,5.8,2.2,11.9,8.1,12.8l30.5,4.9c2.3,0.5,4.6-1.2,4.6-3.6l-0.2-22.9
								c0-3.8-3-7-6.8-7.1L31,20.7z"/>
							<path class="st51" d="M31,20.6l-4.5,16.8c-1.6,5.7,2.2,11.9,8,12.8L65,55.1c2.3,0.5,4.7-1.2,4.6-3.6l-0.2-22.9
								c0-3.7-3-7-6.8-7.1L31,20.6z"/>
							<path class="st52" d="M30.9,20.6l-4.5,16.8c-1.6,5.7,2.1,11.9,8,12.9l30.5,4.9c2.3,0.5,4.7-1.2,4.6-3.6l-0.2-22.9
								c0-3.7-3-7-6.7-7.1L30.9,20.6z"/>
							<path class="st53" d="M30.9,20.6l-4.5,16.8c-1.5,5.7,2.1,11.9,7.9,12.9l30.5,4.9c2.3,0.5,4.7-1.2,4.6-3.6l-0.2-22.9
								c0-3.7-3-7-6.7-7.1L30.9,20.6z"/>
							<path class="st54" d="M30.9,20.6l-4.5,16.8c-1.5,5.7,2.1,11.9,7.9,12.9l30.5,4.9c2.3,0.5,4.7-1.2,4.7-3.5l-0.2-22.9
								c0-3.7-3-7.1-6.7-7.1L30.9,20.6z"/>
							<path class="st55" d="M30.9,20.5l-4.5,16.8c-1.5,5.6,2.1,12,7.9,12.9l30.6,4.9c2.3,0.5,4.7-1.2,4.7-3.5l-0.2-22.9
								c0-3.7-2.9-7.1-6.6-7.2L30.9,20.5z"/>
							<path class="st56" d="M30.9,20.5l-4.5,16.8c-1.5,5.6,2.1,12,7.8,12.9L64.8,55c2.3,0.5,4.7-1.2,4.7-3.5l-0.2-22.9
								c0-3.7-2.9-7.1-6.6-7.2L30.9,20.5z"/>
							<path class="st57" d="M30.9,20.5l-4.4,16.8c-1.5,5.6,2.1,12,7.8,12.9L64.8,55c2.2,0.5,4.7-1.2,4.7-3.5l-0.1-22.9
								c0-3.6-2.9-7.1-6.6-7.2L30.9,20.5z"/>
							<path class="st58" d="M30.8,20.5l-4.4,16.8c-1.5,5.6,2,12,7.7,12.9L64.7,55c2.2,0.5,4.7-1.2,4.7-3.5l-0.1-22.9
								c0-3.6-2.9-7.1-6.5-7.2L30.8,20.5z"/>
							<path class="st59" d="M30.8,20.4l-4.4,16.8c-1.5,5.5,2,12,7.7,12.9L64.7,55c2.2,0.5,4.8-1.2,4.7-3.4l-0.1-22.8
								c0-3.6-2.9-7.1-6.5-7.2L30.8,20.4z"/>
							<path class="st60" d="M30.8,20.4l-4.4,16.8c-1.5,5.5,2,12,7.6,13L64.6,55c2.2,0.5,4.8-1.2,4.7-3.4l-0.1-22.8
								c0-3.6-2.9-7.1-6.5-7.2L30.8,20.4z"/>
							<path class="st61" d="M30.8,20.4l-4.4,16.8c-1.5,5.5,2,12.1,7.6,13L64.7,55c2.2,0.5,4.8-1.1,4.8-3.4l-0.1-22.8
								c0-3.6-2.8-7.1-6.4-7.2L30.8,20.4z"/>
							<path class="st62" d="M30.8,20.4l-4.4,16.7c-1.5,5.5,2,12.1,7.5,13l30.7,4.8c2.2,0.5,4.8-1.1,4.8-3.4l-0.1-22.8
								c0-3.6-2.8-7.2-6.4-7.3L30.8,20.4z"/>
							<path class="st63" d="M30.8,20.3L26.4,37c-1.5,5.4,1.9,12.1,7.5,13l30.7,4.8c2.2,0.5,4.8-1.1,4.8-3.4l-0.1-22.8
								c0-3.5-2.8-7.2-6.3-7.3L30.8,20.3z"/>
							<path class="st64" d="M30.7,20.3L26.4,37c-1.5,5.4,1.9,12.1,7.5,13l30.7,4.8c2.2,0.5,4.8-1.1,4.8-3.3l-0.1-22.8
								c0-3.5-2.8-7.2-6.3-7.3L30.7,20.3z"/>
							<path class="st65" d="M30.7,20.3L26.4,37c-1.5,5.4,1.9,12.1,7.4,13l30.7,4.8c2.2,0.5,4.8-1.1,4.8-3.3l-0.1-22.8
								c0-3.5-2.8-7.2-6.3-7.3L30.7,20.3z"/>
							<path class="st66" d="M30.7,20.2L26.4,37c-1.5,5.4,1.9,12.1,7.4,13l30.8,4.8c2.2,0.5,4.9-1.1,4.8-3.3V28.7
								c0-3.5-2.7-7.2-6.2-7.3L30.7,20.2z"/>
							<path class="st67" d="M30.7,20.2l-4.3,16.7c-1.5,5.3,1.9,12.2,7.3,13l30.8,4.8c2.1,0.5,4.9-1.1,4.8-3.3V28.6
								c0-3.5-2.7-7.2-6.2-7.3L30.7,20.2z"/>
							<path class="st68" d="M30.7,20.2l-4.3,16.7c-1.4,5.3,1.9,12.2,7.3,13l30.8,4.8c2.1,0.5,4.9-1.1,4.8-3.3V28.6
								c0-3.5-2.7-7.2-6.2-7.3L30.7,20.2z"/>
							<path class="st69" d="M30.7,20.2l-4.3,16.7C25,42.2,28.2,49.1,33.6,50l30.8,4.8c2.1,0.5,4.9-1.1,4.9-3.2V28.8
								c0-3.4-2.7-7.3-6.1-7.3L30.7,20.2z"/>
							<path class="st70" d="M30.6,20.1l-4.3,16.7c-1.4,5.3,1.8,12.2,7.2,13.1l30.8,4.8c2.1,0.5,4.9-1.1,4.9-3.2V28.7
								c0-3.4-2.7-7.3-6.1-7.4L30.6,20.1z"/>
							<path class="st71" d="M30.6,20.1l-4.3,16.7C24.9,42,28.2,49,33.5,49.9l30.8,4.8c2.1,0.5,4.9-1.1,4.9-3.2V28.8
								c0-3.4-2.7-7.3-6.1-7.4L30.6,20.1z"/>
							<path class="st72" d="M30.6,20.1l-4.3,16.7C24.9,42,28.1,49,33.5,49.9l30.9,4.8c2.1,0.5,4.9-1,4.9-3.2V28.8
								c0-3.4-2.6-7.3-6-7.4L30.6,20.1z"/>
							<path class="st73" d="M30.6,20.1l-4.2,16.7c-1.5,5.1,1.7,12.2,7,13.1l30.9,4.8c2.1,0.5,4.9-1,4.9-3.2V28.8
								c0-3.4-2.6-7.3-6-7.4L30.6,20.1z"/>
							<path class="st74" d="M30.6,20l-4.2,16.7c-1.4,5.1,1.8,12.3,7,13.1l30.9,4.8c2.1,0.5,5-1,4.9-3.1V28.8c0-3.4-2.6-7.3-6-7.4
								L30.6,20z"/>
							<path class="st75" d="M30.6,20l-4.2,16.7c-1.4,5.1,1.7,12.3,7,13.1l30.9,4.8c2.1,0.5,5-1,4.9-3.1l0.1-22.7
								c0-3.3-2.6-7.3-5.9-7.4L30.6,20z"/>
							<path class="st76" d="M30.5,20l-4.2,16.7c-1.4,5.1,1.8,12.3,7,13.1l30.9,4.7c2,0.5,5-1,5-3.1l0.1-22.7c0-3.3-2.6-7.3-5.9-7.4
								L30.5,20z"/>
							<path class="st77" d="M30.5,20l-4.2,16.7C24.9,41.8,28,49,33.2,49.8l30.9,4.7c2,0.5,5-1,5-3.1l0.1-22.7
								c0-3.3-2.5-7.4-5.9-7.4L30.5,20z"/>
							<path class="st78" d="M30.5,19.9l-4.2,16.7c-1.4,5,1.7,12.3,6.9,13.2l31,4.7c2,0.5,5-1,5-3.1l0.1-22.7c0-3.3-2.5-7.4-5.8-7.5
								L30.5,19.9z"/>
							<path class="st79" d="M30.5,19.9l-4.2,16.7c-1.4,5,1.7,12.3,6.8,13.2l31,4.7c2,0.5,5-1,5-3l0.1-22.7c0-3.3-2.5-7.4-5.8-7.5
								L30.5,19.9z"/>
							<path class="st80" d="M30.5,19.9l-4.2,16.7c-1.4,5,1.7,12.4,6.8,13.2l31,4.7c2,0.5,5-1,5-3l0.1-22.7c0-3.3-2.5-7.4-5.8-7.5
								L30.5,19.9z"/>
							<path class="st81" d="M30.5,19.9l-4.1,16.6c-1.4,5,1.6,12.4,6.7,13.2l31,4.7c2,0.5,5-1,5-3l0.1-22.7c0-3.2-2.5-7.4-5.7-7.5
								L30.5,19.9z"/>
							<path class="st82" d="M30.4,19.8l-4.1,16.6C25,41.3,27.9,48.8,33,49.6l31,4.7c2,0.4,5.1-1,5-3l0.1-22.7
								c0-3.2-2.5-7.4-5.7-7.5L30.4,19.8z"/>
							<path class="st83" d="M30.4,19.8l-4.1,16.6c-1.3,4.9,1.6,12.4,6.6,13.2L64,54.3c2,0.4,5.1-0.9,5-3l0.1-22.6
								c0-3.2-2.4-7.4-5.6-7.5L30.4,19.8z"/>
							<path class="st84" d="M30.4,19.8l-4.1,16.6c-1.3,4.9,1.6,12.4,6.6,13.2L64,54.3c2,0.4,5.1-0.9,5.1-3l0.2-22.6
								c0-3.2-2.4-7.5-5.6-7.5L30.4,19.8z"/>
							<path class="st85" d="M30.4,19.8l-4.1,16.6c-1.3,4.9,1.6,12.4,6.6,13.2L64,54.3c2,0.4,5.1-0.9,5.1-2.9l0.2-22.6
								c0-3.2-2.4-7.5-5.6-7.5L30.4,19.8z"/>
							<path class="st86" d="M30.4,19.7l-4.1,16.6c-1.3,4.8,1.6,12.5,6.5,13.3l31.1,4.7c1.9,0.4,5.1-0.9,5.1-2.9l0.2-22.6
								c0-3.2-2.4-7.5-5.5-7.6L30.4,19.7z"/>
							<path class="st87" d="M30.3,19.7l-4.1,16.6c-1.3,4.8,1.5,12.5,6.5,13.3l31.1,4.7c1.9,0.4,5.1-0.9,5.1-2.9l0.2-22.6
								c0-3.1-2.4-7.5-5.5-7.6L30.3,19.7z"/>
							<path class="st88" d="M30.3,19.7l-4.1,16.6c-1.3,4.8,1.5,12.5,6.4,13.3l31.1,4.7c1.9,0.4,5.1-0.9,5.1-2.9l0.3-22.6
								c0-3.1-2.3-7.5-5.5-7.6L30.3,19.7z"/>
							<path class="st89" d="M30.3,19.7l-4,16.6c-1.3,4.8,1.5,12.5,6.4,13.3l31.2,4.7c1.9,0.4,5.2-0.9,5.1-2.9l0.1-22.6
								c0-3.1-2.3-7.5-5.4-7.6L30.3,19.7z"/>
							<path class="st90" d="M30.3,19.6l-4,16.6c-1.3,4.7,1.5,12.5,6.3,13.3l31.2,4.7c1.9,0.4,5.2-0.9,5.1-2.8l0.2-22.6
								c0-3.1-2.3-7.5-5.4-7.6L30.3,19.6z"/>
							<path class="st91" d="M30.3,19.6l-4,16.6c-1.3,4.7,1.5,12.5,6.3,13.3l31.2,4.7c1.9,0.4,5.2-0.9,5.1-2.8l0.2-22.6
								c0-3.1-2.3-7.5-5.4-7.6L30.3,19.6z"/>
							<path class="st92" d="M30.3,19.6l-4,16.6c-1.3,4.7,1.5,12.5,6.3,13.3l31.2,4.7c1.9,0.4,5.2-0.9,5.2-2.8l0.1-22.6
								c0-3.1-2.3-7.6-5.3-7.6L30.3,19.6z"/>
							<path class="st93" d="M30.2,19.6l-4,16.6c-1.3,4.7,1.4,12.6,6.2,13.3l31.2,4.7c1.9,0.4,5.2-0.9,5.2-2.8l0.3-22.6
								c0-3-2.3-7.6-5.3-7.7L30.2,19.6z"/>
							<path class="st94" d="M30.2,19.5l-4,16.6c-1.3,4.6,1.4,12.6,6.2,13.3l31.2,4.7c1.9,0.4,5.2-0.8,5.2-2.8l0.3-22.5
								c0-3-2.2-7.6-5.3-7.7L30.2,19.5z"/>
							<path class="st95" d="M30.2,19.5l-4,16.6c-1.3,4.6,1.4,12.6,6.1,13.4l31.3,4.6c1.9,0.4,5.2-0.8,5.2-2.7l0.3-22.6
								c0-3-2.2-7.6-5.2-7.7L30.2,19.5z"/>
							<path class="st96" d="M30.2,19.5l-4,16.6c-1.2,4.6,1.4,12.6,6.1,13.4l31.3,4.6c1.8,0.4,5.2-0.8,5.2-2.7l0.3-22.6
								c0-3-2.2-7.6-5.2-7.7L30.2,19.5z"/>
							<path class="st97" d="M30.2,19.5l-4,16.5c-1.2,4.6,1.4,12.6,6,13.4L63.6,54c1.8,0.4,5.3-0.8,5.2-2.7l0.3-22.5
								c0-3-2.2-7.6-5.2-7.7L30.2,19.5z"/>
							<path class="st98" d="M30.2,19.4l-4,16.6c-1.2,4.5,1.4,12.6,6,13.4L63.5,54c1.8,0.4,5.3-0.8,5.2-2.7l0.4-22.5
								c0-3-2.2-7.6-5.1-7.7L30.2,19.4z"/>
							<path class="st99" d="M30.1,19.4L26.2,36c-1.2,4.5,1.3,12.7,5.9,13.4L63.5,54c1.8,0.4,5.3-0.8,5.3-2.7l0.3-22.5
								c0-2.9-2.1-7.7-5.1-7.7L30.1,19.4z"/>
							<path class="st100" d="M30.1,19.4l-3.9,16.5c-1.2,4.5,1.3,12.7,5.9,13.4L63.5,54c1.8,0.4,5.3-0.8,5.3-2.6l0.3-22.6
								c0-2.9-2.1-7.7-5.1-7.7L30.1,19.4z"/>
							<path class="st101" d="M30.1,19.4l-3.9,16.5c-1.2,4.5,1.3,12.7,5.9,13.4l31.4,4.6c1.8,0.4,5.3-0.8,5.3-2.6l0.3-22.5
								c0-2.9-2.1-7.7-5-7.8L30.1,19.4z"/>
							<path class="st102" d="M30.1,19.3l-3.9,16.5C25,40.2,27.5,48.5,32,49.2l31.4,4.6c1.8,0.4,5.3-0.8,5.3-2.6l0.4-22.4
								c0-2.9-2.1-7.7-5-7.8L30.1,19.3z"/>
							<path class="st103" d="M30.1,19.3l-3.9,16.5C25,40.2,27.5,48.5,32,49.2l31.4,4.6c1.8,0.4,5.3-0.8,5.3-2.6l0.4-22.4
								c0-2.9-2.1-7.7-4.9-7.8L30.1,19.3z"/>
							<path class="st104" d="M30.1,19.3l-3.9,16.5c-1.2,4.4,1.3,12.7,5.7,13.5l31.4,4.6c1.8,0.4,5.3-0.8,5.3-2.6l0.5-22.5
								c0-2.9-2.1-7.7-4.9-7.8L30.1,19.3z"/>
							<path class="st105" d="M30,19.3l-3.8,16.5c-1.2,4.4,1.2,12.8,5.7,13.5l31.4,4.6c1.8,0.4,5.4-0.7,5.3-2.5l0.5-22.6
								c0-2.8-2-7.7-4.9-7.8L30,19.3z"/>
							<path class="st106" d="M30,19.2l-3.8,16.5C25,40,27.4,48.5,31.8,49.2l31.5,4.6c1.7,0.4,5.4-0.7,5.3-2.5L69,28.8
								c0-2.8-2-7.7-4.8-7.8L30,19.2z"/>
							<path class="st107" d="M30,19.2l-3.8,16.5C25,40,27.4,48.5,31.8,49.2l31.5,4.6c1.7,0.4,5.4-0.7,5.4-2.5l0.4-22.4
								c0-2.8-2-7.8-4.8-7.8L30,19.2z"/>
							<path class="st108" d="M30,19.2l-3.8,16.5C25,40,27.4,48.5,31.8,49.2l31.5,4.6c1.7,0.4,5.4-0.7,5.4-2.5l0.4-22.4
								c0-2.8-2-7.8-4.8-7.8L30,19.2z"/>
							<path class="st109" d="M30,19.2l-3.8,16.5C25,40,27.4,48.5,31.7,49.2l31.5,4.6c1.7,0.4,5.4-0.7,5.4-2.5L69,28.9
								c0-2.8-2-7.8-4.7-7.9L30,19.2z"/>
							<path class="st110" d="M30,19.1l-3.8,16.5c-1.2,4.2,1.1,12.8,5.5,13.5l31.5,4.6c1.7,0.4,5.4-0.7,5.4-2.4L69,28.9
								c0-2.8-1.9-7.8-4.7-7.9L30,19.1z"/>
							<path class="st111" d="M29.9,19.1l-3.8,16.5c-1.1,4.2,1.1,12.8,5.4,13.5L63,53.7c1.7,0.4,5.4-0.7,5.4-2.4l0.5-22.4
								c0-2.7-1.9-7.8-4.7-7.9L29.9,19.1z"/>
							<path class="st112" d="M29.9,19.1l-3.8,16.5c-1.1,4.2,1.1,12.9,5.4,13.6l31.6,4.5c1.7,0.4,5.5-0.7,5.4-2.4L69,28.9
								c0-2.7-1.9-7.8-4.6-7.9L29.9,19.1z"/>
							<path class="st113" d="M29.9,19l-3.7,16.5c-1.1,4.1,1.1,12.9,5.3,13.6l31.6,4.5c1.7,0.4,5.5-0.7,5.4-2.4L69,28.8
								c0-2.7-1.9-7.8-4.6-7.9L29.9,19z"/>
							<path class="st114" d="M29.9,19l-3.7,16.5c-1.1,4.1,1.1,12.9,5.3,13.6l31.6,4.5c1.7,0.4,5.5-0.7,5.5-2.4l0.5-22.4
								c0-2.7-1.9-7.9-4.6-7.9L29.9,19z"/>
							<path class="st115" d="M29.9,19l-3.7,16.5c-1.1,4.1,1.1,12.9,5.3,13.6l31.6,4.5c1.6,0.4,5.5-0.7,5.5-2.3l0.5-22.4
								c0-2.7-1.8-7.9-4.5-7.9L29.9,19z"/>
							<path class="st116" d="M29.9,19l-3.7,16.5c-1.1,4.1,1,12.9,5.2,13.6L63,53.6c1.6,0.4,5.5-0.6,5.5-2.3L69,28.9
								c0-2.7-1.8-7.9-4.5-7.9L29.9,19z"/>
							<path class="st117" d="M29.8,18.9l-3.7,16.5c-1.1,4,1,12.9,5.2,13.6L63,53.5c1.6,0.4,5.5-0.6,5.5-2.3L69,28.8
								c0-2.6-1.8-7.9-4.5-8L29.8,18.9z"/>
							<path class="st118" d="M29.8,18.9l-3.7,16.5c-1.1,4,1,13,5.1,13.6l31.7,4.5c1.6,0.4,5.5-0.6,5.5-2.3l0.5-22.4
								c0-2.6-1.8-7.9-4.4-8L29.8,18.9z"/>
							<path class="st119" d="M29.8,18.9l-3.7,16.4c-1.1,4,1,13,5.1,13.6l31.7,4.5c1.6,0.4,5.5-0.6,5.5-2.3l0.5-22.3
								c0-2.6-1.8-7.9-4.4-8L29.8,18.9z"/>
							<path class="st120" d="M29.8,18.9l-3.7,16.4c-1.1,4,1,13,5,13.6l31.7,4.5c1.6,0.4,5.6-0.6,5.5-2.2l0.6-22.3
								c0-2.6-1.8-7.9-4.4-8L29.8,18.9z"/>
							<path class="st121" d="M29.8,18.8l-3.7,16.5c-1.1,3.9,1,13,5,13.7l31.7,4.5c1.6,0.4,5.6-0.6,5.5-2.2L68.9,29
								c0-2.6-1.7-7.9-4.3-8L29.8,18.8z"/>
							<path class="st122" d="M29.8,18.8l-3.7,16.5c-1.1,3.9,0.9,13,5,13.7l31.7,4.5c1.6,0.4,5.6-0.6,5.6-2.2L69,29
								c0-2.6-1.7-8-4.3-8L29.8,18.8z"/>
							<path class="st123" d="M29.7,18.8l-3.6,16.4C25,39.1,27,48.2,31,48.9l31.8,4.5c1.6,0.4,5.6-0.6,5.6-2.2L69,28.9
								c0-2.5-1.7-8-4.2-8L29.7,18.8z"/>
							<path class="st124" d="M29.7,18.8l-3.6,16.4C25,39.1,27,48.3,31,48.9l31.8,4.5c1.6,0.4,5.6-0.6,5.6-2.2L69,28.9
								c0-2.5-1.7-8-4.2-8.1L29.7,18.8z"/>
							<path class="st125" d="M29.7,18.7l-3.6,16.5c-1,3.8,0.9,13.1,4.8,13.7l31.8,4.5c1.5,0.3,5.6-0.6,5.6-2.1L68.9,29
								c0-2.5-1.7-8-4.2-8.1L29.7,18.7z"/>
							<path class="st126" d="M29.7,18.7l-3.6,16.4c-1,3.8,0.9,13.1,4.8,13.7l31.8,4.5c1.5,0.3,5.6-0.6,5.6-2.1l0.6-22.3
								c0-2.5-1.6-8-4.1-8.1L29.7,18.7z"/>
							<path class="st127" d="M29.7,18.7l-3.6,16.4c-1,3.8,0.9,13.1,4.7,13.7l31.8,4.5c1.5,0.3,5.6-0.5,5.6-2.1l0.6-22.3
								c0-2.5-1.6-8-4.1-8.1L29.7,18.7z"/>
							<path class="st128" d="M29.7,18.7l-3.6,16.4c-1,3.8,0.8,13.1,4.7,13.7l31.8,4.5c1.5,0.3,5.7-0.5,5.6-2.1l0.6-22.3
								c0-2.5-1.6-8-4.1-8.1L29.7,18.7z"/>
							<path class="st129" d="M29.6,18.6L26.1,35c-1,3.7,0.8,13.1,4.7,13.7l31.9,4.5c1.5,0.3,5.7-0.5,5.6-2.1l0.6-22.3
								c0-2.4-1.6-8.1-4-8.1L29.6,18.6z"/>
							<path class="st130" d="M29.6,18.6L26.1,35c-1,3.7,0.8,13.1,4.6,13.8l31.9,4.5c1.5,0.3,5.7-0.5,5.7-2L69,29
								c0-2.4-1.6-8.1-4-8.1L29.6,18.6z"/>
							<path class="st131" d="M29.6,18.6L26.1,35c-1,3.7,0.8,13.2,4.6,13.8l31.9,4.5c1.5,0.3,5.7-0.5,5.7-2L69,29.1
								c0-2.4-1.6-8.1-4-8.1L29.6,18.6z"/>
							<path class="st132" d="M29.6,18.6l-3.5,16.3c-1,3.7,0.8,13.2,4.5,13.8l31.9,4.5c1.5,0.3,5.7-0.5,5.7-2L68.9,29
								c0-2.4-1.5-8.1-3.9-8.2L29.6,18.6z"/>
							<path class="st133" d="M29.6,18.5l-3.5,16.4c-1,3.6,0.8,13.2,4.5,13.8l31.9,4.4c1.5,0.3,5.7-0.5,5.7-2l0.7-22.2
								c0-2.4-1.5-8.1-3.9-8.2L29.6,18.5z"/>
							<path class="st134" d="M29.5,18.5l-3.4,16.4c-1,3.6,0.7,13.2,4.4,13.8l32,4.4c1.5,0.3,5.7-0.5,5.7-2l0.7-22.2
								c0-2.4-1.5-8.1-3.9-8.2L29.5,18.5z"/>
							<path class="st135" d="M29.5,18.5l-3.4,16.4c-1,3.6,0.7,13.2,4.4,13.8l32,4.4c1.4,0.3,5.8-0.5,5.7-1.9L68.9,29
								c0-2.3-1.5-8.1-3.8-8.2L29.5,18.5z"/>
							<path class="st136" d="M29.5,18.5l-3.4,16.3c-1,3.6,0.7,13.2,4.3,13.8l32,4.4c1.4,0.3,5.8-0.5,5.7-1.9l0.7-22.2
								c0-2.3-1.5-8.1-3.8-8.2L29.5,18.5z"/>
							<path class="st137" d="M29.5,18.4l-3.4,16.4c-1,3.5,0.7,13.3,4.3,13.8l32,4.4c1.4,0.3,5.8-0.4,5.8-1.9L68.9,29
								c0-2.3-1.4-8.2-3.8-8.2L29.5,18.4z"/>
							<path class="st138" d="M29.5,18.4l-3.4,16.4c-1,3.5,0.7,13.3,4.3,13.9l32,4.4c1.4,0.3,5.8-0.4,5.8-1.9L68.9,29
								c0-2.3-1.4-8.2-3.7-8.2L29.5,18.4z"/>
							<path class="st139" d="M29.5,18.4l-3.4,16.3c-1,3.5,0.6,13.3,4.2,13.9l32,4.4c1.4,0.3,5.8-0.4,5.8-1.9L68.9,29
								c0-2.3-1.4-8.2-3.7-8.2L29.5,18.4z"/>
							<path class="st140" d="M29.4,18.4l-3.3,16.3c-1,3.5,0.6,13.3,4.1,13.9L62.3,53c1.4,0.3,5.8-0.4,5.8-1.8L68.9,29
								c0-2.3-1.4-8.2-3.7-8.3L29.4,18.4z"/>
							<path class="st141" d="M29.4,18.3L26,34.6c-0.9,3.5,0.7,13.4,4.2,14L62.3,53c1.4,0.3,5.8-0.4,5.8-1.8L68.8,29
								c0-2.2-1.4-8.2-3.6-8.3L29.4,18.3z"/>
							<path class="st142" d="M29.4,18.3L26,34.6C25.1,38,26.6,48,30.1,48.5l32.1,4.4c1.4,0.3,5.8-0.4,5.8-1.8L68.8,29
								c0-2.2-1.4-8.2-3.6-8.3L29.4,18.3z"/>
							<path class="st143" d="M29.4,18.3L26,34.6C25.1,38,26.6,48,30.1,48.5l32.1,4.4c1.4,0.3,5.9-0.4,5.8-1.8L68.8,29
								c0-2.2-1.3-8.2-3.5-8.3L29.4,18.3z"/>
							<path class="st144" d="M29.4,18.3l-3.3,16.3c-0.9,3.4,0.6,13.4,4,13.9l32.1,4.4c1.3,0.3,5.9-0.4,5.8-1.8L68.8,29
								c0-2.2-1.3-8.3-3.5-8.3L29.4,18.3z"/>
							<path class="st145" d="M29.4,18.2l-3.3,16.3c-0.9,3.3,0.6,13.4,4,13.9l32,4.5c1.3,0.3,5.9-0.4,5.9-1.7L68.8,29
								c0-2.2-1.3-8.3-3.5-8.3L29.4,18.2z"/>
							<path class="st146" d="M29.3,18.2L26,34.5c-0.9,3.3,0.5,13.4,3.9,13.9l32.2,4.4c1.3,0.3,5.9-0.4,5.9-1.7L68.8,29
								c0-2.2-1.3-8.3-3.4-8.3L29.3,18.2z"/>
							<path class="st147" d="M29.3,18.2L26,34.5c-0.9,3.3,0.5,13.4,3.9,14l32.2,4.3c1.3,0.3,5.9-0.4,5.9-1.7L68.8,29
								c0-2.1-1.3-8.3-3.4-8.3L29.3,18.2z"/>
							<path class="st148" d="M29.3,18.2L26,34.5c-0.9,3.3,0.5,13.4,3.8,14L62,52.9c1.3,0.3,5.9-0.3,5.9-1.7L68.8,29
								c0-2.1-1.2-8.3-3.4-8.4L29.3,18.2z"/>
							<path class="st149" d="M29.3,18.1L26,34.4c-0.9,3.2,0.5,13.4,3.8,14L62,52.8c1.3,0.3,5.9-0.3,5.9-1.7L68.8,29
								c0-2.1-1.2-8.3-3.3-8.4L29.3,18.1z"/>
							<path class="st150" d="M29.3,18.1L26,34.4c-0.9,3.2,0.5,13.5,3.7,14l32.2,4.4c1.3,0.3,5.9-0.3,5.9-1.7l1-22.1
								c0-2.1-1.2-8.3-3.3-8.4L29.3,18.1z"/>
							<path class="st151" d="M29.3,18.1L26,34.4c-0.9,3.2,0.5,13.5,3.7,14L62,52.8c1.3,0.3,6-0.3,5.9-1.6L68.8,29
								c0-2.1-1.2-8.3-3.3-8.4L29.3,18.1z"/>
							<path class="st152" d="M29.2,18.1L26,34.4c-0.9,3.2,0.4,13.5,3.7,14L62,52.7c1.3,0.3,6-0.3,6-1.6L68.8,29
								c0-2.1-1.2-8.4-3.2-8.4L29.2,18.1z"/>
							<path class="st153" d="M29.2,18L26,34.3c-0.9,3.1,0.4,13.5,3.6,14l32.3,4.3c1.3,0.3,6-0.3,6-1.6l0.9-22c0-2-1.2-8.4-3.2-8.4
								L29.2,18z"/>
							<path class="st154" d="M29.2,18L26,34.3c-0.8,3.1,0.4,13.5,3.6,14l32.3,4.3c1.2,0.3,6-0.3,6-1.6l0.9-22c0-2-1.1-8.4-3.2-8.4
								L29.2,18z"/>
							<path class="st155" d="M29.2,18L26,34.3c-0.8,3.1,0.4,13.5,3.5,14l32.3,4.3c1.2,0.3,6-0.3,6-1.6l0.9-22c0-2-1.1-8.4-3.1-8.5
								L29.2,18z"/>
							<path class="st156" d="M29.2,17.9L26,34.2c-0.8,3,0.4,13.6,3.5,14.1l32.3,4.3c1.2,0.3,6-0.3,6-1.5l0.9-22
								c0-2-1.1-8.4-3.1-8.5L29.2,17.9z"/>
							<path class="st157" d="M29.2,17.9L26,34.1c-0.8,3,0.3,13.6,3.4,14.1l32.4,4.3c1.2,0.3,6-0.3,6-1.5l1-22c0-2-1.1-8.4-3.1-8.5
								L29.2,17.9z"/>
							<path class="st158" d="M29.1,17.9l-3.2,16.2c-0.8,3,0.3,13.6,3.4,14.1l32.4,4.3c1.2,0.3,6.1-0.3,6-1.5l1-22
								c0-2-1.1-8.4-3-8.5L29.1,17.9z"/>
							<path class="st159" d="M29.1,17.9l-3.2,16.2c-0.8,3,0.3,13.6,3.4,14.1l32.4,4.3c1.2,0.3,6.1-0.2,6-1.5l1-22
								c0-1.9-1-8.5-3-8.5L29.1,17.9z"/>
							<path class="st160" d="M29.1,17.8L26,34c-0.8,2.9,0.3,13.6,3.3,14.1l32.4,4.3c1.2,0.3,6.1-0.2,6.1-1.5l1-22
								c0-1.9-1-8.5-3-8.5L29.1,17.8z"/>
							<path class="st161" d="M29.1,17.8L26,34c-0.8,2.9,0.3,13.6,3.3,14.1l32.4,4.3c1.2,0.3,6.1-0.2,6.1-1.4l1-22
								c0-1.9-1-8.5-2.9-8.5L29.1,17.8z"/>
							<path class="st162" d="M29.1,17.8L26,34c-0.8,2.9,0.3,13.7,3.2,14.1l32.4,4.3c1.2,0.3,6.1-0.2,6.1-1.4l1-22
								c0-1.9-1-8.5-2.9-8.5L29.1,17.8z"/>
							<path class="st163" d="M29.1,17.8L26,34c-0.8,2.9,0.2,13.7,3.2,14.1l32.5,4.3c1.2,0.3,6.1-0.2,6.1-1.4l1-22
								c0-1.9-1-8.5-2.8-8.6L29.1,17.8z"/>
							<path class="st164" d="M29,17.7L25.9,34c-0.8,2.8,0.2,13.7,3.1,14.2l32.5,4.3c1.1,0.3,6.1-0.2,6.1-1.4l1-22
								c0-1.9-1-8.5-2.8-8.6L29,17.7z"/>
							<path class="st165" d="M29,17.7l-3.1,16.2c-0.8,2.8,0.2,13.7,3.1,14.2l32.5,4.3c1.1,0.3,6.1-0.2,6.1-1.4l1-22
								c0-1.8-0.9-8.5-2.8-8.6L29,17.7z"/>
							<path class="st166" d="M29,17.7l-3.1,16.2c-0.8,2.8,0.2,13.7,3.1,14.2l32.5,4.3c1.1,0.3,6.2-0.2,6.1-1.3l1.1-22
								c0-1.8-0.9-8.5-2.7-8.6L29,17.7z"/>
							<path class="st167" d="M29,17.7l-3.1,16.2c-0.8,2.8,0.2,13.7,3,14.2l32.5,4.3c1.1,0.3,6.2-0.2,6.2-1.3l1.1-22
								c0-1.8-0.9-8.6-2.7-8.6L29,17.7z"/>
							<path class="st168" d="M29,17.6l-3,16.2c-0.7,2.7,0.2,13.7,3,14.2l32.6,4.3c1.1,0.2,6.2-0.2,6.2-1.3l1.1-21.9
								c0-1.8-0.9-8.6-2.7-8.6L29,17.6z"/>
							<path class="st169" d="M29,17.6l-3,16.2c-0.8,2.7,0.1,13.8,2.8,14.2l32.6,4.3c1.1,0.2,6.2-0.2,6.2-1.3l1.1-21.9
								c0-1.8-0.9-8.6-2.6-8.6L29,17.6z"/>
							<path class="st170" d="M28.9,17.6l-3,16.2c-0.7,2.7,0.2,13.7,2.9,14.2l32.6,4.3c1.1,0.2,6.2-0.1,6.2-1.3l1.1-21.9
								c0-1.8-0.8-8.6-2.6-8.6L28.9,17.6z"/>
							<path class="st171" d="M28.9,17.6l-3,16.2C25.2,36.5,26,47.6,28.7,48l32.6,4.2c1.1,0.2,6.2-0.1,6.2-1.2l1.1-21.9
								c0-1.7-0.8-8.6-2.6-8.7L28.9,17.6z"/>
							<path class="st172" d="M28.9,17.5l-3,16.2c-0.7,2.6,0.1,13.8,2.8,14.2l32.6,4.2c1.1,0.2,6.2-0.1,6.2-1.2L68.6,29
								c0-1.7-0.8-8.6-2.5-8.7L28.9,17.5z"/>
							<path class="st173" d="M28.9,17.5l-3,16.2C25.2,36.3,26,47.5,28.7,48l32.6,4.2c1.1,0.2,6.2-0.1,6.2-1.2l1.1-21.9
								c0-1.7-0.8-8.6-2.5-8.7L28.9,17.5z"/>
							<path class="st174" d="M28.9,17.5l-3,16.2C25.2,36.3,26,47.5,28.6,48l32.7,4.2c1,0.2,6.3-0.1,6.2-1.2l1.1-21.9
								c0-1.7-0.8-8.7-2.5-8.7L28.9,17.5z"/>
							<path class="st175" d="M28.9,17.5l-3,16.2c-0.7,2.6,0,13.9,2.7,14.3l32.7,4.2c1,0.2,6.3-0.1,6.3-1.2l1.2-21.9
								c0-1.7-0.8-8.7-2.4-8.7L28.9,17.5z"/>
							<path class="st176" d="M28.8,17.4l-2.9,16.1c-0.7,2.5,0,13.9,2.6,14.3L61.2,52c1,0.2,6.3-0.1,6.3-1.1L68.7,29
								c0-1.7-0.7-8.7-2.4-8.7L28.8,17.4z"/>
							<path class="st177" d="M28.8,17.4l-2.9,16.1c-0.7,2.5,0,13.9,2.6,14.3L61.2,52c1,0.2,6.3-0.1,6.3-1.1L68.7,29
								c0-1.6-0.7-8.7-2.4-8.7L28.8,17.4z"/>
							<path class="st178" d="M28.8,17.4l-2.9,16.1c-0.7,2.5,0,13.9,2.5,14.3L61.1,52c1,0.2,6.3-0.1,6.3-1.1L68.6,29
								c0-1.6-0.7-8.7-2.3-8.7L28.8,17.4z"/>
							<path class="st179" d="M28.8,17.4l-2.9,16.1c-0.7,2.5,0,13.9,2.5,14.3L61.1,52c1,0.2,6.3-0.1,6.3-1.1L68.6,29
								c0-1.6-0.7-8.7-2.3-8.8L28.8,17.4z"/>
							<path class="st180" d="M28.8,17.3l-2.9,16.1c-0.7,2.4,0,13.9,2.4,14.3L61.1,52c1,0.2,6.3-0.1,6.3-1.1l1.2-21.8
								c0-1.6-0.7-8.7-2.3-8.8L28.8,17.3z"/>
							<path class="st181" d="M28.7,17.3l-2.9,16.1c-0.7,2.4-0.1,14,2.4,14.3L61.1,52c1,0.2,6.3,0,6.3-1l1.2-21.8
								c0-1.6-0.6-8.7-2.2-8.8L28.7,17.3z"/>
							<path class="st182" d="M28.7,17.3l-2.9,16.1c-0.6,2.4-0.1,14,2.4,14.4L61,52c1,0.2,6.4,0,6.3-1l1.2-21.8
								c0-1.6-0.6-8.8-2.2-8.8L28.7,17.3z"/>
							<path class="st183" d="M28.7,17.3l-2.8,16.1c-0.6,2.4-0.1,14,2.3,14.4L61,52c0.9,0.2,6.4,0,6.4-1l1.2-21.8
								c0-1.5-0.6-8.8-2.1-8.8L28.7,17.3z"/>
							<path class="st184" d="M28.7,17.2l-2.8,16.1c-0.6,2.3-0.1,14,2.3,14.4L61,51.9c0.9,0.2,6.4,0,6.4-1l1.3-21.8
								c0-1.5-0.6-8.8-2.1-8.8L28.7,17.2z"/>
							<path class="st185" d="M28.7,17.2l-2.8,16.1c-0.6,2.3-0.1,14,2.2,14.4L61,51.9c0.9,0.2,6.4,0,6.4-1l1.3-21.8
								c0-1.5-0.6-8.8-2.1-8.8L28.7,17.2z"/>
							<path class="st186" d="M28.7,17.2l-2.8,16.1c-0.6,2.3-0.1,14,2.2,14.4L61,51.9c0.9,0.2,6.4,0,6.4-0.9l1.3-21.8
								c0-1.5-0.6-8.8-2-8.9L28.7,17.2z"/>
							<path class="st187" d="M28.6,17.2l-2.8,16.1c-0.6,2.3-0.2,14,2.1,14.4l32.9,4.2c0.9,0.2,6.4,0,6.4-0.9l1.3-21.8
								c0-1.5-0.5-8.8-2-8.9L28.6,17.2z"/>
							<path class="st188" d="M28.6,17.1l-2.8,16.1c-0.6,2.2-0.2,14.1,2.1,14.4l32.9,4.2c0.9,0.2,6.4,0,6.4-0.9l1.3-21.8
								c0-1.5-0.5-8.8-2-8.9L28.6,17.1z"/>
							<path class="st189" d="M28.6,17.1l-2.8,16.1c-0.6,2.2-0.2,14.1,2.1,14.4l32.9,4.2c0.9,0.2,6.5,0,6.4-0.9l1.3-21.8
								c0-1.4-0.5-8.9-1.9-8.9L28.6,17.1z"/>
							<path class="st190" d="M28.6,17.1l-2.8,16.1c-0.6,2.2-0.2,14.1,2,14.5l32.9,4.1c0.9,0.2,6.5,0,6.5-0.9l1.3-21.8
								c0-1.4-0.5-8.9-1.9-8.9L28.6,17.1z"/>
							<path class="st191" d="M28.6,17.1l-2.7,16.1c-0.6,2.2-0.2,14.1,2,14.5l33,4.1c0.9,0.2,6.5,0,6.5-0.8l1.3-21.8
								c0-1.4-0.5-8.9-1.9-8.9L28.6,17.1z"/>
							<path class="st192" d="M28.6,17l-2.7,16.1c-0.6,2.1-0.2,14.1,1.9,14.5l33,4.1c0.9,0.2,6.5,0.1,6.5-0.8l1.3-21.7
								c0-1.4-0.4-8.9-1.8-8.9L28.6,17z"/>
							<path class="st193" d="M28.5,17l-2.7,16.1c-0.6,2.1-0.3,14.1,1.9,14.5l33,4.1c0.8,0.2,6.5,0.1,6.5-0.8l1.4-21.7
								c0-1.4-0.4-8.9-1.8-8.9L28.5,17z"/>
							<path class="st194" d="M28.5,17l-2.7,16c-0.6,2.1-0.3,14.2,1.8,14.5l33,4.1c0.8,0.2,6.5,0.1,6.5-0.8l1.4-21.7
								c0-1.4-0.4-8.9-1.8-9L28.5,17z"/>
							<path class="st195" d="M28.5,17l-2.7,16c-0.6,2-0.3,14.2,1.8,14.5l33,4.1c0.8,0.2,6.5,0.1,6.5-0.8l1.4-21.7
								c0-1.3-0.4-8.9-1.7-9L28.5,17z"/>
							<path class="st196" d="M28.5,16.9l-2.7,16c-0.6,2-0.3,14.2,1.8,14.5l33,4.1c0.8,0.2,6.5,0.1,6.5-0.7l1.4-21.7
								c0-1.3-0.4-8.9-1.7-9L28.5,16.9z"/>
							<path class="st197" d="M28.5,16.9l-2.7,16c-0.5,2-0.3,14.2,1.7,14.5l33.1,4.1c0.8,0.2,6.6,0.1,6.5-0.7l1.4-21.7
								c0-1.3-0.4-9-1.7-9L28.5,16.9z"/>
							<path class="st198" d="M28.5,16.9l-2.7,16c-0.5,2-0.3,14.2,1.7,14.5l33.1,4.1c0.8,0.2,6.6,0.1,6.6-0.7l1.4-21.7
								c0-1.3-0.3-9-1.6-9L28.5,16.9z"/>
							<path class="st199" d="M28.4,16.9l-2.6,16c-0.5,1.9-0.4,14.2,1.6,14.6l33.1,4.1c0.8,0.2,6.6,0.1,6.6-0.7l1.4-21.7
								c0-1.3-0.3-9-1.6-9L28.4,16.9z"/>
							<path class="st200" d="M28.4,16.8l-2.6,16c-0.5,1.9-0.4,14.2,1.6,14.6l33.1,4.1c0.8,0.2,6.6,0.1,6.6-0.7l1.4-21.7
								c0-1.3-0.3-9-1.6-9L28.4,16.8z"/>
							<path class="st201" d="M28.4,16.8l-2.6,16c-0.5,1.9-0.4,14.3,1.5,14.6l33.1,4.1c0.8,0.2,6.6,0.1,6.6-0.6l1.4-21.7
								c0-1.2-0.3-9-1.5-9L28.4,16.8z"/>
							<path class="st202" d="M28.4,16.8l-2.6,16c-0.5,1.9-0.4,14.3,1.5,14.6l33.2,4.1c0.8,0.2,6.6,0.1,6.6-0.6l1.5-21.7
								c0-1.2-0.3-9-1.5-9.1L28.4,16.8z"/>
							<path class="st203" d="M28.4,16.7l-2.6,16c-0.5,1.8-0.4,14.3,1.5,14.6l33.2,4.1c0.7,0.2,6.6,0.2,6.6-0.6l1.5-21.7
								c0-1.2-0.2-9-1.4-9.1L28.4,16.7z"/>
							<path class="st204" d="M28.4,16.7l-2.6,16c-0.5,1.8-0.5,14.3,1.4,14.6l33.2,4.1c0.7,0.2,6.6,0.2,6.6-0.6l1.5-21.6
								c0-1.2-0.2-9.1-1.4-9.1L28.4,16.7z"/>
							<path class="st205" d="M28.3,16.7l-2.6,16c-0.4,1.8-0.4,14.3,1.4,14.6l33.2,4.1c0.7,0.2,6.7,0.2,6.7-0.6l1.5-21.6
								c0-1.2-0.2-9.1-1.4-9.1L28.3,16.7z"/>
							<path class="st206" d="M28.3,16.7l-2.6,16c-0.4,1.7-0.4,14.3,1.4,14.6l33.2,4.1c0.7,0.2,6.7,0.2,6.7-0.5l1.5-21.6
								c0-1.2-0.2-9.1-1.3-9.1L28.3,16.7z"/>
							<path class="st207" d="M28.3,16.6l-2.5,16c-0.5,1.7-0.5,14.4,1.3,14.6l33.2,4.1c0.7,0.2,6.7,0.2,6.7-0.5l1.5-21.6
								c0-1.1-0.2-9.1-1.3-9.1L28.3,16.6z"/>
							<path class="st208" d="M28.3,16.6l-2.5,16C25.3,34.3,25.3,47,27,47.3l33.3,4.1c0.7,0.2,6.7,0.2,6.7-0.5l1.5-21.6
								c0-1.1-0.1-9.1-1.3-9.1L28.3,16.6z"/>
							<path class="st209" d="M28.3,16.6l-2.5,16C25.3,34.3,25.3,47,27,47.3l33.3,4c0.7,0.2,6.7,0.2,6.7-0.5l1.5-21.6
								c0-1.1-0.1-9.1-1.2-9.1L28.3,16.6z"/>
							<path class="st210" d="M28.3,16.6l-2.5,16C25.3,34.3,25.2,47,27,47.3l33.3,4c0.7,0.2,6.7,0.2,6.7-0.5l1.5-21.6
								c0-1.1-0.1-9.1-1.2-9.2L28.3,16.6z"/>
							<path class="st211" d="M28.2,16.5l-2.5,16c-0.4,1.6-0.6,14.4,1.1,14.7l33.3,4c0.7,0.1,6.7,0.2,6.7-0.4l1.6-21.6
								c0-1.1-0.1-9.1-1.2-9.2L28.2,16.5z"/>
							<path class="st212" d="M28.2,16.5l-2.5,16c-0.4,1.6-0.6,14.4,1.1,14.7l33.3,4c0.6,0.1,6.8,0.2,6.7-0.4l1.6-21.6
								c0-1.1-0.1-9.2-1.1-9.2L28.2,16.5z"/>
							<path class="st213" d="M28.2,16.5l-2.5,16c-0.4,1.6-0.6,14.5,1,14.7l33.3,4c0.6,0.1,6.8,0.2,6.8-0.4l1.6-21.6
								c0-1-0.1-9.2-1.1-9.2L28.2,16.5z"/>
							<path class="st214" d="M28.2,16.5l-2.5,15.9c-0.4,1.6-0.6,14.5,1,14.7l33.4,4c0.6,0.1,6.8,0.3,6.8-0.4l1.6-21.6
								c0-1,0-9.2-1.1-9.2L28.2,16.5z"/>
							<path class="st215" d="M28.2,16.4l-2.4,15.9c-0.4,1.5-0.6,14.5,0.9,14.7l33.4,4c0.6,0.1,6.8,0.3,6.8-0.4L68.5,29
								c0-1,0-9.2-1-9.2L28.2,16.4z"/>
							<path class="st216" d="M28.2,16.4l-2.4,15.9c-0.4,1.5-0.7,14.5,0.9,14.8l33.4,4c0.6,0.1,6.8,0.3,6.8-0.3l1.6-21.5
								c0-1,0-9.2-1-9.2L28.2,16.4z"/>
							<path class="st217" d="M28.1,16.4l-2.4,15.9c-0.4,1.5-0.7,14.5,0.8,14.8l33.4,4c0.6,0.1,6.8,0.3,6.8-0.3l1.6-21.5
								c0-1,0-9.2-1-9.3L28.1,16.4z"/>
							<path class="st218" d="M28.1,16.4l-2.4,15.9c-0.4,1.5-0.7,14.5,0.8,14.8l33.4,4c0.6,0.1,6.8,0.3,6.8-0.3l1.6-21.5
								c0-1,0-9.2-0.9-9.3L28.1,16.4z"/>
							<path class="st219" d="M28.1,16.3l-2.4,15.9C25.3,33.6,25,46.7,26.5,47L60,51c0.6,0.1,6.8,0.3,6.8-0.3l1.6-21.5
								c0-0.9,0.1-9.3-0.9-9.3L28.1,16.3z"/>
							<path class="st220" d="M28.1,16.3l-2.4,15.9C25.3,33.6,25,46.8,26.4,47l33.5,4c0.6,0.1,6.9,0.3,6.8-0.3l1.7-21.5
								c0-0.9,0.1-9.3-0.9-9.3L28.1,16.3z"/>
							<path class="st221" d="M28.1,16.3l-2.4,15.9C25.3,33.6,25,46.8,26.4,47l33.5,4c0.6,0.1,6.9,0.3,6.9-0.3l1.7-21.5
								c0-0.9,0.1-9.3-0.8-9.3L28.1,16.3z"/>
							<path class="st222" d="M28.1,16.3l-2.4,15.9c-0.4,1.4-0.8,14.6,0.6,14.8l33.5,4c0.5,0.1,6.9,0.3,6.9-0.2l1.7-21.5
								c0-0.9,0.1-9.3-0.8-9.3L28.1,16.3z"/>
							<path class="st223" d="M28,16.2l-2.3,15.9c-0.4,1.3-0.8,14.6,0.6,14.8l33.5,4c0.5,0.1,6.9,0.3,6.9-0.2l1.7-21.5
								c0-0.9,0.1-9.3-0.7-9.3L28,16.2z"/>
							<path class="st224" d="M28,16.2l-2.3,15.9c-0.4,1.3-0.8,14.6,0.5,14.8l33.5,4c0.5,0.1,6.9,0.3,6.9-0.2l1.7-21.5
								c0-0.9,0.1-9.3-0.7-9.3L28,16.2z"/>
							<path class="st225" d="M28,16.2l-2.3,15.9c-0.3,1.3-0.8,14.6,0.5,14.9l33.6,4c0.5,0.1,6.9,0.4,6.9-0.2l1.7-21.5
								c0-0.8,0.2-9.3-0.7-9.4L28,16.2z"/>
							<path class="st226" d="M28,16.2L25.7,32c-0.3,1.3-0.8,14.7,0.5,14.9l33.6,4c0.5,0.1,6.9,0.4,6.9-0.2l1.7-21.5
								c0-0.8,0.2-9.3-0.6-9.4L28,16.2z"/>
							<path class="st227" d="M28,16.1L25.7,32c-0.3,1.2-0.8,14.7,0.4,14.9l33.6,4c0.5,0.1,6.9,0.4,6.9-0.1l1.7-21.5
								c0-0.8,0.2-9.4-0.6-9.4L28,16.1z"/>
							<path class="st228" d="M27.9,16.1L25.7,32c-0.3,1.2-0.9,14.7,0.4,14.9l33.6,3.9c0.5,0.1,7,0.4,7-0.1l1.7-21.4
								c0-0.8,0.2-9.4-0.6-9.4L27.9,16.1z"/>
							<path class="st229" d="M27.9,16.1L25.7,32c-0.3,1.2-0.9,14.7,0.3,14.9l33.6,3.9c0.5,0.1,7,0.4,7-0.1l1.8-21.4
								c0-0.8,0.2-9.4-0.5-9.4L27.9,16.1z"/>
							<path class="st230" d="M27.9,16.1L25.6,32c-0.3,1.2-0.9,14.7,0.3,14.9l33.6,3.9c0.5,0.1,7,0.4,7-0.1l1.8-21.4
								c0-0.8,0.3-9.4-0.5-9.4L27.9,16.1z"/>
							<path class="st231" d="M27.9,16l-2.2,15.9c-0.3,1.1-0.9,14.7,0.2,14.9l33.7,3.9c0.5,0.1,7,0.4,7-0.1l1.8-21.4
								c0-0.7,0.3-9.4-0.5-9.4L27.9,16z"/>
							<path class="st232" d="M27.9,16l-2.2,15.9c-0.3,1.1-0.9,14.8,0.2,14.9l33.7,3.9c0.4,0.1,7,0.4,7,0l1.8-21.4
								c0-0.7,0.3-9.4-0.4-9.4L27.9,16z"/>
							<path class="st233" d="M27.9,16l-2.2,15.8c-0.3,1.1-0.9,14.8,0.2,14.9l33.7,3.9c0.4,0.1,7,0.4,7,0l1.8-21.4
								c0-0.7,0.3-9.4-0.4-9.5L27.9,16z"/>
							<path class="st234" d="M27.8,16l-2.2,15.8c-0.3,1.1-1,14.8,0.1,15l33.7,3.9c0.4,0.1,7,0.4,7,0l1.8-21.4
								c0-0.7,0.3-9.5-0.4-9.5L27.8,16z"/>
							<path class="st235" d="M27.8,15.9l-2.2,15.8c-0.3,1-1,14.8,0.1,15l33.7,3.9c0.4,0.1,7.1,0.4,7,0l1.8-21.4
								c0-0.7,0.3-9.5-0.3-9.5L27.8,15.9z"/>
							<path class="st236" d="M27.8,15.9l-2.2,15.8c-0.3,1-1,14.8,0,15l33.8,3.9c0.4,0.1,7.1,0.5,7.1,0l1.8-21.4
								c0-0.7,0.4-9.5-0.3-9.5L27.8,15.9z"/>
							<path class="st237" d="M27.8,15.9l-2.2,15.8c-0.3,1-1,14.8,0,15l33.8,3.9c0.4,0.1,7.1,0.5,7.1,0.1l1.8-21.4
								c0-0.6,0.4-9.5-0.3-9.5L27.8,15.9z"/>
							<path class="st238" d="M27.8,15.9l-2.1,15.8c-0.3,0.9-1,14.8-0.1,15l33.8,3.9c0.4,0.1,7.1,0.5,7.1,0.1l1.9-21.4
								c0-0.6,0.4-9.5-0.2-9.5L27.8,15.9z"/>
							<path class="st239" d="M27.8,15.8l-2.1,15.8c-0.3,0.9-1,14.9-0.1,15l33.8,3.9c0.4,0.1,7.1,0.5,7.1,0.1l1.9-21.4
								c0-0.6,0.4-9.5-0.2-9.5L27.8,15.8z"/>
							<path class="st240" d="M27.7,15.8l-2.1,15.8c-0.2,0.9-1.1,14.9-0.1,15l33.8,3.9c0.4,0.1,7.1,0.5,7.1,0.1l1.9-21.3
								c0-0.6,0.4-9.5-0.2-9.5L27.7,15.8z"/>
							<path class="st241" d="M27.7,15.8l-2.1,15.8c-0.2,0.9-1.1,14.9-0.2,15l33.8,3.9c0.4,0.1,7.1,0.5,7.1,0.1l1.9-21.3
								c0-0.6,0.5-9.5-0.1-9.6L27.7,15.8z"/>
							<path class="st242" d="M27.7,15.8l-2.1,15.8c-0.2,0.8-1.1,14.9-0.2,15.1l33.9,3.9c0.3,0.1,7.1,0.5,7.1,0.2l1.9-21.3
								c0-0.6,0.5-9.6-0.1-9.6L27.7,15.8z"/>
							<path class="st243" d="M27.7,15.7l-2.1,15.8c-0.2,0.8-1.1,14.9-0.3,15.1l33.9,3.9c0.3,0.1,7.2,0.5,7.2,0.2l1.9-21.3
								c0-0.5,0.5-9.6,0-9.6L27.7,15.7z"/>
							<path class="st244" d="M27.7,15.7l-2.1,15.8c-0.2,0.8-1.1,14.9-0.3,15.1l33.9,3.9c0.3,0.1,7.2,0.5,7.2,0.2l1.9-21.3
								c0-0.5,0.5-9.6,0-9.6L27.7,15.7z"/>
							<path class="st245" d="M27.7,15.7l-2.1,15.8c-0.2,0.8-1.1,15-0.4,15.1l33.9,3.8c0.3,0.1,7.2,0.5,7.2,0.2l1.9-21.3
								c0-0.5,0.5-9.6,0-9.6L27.7,15.7z"/>
							<path class="st246" d="M27.6,15.7l-2,15.8c-0.2,0.7-1.2,15-0.4,15.1l33.9,3.8c0.3,0.1,7.2,0.5,7.2,0.2l1.9-21.3
								c0-0.5,0.5-9.6,0.1-9.6L27.6,15.7z"/>
							<path class="st247" d="M27.6,15.6l-2,15.8c-0.2,0.7-1.2,15-0.4,15.1l33.9,3.9c0.3,0.1,7.2,0.6,7.2,0.3l2-21.3
								c0-0.5,0.6-9.6,0.1-9.6L27.6,15.6z"/>
							<path class="st248" d="M27.6,15.6l-2,15.8c-0.2,0.7-1.2,15-0.5,15.1l34,3.8c0.3,0.1,7.2,0.6,7.2,0.3l2-21.3
								c0-0.5,0.6-9.6,0.1-9.7L27.6,15.6z"/>
							<path class="st249" d="M27.6,15.6l-2,15.8c-0.2,0.7-1.2,15-0.5,15.1l34,3.8c0.3,0.1,7.2,0.6,7.2,0.3l2-21.3
								c0-0.4,0.6-9.7,0.2-9.7L27.6,15.6z"/>
							<path class="st250" d="M27.6,15.5l-2,15.8c-0.2,0.6-1.2,15-0.6,15.1l34,3.8c0.3,0.1,7.2,0.6,7.2,0.3l2-21.3
								c0-0.4,0.6-9.7,0.2-9.7L27.6,15.5z"/>
							<path class="st251" d="M27.6,15.5l-2,15.8c-0.2,0.6-1.3,15.1-0.6,15.2l34,3.8c0.2,0.1,7.3,0.6,7.3,0.3l2-21.3
								c0-0.4,0.6-9.7,0.2-9.7L27.6,15.5z"/>
							<path class="st252" d="M27.5,15.5l-2,15.7c-0.2,0.6-1.3,15.1-0.7,15.2l34,3.8c0.2,0.1,7.3,0.6,7.3,0.4l2-21.2
								c0-0.4,0.7-9.7,0.3-9.7L27.5,15.5z"/>
							<path class="st253" d="M27.5,15.5l-2,15.7c-0.2,0.6-1.3,15.1-0.7,15.2l34.1,3.8c0.2,0.1,7.3,0.6,7.3,0.4l2-21.2
								c0-0.4,0.7-9.7,0.3-9.7L27.5,15.5z"/>
							<path class="st254" d="M27.5,15.4l-1.9,15.7c-0.1,0.5-1.3,15.1-0.8,15.2l34.1,3.8c0.2,0,7.3,0.6,7.3,0.4l2-21.2
								c0-0.4,0.7-9.7,0.3-9.7L27.5,15.4z"/>
							<path class="st255" d="M27.5,15.4l-1.9,15.7c-0.1,0.5-1.3,15.1-0.8,15.2l34.1,3.8c0.2,0,7.3,0.6,7.3,0.4l2-21.2
								c0-0.3,0.7-9.7,0.4-9.7L27.5,15.4z"/>
							<path class="st256" d="M27.5,15.4l-1.9,15.7c-0.1,0.5-1.3,15.1-0.8,15.2l34.1,3.8c0.2,0,7.3,0.6,7.3,0.4l2.1-21.2
								c0-0.3,0.7-9.7,0.4-9.8L27.5,15.4z"/>
							<path class="st257" d="M27.5,15.4l-1.9,15.7c-0.1,0.5-1.4,15.1-0.9,15.2l34.1,3.8c0.2,0,7.3,0.6,7.3,0.5l2.1-21.2
								c0-0.3,0.7-9.8,0.4-9.8L27.5,15.4z"/>
							<path class="st258" d="M27.4,15.3L25.5,31c-0.1,0.4-1.4,15.2-0.9,15.2L58.7,50c0.2,0,7.4,0.7,7.3,0.5l2.1-21.2
								c0-0.3,0.8-9.8,0.5-9.8L27.4,15.3z"/>
							<path class="st259" d="M27.4,15.3L25.5,31c-0.1,0.4-1.4,15.2-1,15.2L58.7,50c0.2,0,7.4,0.7,7.4,0.5l2.1-21.2
								c0-0.3,0.8-9.8,0.5-9.8L27.4,15.3z"/>
							<path class="st260" d="M27.4,15.3L25.5,31c-0.1,0.4-1.4,15.2-1,15.3L58.7,50c0.2,0,7.4,0.7,7.4,0.5l2.1-21.2
								c0-0.3,0.8-9.8,0.5-9.8L27.4,15.3z"/>
							<path class="st261" d="M27.4,15.3L25.5,31c-0.1,0.4-1.4,15.2-1.1,15.3L58.7,50c0.1,0,7.4,0.7,7.4,0.5l2.1-21.2
								c0-0.2,0.8-9.8,0.6-9.8L27.4,15.3z"/>
							<path class="st262" d="M27.4,15.2l-1.8,15.7c-0.1,0.3-1.4,15.2-1.1,15.3L58.6,50c0.1,0,7.4,0.7,7.4,0.6l2.1-21.2
								c0-0.2,0.8-9.8,0.6-9.8L27.4,15.2z"/>
							<path class="st263" d="M27.4,15.2l-1.8,15.7c-0.1,0.3-1.5,15.2-1.1,15.3L58.6,50c0.1,0,7.4,0.7,7.4,0.6l2.1-21.2
								c0-0.2,0.9-9.8,0.7-9.8L27.4,15.2z"/>
							<path class="st264" d="M27.3,15.2l-1.8,15.7c-0.1,0.3-1.5,15.3-1.2,15.3L58.5,50c0.1,0,7.4,0.7,7.4,0.6L68,29.5
								c0-0.2,0.9-9.9,0.7-9.9L27.3,15.2z"/>
							<path class="st265" d="M27.3,15.2l-1.8,15.7c-0.1,0.3-1.5,15.3-1.2,15.3L58.6,50c0.1,0,7.4,0.7,7.4,0.6l2.1-21.2
								c0-0.2,0.9-9.9,0.7-9.9L27.3,15.2z"/>
							<path class="st266" d="M27.3,15.1l-1.8,15.7C25.4,31,24,46.1,24.2,46.1l34.3,3.7c0.1,0,7.5,0.7,7.5,0.6l2.1-21
								c0-0.2,0.9-9.9,0.8-9.9L27.3,15.1z"/>
							<path class="st267" d="M27.3,15.1l-1.8,15.7C25.4,31,24,46.1,24.2,46.1l34.3,3.7c0.1,0,7.5,0.7,7.5,0.7l2.1-21.1
								c0-0.1,0.9-9.9,0.8-9.9L27.3,15.1z"/>
							<path class="st268" d="M27.3,15.1l-1.8,15.7c0,0.2-1.5,15.3-1.4,15.4l34.3,3.7c0.1,0,7.5,0.7,7.5,0.7l2.2-21.2
								c0-0.1,0.9-9.9,0.8-9.9L27.3,15.1z"/>
							<path class="st269" d="M27.3,15.1l-1.8,15.7c0,0.2-1.6,15.3-1.4,15.4l34.3,3.7c0.1,0,7.5,0.8,7.5,0.7l2.2-21.2
								c0-0.1,1-9.9,0.9-9.9L27.3,15.1z"/>
							<path class="st270" d="M27.2,15l-1.7,15.7c0,0.1-1.6,15.4-1.4,15.4l34.4,3.7c0.1,0,7.5,0.8,7.5,0.7l2.1-21.1
								c0-0.1,1-9.9,0.9-9.9L27.2,15z"/>
							<path class="st271" d="M27.2,15l-1.7,15.6c0,0.1-1.6,15.4-1.5,15.4l34.4,3.7c0,0,7.5,0.8,7.5,0.7l2.2-21c0-0.1,1-9.9,0.9-10
								L27.2,15z"/>
							<path class="st272" d="M27.2,15l-1.7,15.6c0,0.1-1.6,15.4-1.5,15.4l34.4,3.7l7.5,0.8l2.2-21.1c0-0.1,1-10,1-10L27.2,15z"/>
							<path class="st273" d="M27.2,15l-1.7,15.6c0,0.1-1.6,15.4-1.6,15.4l34.4,3.7l7.5,0.8l2.3-21.1l1-10L27.2,15z"/>
							<path class="st274" d="M27.2,14.9l-1.7,15.6l-1.6,15.4l34.4,3.7l7.6,0.8l2.2-21c0,0,1.1-10,1-10L27.2,14.9z"/>
							
								<rect x="30.9" y="11.5" transform="matrix(0.1069 -0.9943 0.9943 0.1069 9.0534 75.4587)" class="st275" width="31.2" height="42.3"/>
						</g>
						<g>
							<polyline class="st276" points="27.5,13.2 27.1,16.9 69.2,21.4 70.3,10.4 35.7,6.7 							"/>
							<g class="st277">
								<g>
									<g>
										<path class="st0" d="M35.7,6.7l1.2,5.7c0.8,2.2-0.4,4.7-2.7,5.4l-3.8,1.3l-3.8,1.3l0.4-3.6l0.4-3.6l4.1-3.2L35.7,6.7z"/>
										<path class="st278" d="M35.7,6.7l1.2,5.7c0.4,1.1,0.3,2.3-0.2,3.3s-1.3,1.8-2.4,2.2l-3.8,1.3l-3.8,1.3l0.4-3.6l0.4-3.6
											l1.2-1l2.8-2.2L35.7,6.7z"/>
										<path class="st279" d="M35.7,6.7l1.2,5.7c0.4,1.1,0.3,2.3-0.2,3.2c-0.5,1-1.3,1.8-2.4,2.2l-3.8,1.3l-3.8,1.3l0.4-3.6
											l0.4-3.6l1.2-1l2.8-2.2L35.7,6.7z"/>
										<path class="st280" d="M35.7,6.7l1.2,5.6c0.4,1.1,0.3,2.3-0.2,3.2c-0.5,1-1.3,1.8-2.4,2.2L30.6,19l-3.8,1.3l0.4-3.6
											l0.4-3.6l1.2-1l2.8-2.2L35.7,6.7z"/>
										<path class="st281" d="M35.7,6.7l1.2,5.6c0.4,1.1,0.3,2.3-0.2,3.2s-1.3,1.8-2.4,2.2L30.6,19l-3.8,1.2l0.4-3.6l0.4-3.6
											l1.2-1l2.8-2.2L35.7,6.7z"/>
										<path class="st282" d="M35.7,6.7l1.2,5.6c0.4,1.1,0.3,2.3-0.2,3.2s-1.3,1.8-2.3,2.2l-3.8,1.2l-3.8,1.2l0.5-3.5l0.5-3.5
											l1.2-1l2.8-2.2L35.7,6.7z"/>
										<path class="st283" d="M35.7,6.7l1.2,5.6c0.4,1.1,0.2,2.3-0.2,3.2c-0.5,0.9-1.3,1.8-2.3,2.1l-3.8,1.2L26.8,20l0.5-3.5
											l0.5-3.5l1.2-1l2.8-2.2L35.7,6.7z"/>
										<path class="st284" d="M35.7,6.7l1.1,5.6c0.4,1,0.2,2.2-0.2,3.2c-0.4,0.9-1.3,1.8-2.3,2.1l-3.8,1.2L26.8,20l0.5-3.5
											l0.5-3.5l1.2-1l2.8-2.2L35.7,6.7z"/>
										<path class="st285" d="M35.7,6.7l1.1,5.5c0.4,1,0.2,2.2-0.2,3.2s-1.2,1.8-2.3,2.1l-3.8,1.2l-3.8,1.2l0.5-3.5l0.5-3.5
											l1.2-1l2.7-2.2L35.7,6.7z"/>
										<path class="st286" d="M35.7,6.7l1.1,5.5c0.3,1,0.2,2.2-0.2,3.1c-0.4,0.9-1.2,1.8-2.3,2.1l-3.8,1.2l-3.8,1.2l0.5-3.4
											l0.5-3.4l1.2-1l2.7-2.2L35.7,6.7z"/>
										<path class="st287" d="M35.7,6.7l1.1,5.5c0.3,1,0.2,2.2-0.2,3.1c-0.4,0.9-1.2,1.8-2.2,2.1l-3.8,1.1l-3.8,1.1l0.5-3.4
											l0.5-3.4l1.2-1l2.7-2.1L35.7,6.7z"/>
										<path class="st288" d="M35.7,6.7l1.1,5.5c0.3,1,0.2,2.2-0.2,3.1c-0.4,0.9-1.2,1.8-2.2,2.1l-3.8,1.1l-3.8,1.1l0.5-3.4
											l0.5-3.4l1.3-0.8l2.7-2.1L35.7,6.7z"/>
										<path class="st289" d="M35.7,6.7l1.1,5.5c0.3,1,0.2,2.2-0.2,3.1c-0.4,0.9-1.2,1.8-2.2,2.1l-3.8,1.1l-3.8,1.1l0.5-3.4
											l0.5-3.4l1.2-0.9l2.7-2.1L35.7,6.7z"/>
										<path class="st290" d="M35.7,6.7l1,5.4c0.3,1,0.2,2.2-0.2,3.1c-0.4,0.9-1.2,1.8-2.2,2.1l-3.8,1.1l-3.8,1.1l0.6-3.4
											l0.6-3.3l1.2-0.9l2.7-2.1L35.7,6.7z"/>
										<path class="st291" d="M35.7,6.7l1,5.4c0.3,1,0.2,2.2-0.2,3.1c-0.4,0.8-1.2,1.8-2.1,2.1l-3.8,1.1l-3.8,1.1l0.6-3.3
											l0.6-3.3l1.2-0.9l2.7-2.1L35.7,6.7z"/>
										<path class="st292" d="M35.7,6.7l1,5.4c0.3,1,0.2,2.2-0.2,3.1c-0.4,0.8-1.2,1.8-2.1,2.1l-3.8,1.1l-3.8,1.1l0.6-3.3
											l0.6-3.3l1.2-0.9l2.7-2.1L35.7,6.7z"/>
										<path class="st293" d="M35.7,6.7l1,5.4c0.3,0.9,0.2,2.2-0.2,3s-1.2,1.8-2.1,2.1l-3.8,1l-3.8,1l0.6-3.3l0.6-3.3l1.2-0.9
											l2.6-2.1L35.7,6.7z"/>
										<path class="st294" d="M35.7,6.7l1,5.4c0.3,0.9,0.2,2.2-0.2,3s-1.1,1.8-2.1,2.1l-3.8,1l-3.8,1l0.6-3.3l0.6-3.3l1.2-0.9
											l2.6-2.1L35.7,6.7z"/>
										<path class="st295" d="M35.7,6.7l1,5.3c0.3,0.9,0.2,2.2-0.2,3s-1.1,1.8-2.1,2.1l-3.8,1l-3.8,1l0.6-3.2l0.6-3.2l1.2-0.9
											l2.6-2.1L35.7,6.7z"/>
										<path class="st296" d="M35.7,6.7l0.9,5.3c0.3,0.9,0.2,2.2-0.2,3c-0.4,0.8-1.1,1.8-2,2.1l-3.7,1l-3.7,1l0.6-3.2l0.6-3.2
											l1.2-0.9L32,9.7L35.7,6.7z"/>
										<path class="st297" d="M35.7,6.7l0.9,5.3c0.3,0.9,0.2,2.2-0.2,3c-0.4,0.8-1.1,1.8-2,2.1l-3.7,1l-3.7,1l0.6-3.2l0.6-3.2
											l1.2-0.9L32,9.7L35.7,6.7z"/>
										<path class="st298" d="M35.7,6.7l0.9,5.3c0.3,0.9,0.2,2.2-0.2,3c-0.4,0.8-1.1,1.8-2,2.1l-3.7,1l-3.7,1l0.7-3.2l0.6-3.2
											l1.1-0.9L32,9.7L35.7,6.7z"/>
										<path class="st299" d="M35.7,6.7l0.9,5.3c0.3,0.9,0.2,2.2-0.2,3c-0.4,0.8-1.1,1.8-2,2.1L30.7,18L27,18.9l0.7-3.2l0.7-3.1
											l1.1-0.9l2.6-2L35.7,6.7z"/>
										<path class="st300" d="M35.7,6.7l0.9,5.2c0.3,0.9,0.2,2.2-0.2,2.9c-0.4,0.8-1.1,1.8-1.9,2.1l-3.7,0.9l-3.7,0.9l0.7-3.1
											l0.7-3.1l1.1-0.9l2.6-2L35.7,6.7z"/>
										<path class="st301" d="M35.7,6.7l0.9,5.2c0.3,0.9,0.2,2.2-0.2,2.9c-0.4,0.8-1.1,1.8-1.9,2.1l-3.7,0.9l-3.7,0.9l0.7-3.1
											l0.7-3.1l1.1-0.9l2.6-2L35.7,6.7z"/>
										<path class="st302" d="M35.7,6.7l0.8,5.2c0.3,0.8,0.2,2.2-0.2,2.9c-0.4,0.7-1.1,1.8-1.9,2.1l-3.7,0.9L27,18.7l0.7-3.1
											l0.7-3.1l1.1-0.9l2.5-2L35.7,6.7z"/>
										<path class="st303" d="M35.7,6.7l0.8,5.2c0.3,0.8,0.2,2.2-0.2,2.9c-0.4,0.7-1,1.8-1.9,2.1l-3.7,0.9L27,18.7l0.7-3.1
											l0.7-3.1l1.1-0.9l2.5-2L35.7,6.7z"/>
										<path class="st304" d="M35.7,6.7l0.8,5.2c0.3,0.8,0.1,2.2-0.2,2.9c-0.4,0.7-1,1.8-1.9,2.1l-3.7,0.9L27,18.7l0.7-3l0.7-3
											l1.1-0.9l2.5-2L35.7,6.7z"/>
										<path class="st305" d="M35.7,6.7l0.8,5.1c0.3,0.8,0.1,2.2-0.2,2.9c-0.3,0.7-1,1.8-1.8,2.1l-3.7,0.8l-3.7,0.8l0.7-3l0.7-3
											l1.1-0.9l2.5-2L35.7,6.7z"/>
										<path class="st306" d="M35.7,6.7l0.8,5.1c0.3,0.8,0.1,2.1-0.2,2.9c-0.3,0.7-1,1.8-1.8,2.1l-3.7,0.8l-3.7,0.8l0.8-3l0.7-3
											l1.1-0.9l2.5-2L35.7,6.7z"/>
										<path class="st307" d="M35.7,6.7l0.8,5.1c0.3,0.8,0.1,2.1-0.2,2.8c-0.3,0.7-1,1.8-1.8,2.1l-3.7,0.8l-3.7,0.8l0.8-3l0.8-3
											l1.1-0.9l2.5-2L35.7,6.7z"/>
										<path class="st308" d="M35.7,6.7l0.7,5.1c0.3,0.8,0.1,2.1-0.2,2.8c-0.3,0.7-1,1.8-1.8,2.1l-3.7,0.8L27,18.3l0.8-2.9
											l0.8-2.9l1.1-0.9l2.5-2L35.7,6.7z"/>
										<path class="st309" d="M35.7,6.7l0.7,5.1c0.3,0.8,0.1,2.1-0.2,2.8c-0.3,0.7-1,1.8-1.7,2.1l-3.7,0.8l-3.7,0.8l0.8-2.9
											l0.8-2.9l1.1-0.9l2.5-2L35.7,6.7z"/>
										<path class="st310" d="M35.7,6.7l0.7,5c0.3,0.8,0.1,2.1-0.2,2.8c-0.3,0.7-1,1.8-1.7,2.1l-3.7,0.8l-3.7,0.8l0.8-2.9
											l0.8-2.9l1.1-0.9l2.5-1.9L35.7,6.7z"/>
										<path class="st311" d="M35.7,6.7l0.7,5c0.3,0.7,0.1,2.1-0.2,2.8c-0.3,0.7-1,1.8-1.7,2l-3.7,0.7l-3.7,0.7l0.8-2.9l0.8-2.9
											l1.1-0.9l2.4-1.9L35.7,6.7z"/>
										<path class="st312" d="M35.7,6.7l0.7,5c0.3,0.7,0.1,2.1-0.2,2.8c-0.3,0.6-0.9,1.8-1.7,2l-3.7,0.7L27,18l0.8-2.9l0.8-2.8
											l1.1-0.9l2.4-1.9L35.7,6.7z"/>
										<path class="st313" d="M35.7,6.7l0.7,5c0.2,0.7,0.1,2.1-0.2,2.8c-0.3,0.7-0.9,1.8-1.7,2l-3.7,0.7l-3.7,0.7l0.8-2.8
											l0.8-2.8l1.1-0.8l2.4-1.9L35.7,6.7z"/>
										<path class="st314" d="M35.7,6.7l0.6,4.9c0.2,0.7,0.1,2.1-0.2,2.7c-0.3,0.6-0.9,1.8-1.6,2L30.8,17l-3.7,0.9l0.9-2.8
											l0.8-2.8l1.1-0.8l2.4-1.9L35.7,6.7z"/>
										<path class="st315" d="M35.7,6.7l0.6,4.9c0.2,0.7,0.1,2.1-0.2,2.7c-0.3,0.6-0.9,1.8-1.6,2L30.8,17l-3.7,0.8L28,15l0.9-2.8
											l1.1-0.8l2.4-1.9L35.7,6.7z"/>
										<path class="st316" d="M35.7,6.7l0.6,4.9c0.2,0.7,0.1,2.1-0.2,2.7c-0.3,0.6-0.9,1.8-1.6,2L30.8,17l-3.7,0.7l0.9-2.8
											l0.9-2.8l1.1-0.8l2.4-1.9L35.7,6.7z"/>
										<path class="st317" d="M35.7,6.7l0.6,4.9c0.2,0.7,0.1,2.1-0.2,2.7c-0.3,0.6-0.9,1.8-1.6,2L30.8,17l-3.7,0.6l0.9-2.7
											l0.9-2.7l1-0.8l2.4-1.9L35.7,6.7z"/>
										<path class="st318" d="M35.7,6.7l0.6,4.9c0.2,0.7,0.1,2.1-0.2,2.7c-0.3,0.6-0.9,1.8-1.5,2l-3.7,0.6l-3.8,0.7l0.9-2.7
											l0.9-2.7l1-0.8l2.4-1.9L35.7,6.7z"/>
										<path class="st319" d="M35.7,6.7l0.6,4.8c0.2,0.7,0.1,2.1-0.2,2.7c-0.3,0.6-0.9,1.8-1.5,2l-3.7,0.6l-3.8,0.7l0.9-2.7
											l0.9-2.7l1-0.8l2.4-1.9L35.7,6.7z"/>
										<path class="st320" d="M35.7,6.7l0.5,4.8c0.2,0.6,0.1,2.1-0.2,2.7c-0.3,0.6-0.9,1.8-1.5,2l-3.7,0.6l-3.7,0.6l0.9-2.7
											l0.9-2.7l1-0.8l2.3-1.9L35.7,6.7z"/>
										<path class="st321" d="M35.7,6.7l0.5,4.8c0.2,0.6,0.1,2.1-0.2,2.6c-0.3,0.5-0.8,1.8-1.5,2l-3.7,0.6l-3.7,0.7l0.9-2.7
											l0.9-2.6l1-0.8l2.3-1.8L35.7,6.7z"/>
										<path class="st322" d="M35.7,6.7l0.5,4.8c0.2,0.6,0.1,2.1-0.2,2.6c-0.3,0.5-0.8,1.8-1.5,2l-3.7,0.6l-3.7,0.6l1-2.6
											l0.9-2.6l1-0.8l2.3-1.8L35.7,6.7z"/>
										<path class="st323" d="M35.7,6.7l0.5,4.8c0.2,0.6,0.1,2.1-0.2,2.6c-0.3,0.5-0.8,1.8-1.4,2l-3.7,0.6l-3.8,0.5l1-2.6l1-2.6
											l1-0.8l2.3-1.8L35.7,6.7z"/>
										<path class="st324" d="M35.7,6.7l0.5,4.7c0.2,0.6,0.1,2.1-0.2,2.6c-0.3,0.5-0.8,1.8-1.4,2l-3.7,0.5l-3.8,0.7l1-2.6l1-2.6
											l1-0.8l2.3-1.8L35.7,6.7z"/>
										<path class="st325" d="M35.7,6.7l0.5,4.7c0.2,0.6,0,2.1-0.2,2.6c-0.3,0.5-0.8,1.8-1.4,2l-3.7,0.5l-3.8,0.6l1-2.6l1-2.5
											l1-0.8l2.3-1.8L35.7,6.7z"/>
										<path class="st326" d="M35.7,6.7l0.5,4.7c0.2,0.6,0,2.1-0.2,2.6c-0.2,0.5-0.8,1.8-1.4,2l-3.7,0.5L27.2,17l1-2.5l1-2.5
											l1-0.8l2.3-1.8L35.7,6.7z"/>
										<path class="st327" d="M35.7,6.7l0.4,4.7c0.2,0.6,0,2.1-0.2,2.6c-0.2,0.5-0.8,1.8-1.3,2l-3.7,0.5L27.2,17l1-2.5l1-2.5
											l1-0.8l2.3-1.8L35.7,6.7z"/>
										<path class="st327" d="M35.7,6.7l0.4,4.7c0.2,0.6,0,2-0.2,2.5c-0.2,0.5-0.8,1.8-1.3,2l-3.7,0.5l-3.7,0.5l1-2.5l1-2.5
											l1-0.8l2.2-1.8L35.7,6.7z"/>
										<path class="st328" d="M35.7,6.7l0.4,4.6c0.2,0.5,0,2-0.2,2.5c-0.2,0.5-0.8,1.8-1.3,2l-3.7,0.5l-3.7,0.5l1.1-2.5l1-2.5
											l1-0.8l2.2-1.8L35.7,6.7z"/>
										<path class="st329" d="M35.7,6.7l0.4,4.6c0.2,0.5,0,2-0.2,2.5c-0.2,0.5-0.7,1.8-1.3,2l-3.7,0.4l-3.7,0.4l1.1-2.5l1-2.4
											l1-0.8l2.2-1.8L35.7,6.7z"/>
										<path class="st330" d="M35.7,6.7l0.4,4.6c0.2,0.5,0,2-0.2,2.5c-0.2,0.5-0.7,1.8-1.3,2l-3.7,0.4l-3.7,0.4l1.1-2.4l1.1-2.4
											l1-0.8l2.2-1.8L35.7,6.7z"/>
										<path class="st331" d="M35.7,6.7l0.4,4.6c0.2,0.5,0,2-0.2,2.5c-0.2,0.5-0.7,1.8-1.2,2L31,16.2l-3.7,0.4l1.1-2.4l1.1-2.4
											l1-0.8l2.2-1.8L35.7,6.7z"/>
										<path class="st332" d="M35.7,6.7l0.3,4.6c0.2,0.5,0,2-0.2,2.5c-0.2,0.4-0.7,1.8-1.2,2l-3.7,0.4l-3.7,0.4l1.1-2.4l1.1-2.4
											l1-0.8l2.2-1.7L35.7,6.7z"/>
										<path class="st333" d="M35.7,6.7l0.3,4.5c0.2,0.5,0,2-0.2,2.5c-0.2,0.4-0.7,1.8-1.2,2l-3.7,0.4l-3.7,0.4l1.1-2.4l1.1-2.3
											l1-0.8l2.2-1.7L35.7,6.7z"/>
										<path class="st334" d="M35.7,6.7l0.3,4.5c0.2,0.5,0,2-0.2,2.4c-0.2,0.4-0.7,1.8-1.2,2L30.9,16l-3.7,0.4l1.1-2.3l1.1-2.3
											l1-0.8l2.2-1.7L35.7,6.7z"/>
										<path class="st335" d="M35.7,6.7l0.3,4.5c0.2,0.5,0,2-0.2,2.4c-0.2,0.4-0.7,1.8-1.2,2L30.9,16l-3.7,0.3l1.1-2.3l1.1-2.3
											l1-0.8l2.2-1.7L35.7,6.7z"/>
										<path class="st336" d="M35.7,6.7l0.3,4.5c0.2,0.5,0,2-0.2,2.4c-0.2,0.4-0.7,1.8-1.1,2L31,15.9l-3.7,0.3l1.2-2.3l1.1-2.3
											l0.9-0.8l2.1-1.7L35.7,6.7z"/>
										<path class="st337" d="M35.7,6.7l0.3,4.5c0.2,0.4,0,2-0.2,2.4c-0.2,0.4-0.7,1.8-1.1,2L31,15.9l-3.7,0.3l1.2-2.3l1.1-2.3
											l0.9-0.8l2.1-1.7L35.7,6.7z"/>
										<path class="st338" d="M35.7,6.7l0.2,4.4c0.1,0.4,0,2-0.2,2.4c-0.2,0.4-0.6,1.8-1.1,2l-3.7,0.3l-3.7,0.3l1.2-2.2l1.2-2.2
											l0.9-0.7l2.1-1.7L35.7,6.7z"/>
										<path class="st339" d="M35.7,6.7l0.2,4.4c0.1,0.4,0,2-0.2,2.4c-0.2,0.4-0.6,1.8-1.1,1.9l-3.7,0.3L27.3,16l1.2-2.2l1.2-2.2
											l0.9-0.7l2.1-1.7L35.7,6.7z"/>
										<path class="st340" d="M35.7,6.7l0.2,4.4c0.1,0.4,0,2-0.2,2.4c-0.2,0.4-0.6,1.8-1,1.9L31,15.7L27.3,16l1.2-2.2l1.2-2.2
											l0.9-0.7l2.1-1.7L35.7,6.7z"/>
										<path class="st341" d="M35.7,6.7l0.2,4.4c0.1,0.4,0,2-0.2,2.3c-0.2,0.4-0.6,1.8-1,1.9L31,15.5l-3.7,0.2l1.2-2.2l1.2-2.2
											l0.9-0.7l2.1-1.7L35.7,6.7z"/>
										<path class="st342" d="M35.7,6.7l0.2,4.4c0.1,0.4,0,2-0.2,2.3c-0.2,0.3-0.6,1.8-1,1.9L31,15.5l-3.7,0.2l1.2-2.2l1.2-2.1
											l0.9-0.7L32.7,9L35.7,6.7z"/>
										<path class="st343" d="M35.7,6.7l0.2,4.3c0.1,0.4,0,2-0.2,2.3c-0.2,0.3-0.6,1.8-1,1.9L31,15.4l-3.7,0.2l1.2-2.1l1.2-2.1
											l0.9-0.7l2.1-1.6L35.7,6.7z"/>
										<path class="st344" d="M35.7,6.7l0.1,4.3c0.1,0.4,0,2-0.2,2.3s-0.6,1.8-1,1.9l-3.7,0.2l-3.7,0.2l1.3-2.1l1.2-2.1l0.9-0.7
											l2.1-1.6L35.7,6.7z"/>
										<path class="st345" d="M35.7,6.7l0.1,4.3c0.1,0.4,0,2-0.2,2.3s-0.6,1.8-0.9,1.9L31,15.4l-3.7,0.2l1.3-2.1l1.2-2.1l0.9-0.7
											l2-1.6L35.7,6.7z"/>
										<path class="st346" d="M35.7,6.7l0.1,4.3c0.1,0.4-0.1,2-0.2,2.3c-0.2,0.3-0.6,1.8-0.9,1.9L31,15.4l-3.7,0.2l1.3-2.1l1.2-2
											l0.9-0.7l2-1.6L35.7,6.7z"/>
										<path class="st347" d="M35.7,6.7l0.1,4.3c0.1,0.3-0.1,2-0.2,2.3c-0.1,0.3-0.5,1.8-0.9,1.9L31,15.3l-3.7,0.1l1.3-2l1.3-2
											l0.9-0.7l2-1.6L35.7,6.7z"/>
										<path class="st348" d="M35.7,6.7l0.1,4.2c0.1,0.3-0.1,1.9-0.2,2.2c-0.1,0.3-0.5,1.8-0.9,1.9L31,15.1l-3.7,0.1l1.3-2l1.3-2
											l0.9-0.7l2-1.6L35.7,6.7z"/>
										<path class="st349" d="M35.7,6.7l0.1,4.2c0.1,0.3-0.1,1.9-0.2,2.2s-0.5,1.8-0.8,1.9l-3.7,0.1l-3.7,0.1l1.3-2l1.3-2
											l0.9-0.7l2-1.6L35.7,6.7z"/>
										<path class="st350" d="M35.7,6.7v4.2c0.1,0.3-0.1,1.9-0.2,2.2c-0.1,0.3-0.5,1.8-0.8,1.9L31,15.1l-3.7,0.1l1.3-2l1.3-2
											l0.9-0.7l2-1.6L35.7,6.7z"/>
										<path class="st351" d="M35.7,6.7v4.2c0.1,0.3-0.1,1.9-0.2,2.2c-0.1,0.3-0.5,1.8-0.8,1.9L31,15.1l-3.7,0.1l1.3-2l1.3-1.9
											l0.9-0.7l2-1.6L35.7,6.7z"/>
										<path class="st352" d="M35.7,6.7v4.2c0.1,0.3-0.1,1.9-0.2,2.2c-0.1,0.3-0.5,1.8-0.8,1.9l-3.6,0l-3.7,0.1l1.4-1.9l1.3-1.9
											l0.9-0.7L33,9L35.7,6.7z"/>
										<path class="st353" d="M35.7,6.7v4.1c0.1,0.3-0.1,1.9-0.2,2.2s-0.5,1.8-0.8,1.9L31.1,15h-3.7l1.4-1.9l1.3-1.9l0.9-0.7
											l2-1.6L35.7,6.7z"/>
										<path class="st354" d="M35.7,6.7v4.1c0.1,0.3-0.1,1.9-0.2,2.2c-0.1,0.2-0.5,1.8-0.7,1.9h-3.7h-3.7l1.4-1.9l1.3-1.9
											l0.9-0.7L32.9,9L35.7,6.7z"/>
										<path class="st355" d="M35.7,6.7v4.1c0.1,0.3-0.1,1.9-0.2,2.1c-0.1,0.2-0.5,1.8-0.7,1.9h-3.7h-3.7l1.4-1.9l1.4-1.8
											l0.9-0.7L32.9,9L35.7,6.7z"/>
										<path class="st356" d="M35.7,6.7l-0.1,4.1c0.1,0.2-0.1,1.9-0.2,2.1c-0.1,0.2-0.4,1.8-0.7,1.9H31h-3.7l1.4-1.8l1.4-1.8
											l0.8-0.7L32.8,9L35.7,6.7z"/>
										<path class="st357" d="M35.7,6.7l-0.1,4.1c0.1,0.2-0.1,1.9-0.2,2.1c-0.1,0.2-0.4,1.8-0.7,1.9H31h-3.7l1.4-1.8l1.4-1.8
											l0.8-0.7L32.8,9L35.7,6.7z"/>
										<path class="st358" d="M35.7,6.7l-0.1,4c0.1,0.2-0.1,1.9-0.2,2.1c-0.1,0.2-0.4,1.8-0.6,1.9h-3.7h-3.7l1.4-1.8l1.4-1.8
											l0.8-0.7l1.9-1.5L35.7,6.7z"/>
										<path class="st359" d="M35.7,6.7l-0.1,4c0.1,0.2-0.1,1.9-0.2,2.1c-0.1,0.2-0.4,1.8-0.6,1.9l-3.7,0l-3.7-0.1l1.4-1.8
											l1.4-1.7l0.8-0.7l1.9-1.5L35.7,6.7z"/>
										<path class="st360" d="M35.7,6.7l-0.1,4c0.1,0.2-0.1,1.9-0.2,2.1c-0.1,0.2-0.4,1.8-0.6,1.9l-3.7-0.1l-3.7-0.1l1.5-1.8
											l1.4-1.7l0.8-0.7L33,8.8L35.7,6.7z"/>
										<path class="st361" d="M35.7,6.7l-0.1,4c0.1,0.2-0.1,1.9-0.2,2.1c-0.1,0.2-0.4,1.8-0.6,1.9l-3.7-0.2l-3.7-0.1l1.5-1.7
											l1.4-1.7l0.8-0.7L33,8.8L35.7,6.7z"/>
										<path class="st362" d="M35.7,6.7l-0.2,3.9c0.1,0.2-0.1,1.9-0.2,2c-0.1,0.2-0.4,1.8-0.6,1.9h-3.6l-3.7-0.1l1.5-1.7l1.4-1.7
											l0.8-0.7l1.8-1.5L35.7,6.7z"/>
										<path class="st363" d="M35.7,6.7l-0.2,3.9c0.1,0.2-0.1,1.9-0.2,2s-0.4,1.8-0.5,1.9l-3.7-0.1l-3.7-0.1l1.5-1.7l1.5-1.7
											l0.8-0.6l1.9-1.4L35.7,6.7z"/>
										<path class="st364" d="M35.7,6.7l-0.2,3.9c0.1,0.2-0.1,1.9-0.2,2s-0.4,1.8-0.5,1.9l-3.7-0.1l-3.7-0.1l1.5-1.7l1.5-1.6
											l0.8-0.6l1.9-1.6L35.7,6.7z"/>
										<path class="st365" d="M35.7,6.7l-0.2,3.9c0,0.1-0.1,1.9-0.2,2c-0.1,0.1-0.3,1.8-0.5,1.9l-3.7-0.2l-3.7-0.2l1.5-1.6
											l1.5-1.6l0.8-0.6l1.9-1.5L35.7,6.7z"/>
										<path class="st366" d="M35.7,6.7l-0.2,3.9c0,0.1-0.1,1.9-0.2,2c-0.1,0.1-0.3,1.8-0.5,1.9l-3.7-0.2l-3.7-0.2l1.5-1.6
											l1.5-1.6l0.8-0.6l1.9-1.5L35.7,6.7z"/>
										<path class="st367" d="M35.7,6.7l-0.2,3.8c0,0.1-0.2,1.9-0.2,2c-0.1,0.1-0.3,1.8-0.4,1.8l-3.7-0.2L27.5,14l1.5-1.6
											l1.5-1.6l0.8-0.6l1.8-1.4L35.7,6.7z"/>
										<path class="st368" d="M35.7,6.7l-0.2,3.8c0,0.1-0.2,1.9-0.2,2s-0.3,1.8-0.4,1.8l-3.7-0.2L27.5,14l1.6-1.6l1.5-1.5
											l0.8-0.6l1.7-1.5L35.7,6.7z"/>
										<path class="st369" d="M35.7,6.7l-0.3,3.8c0,0.1-0.2,1.9-0.2,1.9c0,0.1-0.3,1.8-0.4,1.8L31.1,14l-3.7-0.2l1.6-1.6l1.5-1.5
											l0.8-0.6l1.8-1.4L35.7,6.7z"/>
										<path class="st370" d="M35.7,6.7l-0.3,3.8c0,0.1-0.2,1.8-0.2,1.9c0,0.1-0.3,1.8-0.4,1.8L31.1,14l-3.7-0.2l1.6-1.5l1.5-1.5
											l0.8-0.6l1.8-1.4L35.7,6.7z"/>
										<path class="st371" d="M35.7,6.7l-0.3,3.8c0,0.1-0.2,1.8-0.2,1.9c0,0.1-0.3,1.8-0.4,1.8L31.2,14l-3.7-0.3l1.6-1.5l1.6-1.5
											l0.8-0.6l1.7-1.4L35.7,6.7z"/>
										<path class="st372" d="M35.7,6.7l-0.3,3.7c0,0.1-0.2,1.8-0.2,1.9c0,0.1-0.3,1.8-0.3,1.8l-3.7-0.3l-3.7-0.3l1.6-1.5
											l1.6-1.5l0.8-0.6l1.7-1.4L35.7,6.7z"/>
										<path class="st373" d="M35.7,6.7l-0.3,3.7c0,0.1-0.2,1.8-0.2,1.9l-0.3,1.8l-3.7-0.3l-3.7-0.3l1.6-1.5l1.6-1.4l0.8-0.6
											l1.7-1.4L35.7,6.7z"/>
										<path class="st374" d="M35.7,6.7l-0.3,3.7c0,0-0.2,1.8-0.2,1.9l-0.3,1.8l-3.7-0.3l-3.7-0.3l1.6-1.4l1.6-1.4l0.8-0.6
											l1.7-1.4L35.7,6.7z"/>
										<path class="st375" d="M35.7,6.7l-0.4,3.7c0,0-0.2,1.8-0.2,1.9c0,0-0.2,1.8-0.3,1.8l-3.7-0.3l-3.7-0.3l1.6-1.4l1.6-1.4
											l0.8-0.6l1.7-1.4L35.7,6.7z"/>
										<path class="st376" d="M35.7,6.7l-0.4,3.7l-0.2,1.8L34.9,14l-3.7-0.3l-3.7-0.3l1.7-1.4l1.6-1.4l0.7-0.6l1.7-1.4L35.7,6.7z
											"/>
										<path class="st377" d="M35.7,6.7l-0.4,3.6l-0.2,1.8l-0.2,1.8l-3.7-0.4l-3.7-0.4l1.7-1.4l1.6-1.3l0.7-0.6l1.7-1.3L35.7,6.7
											z"/>
										<polygon class="st378" points="27.6,13.2 31.2,13.6 34.9,14 35.1,12.2 35.3,10.4 35.7,6.7 31.6,10 										"/>
									</g>
								</g>
							</g>
							<polygon class="st276" points="27.5,13.2 34.9,14 35.7,6.7 							"/>
							
								<rect x="30.9" y="13.5" transform="matrix(0.1069 -0.9943 0.9943 0.1069 7.0757 77.1462)" class="st46" width="31.2" height="42.3"/>
							<text transform="matrix(0.994 0.1069 -0.1069 0.9943 35.654 14.9094)" class="st46 st379 st380">SEPTEMBER</text>
							<text transform="matrix(0.994 0.1069 -0.1069 0.9943 35.7546 41.8733)" class="st381 st379 st382">4</text>
							<g>
								
									<ellipse transform="matrix(0.1069 -0.9943 0.9943 0.1069 35.5049 59.3831)" class="st0" cx="50.8" cy="9.9" rx="2.1" ry="2.1"/>
								
									<ellipse transform="matrix(0.1069 -0.9943 0.9943 0.1069 35.5181 59.3367)" class="st383" cx="50.8" cy="9.9" rx="2.1" ry="2.1"/>
								
									<ellipse transform="matrix(0.1069 -0.9943 0.9943 0.1069 35.5312 59.2903)" class="st384" cx="50.8" cy="9.9" rx="2.1" ry="2.1"/>
								
									<ellipse transform="matrix(0.1069 -0.9943 0.9943 0.1069 35.436 59.322)" class="st385" cx="50.7" cy="9.9" rx="2.1" ry="2.1"/>
								
									<ellipse transform="matrix(0.1069 -0.9943 0.9943 0.1069 35.4492 59.2757)" class="st386" cx="50.7" cy="9.9" rx="2.1" ry="2.1"/>
								
									<ellipse transform="matrix(0.1069 -0.9943 0.9943 0.1069 35.4623 59.2292)" class="st387" cx="50.7" cy="9.9" rx="2.1" ry="2.1"/>
								
									<ellipse transform="matrix(0.1069 -0.9943 0.9943 0.1069 35.4754 59.1829)" class="st388" cx="50.7" cy="9.8" rx="2.1" ry="2.1"/>
								
									<ellipse transform="matrix(0.1069 -0.9943 0.9943 0.1069 35.3801 59.2147)" class="st389" cx="50.7" cy="9.9" rx="2" ry="2"/>
								
									<ellipse transform="matrix(0.1069 -0.9943 0.9943 0.1069 35.3933 59.1681)" class="st390" cx="50.6" cy="9.9" rx="2" ry="2"/>
								
									<ellipse transform="matrix(0.1069 -0.9943 0.9943 0.1069 35.4065 59.1218)" class="st391" cx="50.6" cy="9.9" rx="2" ry="2"/>
								
									<ellipse transform="matrix(0.1069 -0.9943 0.9943 0.1069 35.4196 59.0754)" class="st392" cx="50.6" cy="9.8" rx="2" ry="2"/>
								
									<ellipse transform="matrix(0.1069 -0.9943 0.9943 0.1069 35.3244 59.1073)" class="st393" cx="50.6" cy="9.9" rx="2" ry="2"/>
								
									<ellipse transform="matrix(0.1069 -0.9943 0.9943 0.1069 35.2594 58.9524)" class="st394" cx="50.4" cy="9.8" rx="2" ry="2"/>
								
									<ellipse transform="matrix(0.1069 -0.9943 0.9943 0.1069 35.2726 58.906)" class="st395" cx="50.4" cy="9.8" rx="2" ry="2"/>
								
									<ellipse transform="matrix(0.1069 -0.9943 0.9943 0.1069 35.2857 58.8596)" class="st396" cx="50.4" cy="9.8" rx="2" ry="2"/>
								
									<ellipse transform="matrix(0.1069 -0.9943 0.9943 0.1069 35.1904 58.8914)" class="st397" cx="50.4" cy="9.9" rx="2" ry="2"/>
								
									<ellipse transform="matrix(0.1069 -0.9943 0.9943 0.1069 35.2036 58.8451)" class="st398" cx="50.4" cy="9.8" rx="1.9" ry="1.9"/>
								
									<ellipse transform="matrix(0.1069 -0.9943 0.9943 0.1069 35.2168 58.7985)" class="st399" cx="50.3" cy="9.8" rx="1.9" ry="1.9"/>
								
									<ellipse transform="matrix(0.1069 -0.9943 0.9943 0.1069 35.1216 58.8304)" class="st400" cx="50.3" cy="9.9" rx="1.9" ry="1.9"/>
								
									<ellipse transform="matrix(0.1069 -0.9943 0.9943 0.1069 35.1347 58.784)" class="st401" cx="50.3" cy="9.8" rx="1.9" ry="1.9"/>
								
									<ellipse transform="matrix(0.1069 -0.9943 0.9943 0.1069 35.1479 58.7376)" class="st402" cx="50.3" cy="9.8" rx="1.9" ry="1.9"/>
								
									<ellipse transform="matrix(0.1069 -0.9943 0.9943 0.1069 35.161 58.6911)" class="st403" cx="50.3" cy="9.8" rx="1.9" ry="1.9"/>
								
									<ellipse transform="matrix(0.1069 -0.9943 0.9943 0.1069 35.0657 58.7229)" class="st404" cx="50.2" cy="9.8" rx="1.9" ry="1.9"/>
								
									<ellipse transform="matrix(0.1069 -0.9943 0.9943 0.1069 35.0789 58.6766)" class="st405" cx="50.2" cy="9.8" rx="1.9" ry="1.9"/>
								
									<ellipse transform="matrix(0.1069 -0.9943 0.9943 0.1069 35.092 58.6301)" class="st406" cx="50.2" cy="9.8" rx="1.9" ry="1.9"/>
								
									<ellipse transform="matrix(0.1069 -0.9943 0.9943 0.1069 35.1052 58.5838)" class="st407" cx="50.2" cy="9.8" rx="1.8" ry="1.8"/>
								
									<ellipse transform="matrix(0.1069 -0.9943 0.9943 0.1069 35.01 58.6155)" class="st408" cx="50.1" cy="9.8" rx="1.8" ry="1.8"/>
								
									<ellipse transform="matrix(0.1069 -0.9943 0.9943 0.1069 35.0232 58.5692)" class="st409" cx="50.1" cy="9.8" rx="1.8" ry="1.8"/>
								
									<ellipse transform="matrix(0.1069 -0.9943 0.9943 0.1069 35.0363 58.5227)" class="st410" cx="50.1" cy="9.8" rx="1.8" ry="1.8"/>
								
									<ellipse transform="matrix(0.1069 -0.9943 0.9943 0.1069 35.0494 58.4763)" class="st411" cx="50.1" cy="9.7" rx="1.8" ry="1.8"/>
								
									<ellipse transform="matrix(0.1069 -0.9943 0.9943 0.1069 34.9542 58.5081)" class="st412" cx="50" cy="9.8" rx="1.8" ry="1.8"/>
								
									<ellipse transform="matrix(0.1069 -0.9943 0.9943 0.1069 34.9673 58.4616)" class="st413" cx="50" cy="9.8" rx="1.8" ry="1.8"/>
								
									<ellipse transform="matrix(0.1069 -0.9943 0.9943 0.1069 34.9805 58.4153)" class="st414" cx="50" cy="9.7" rx="1.8" ry="1.8"/>
								
									<ellipse transform="matrix(0.1069 -0.9943 0.9943 0.1069 34.8852 58.4471)" class="st415" cx="50" cy="9.8" rx="1.8" ry="1.8"/>
								
									<ellipse transform="matrix(0.1069 -0.9943 0.9943 0.1069 34.8202 58.2924)" class="st416" cx="49.9" cy="9.8" rx="1.8" ry="1.8"/>
								
									<ellipse transform="matrix(0.1069 -0.9943 0.9943 0.1069 34.8334 58.2459)" class="st417" cx="49.8" cy="9.7" rx="1.7" ry="1.7"/>
								
									<ellipse transform="matrix(0.1069 -0.9943 0.9943 0.1069 34.8465 58.1994)" class="st418" cx="49.8" cy="9.7" rx="1.7" ry="1.7"/>
								
									<ellipse transform="matrix(0.1069 -0.9943 0.9943 0.1069 34.7513 58.2313)" class="st276" cx="49.8" cy="9.8" rx="1.7" ry="1.7"/>
							</g>
							<g>
								
									<ellipse transform="matrix(0.1069 -0.9943 0.9943 0.1069 36.3491 57.7915)" class="st419" cx="50.3" cy="8.7" rx="1" ry="1"/>
								
									<ellipse transform="matrix(0.1069 -0.9943 0.9943 0.1069 35.8421 57.9924)" class="st419" cx="50.2" cy="9" rx="2.3" ry="2.3"/>
								<g>
									
										<linearGradient id="SVGID_14_" gradientUnits="userSpaceOnUse" x1="87.4341" y1="69.4543" x2="87.4341" y2="74.0546" gradientTransform="matrix(0.9943 0.1069 0.1069 -0.9943 -44.2201 70.7813)">
										<stop  offset="2.397840e-02" style="stop-color:#213E67"/>
										<stop  offset="0.629" style="stop-color:#013071"/>
									</linearGradient>
									<circle class="st420" cx="50.4" cy="8.8" r="2.3"/>
									
										<linearGradient id="SVGID_15_" gradientUnits="userSpaceOnUse" x1="69.0172" y1="66.8286" x2="69.0172" y2="70.1578" gradientTransform="matrix(0.9972 5.345000e-02 5.345000e-02 -0.9972 -22.1032 73.3586)">
										<stop  offset="2.397840e-02" style="stop-color:#1F3B64"/>
										<stop  offset="0.629" style="stop-color:#0F3469"/>
									</linearGradient>
									<circle class="st421" cx="50.4" cy="8.7" r="1.7"/>
									
										<ellipse transform="matrix(0.1069 -0.9943 0.9943 0.1069 36.3491 57.7915)" class="st422" cx="50.3" cy="8.7" rx="1" ry="1"/>
								</g>
								<g>
									
										<ellipse transform="matrix(0.1069 -0.9943 0.9943 0.1069 36.3491 57.7915)" class="st419" cx="50.3" cy="8.7" rx="1" ry="1"/>
									
										<ellipse transform="matrix(0.1069 -0.9943 0.9943 0.1069 36.4147 57.8092)" class="st423" cx="50.4" cy="8.6" rx="1" ry="1"/>
									
										<ellipse transform="matrix(0.1069 -0.9943 0.9943 0.1069 36.5886 57.7488)" class="st424" cx="50.4" cy="8.5" rx="1" ry="1"/>
									
										<ellipse transform="matrix(0.1069 -0.9943 0.9943 0.1069 36.6541 57.7664)" class="st425" cx="50.5" cy="8.5" rx="1" ry="1"/>
									
										<ellipse transform="matrix(0.1069 -0.9943 0.9943 0.1069 36.9062 57.8144)" class="st426" cx="50.6" cy="8.4" rx="1" ry="1"/>
									
										<ellipse transform="matrix(0.1069 -0.9943 0.9943 0.1069 37.0802 57.7538)" class="st427" cx="50.7" cy="8.2" rx="1" ry="1"/>
									
										<ellipse transform="matrix(0.1069 -0.9943 0.9943 0.1069 37.1457 57.7715)" class="st428" cx="50.7" cy="8.2" rx="1" ry="1"/>
									
										<ellipse transform="matrix(0.1069 -0.9943 0.9943 0.1069 37.3197 57.7111)" class="st429" cx="50.8" cy="8.1" rx="1" ry="1"/>
									
										<ellipse transform="matrix(0.1069 -0.9943 0.9943 0.1069 37.4936 57.6506)" class="st430" cx="50.8" cy="8" rx="1" ry="1"/>
									
										<ellipse transform="matrix(0.1069 -0.9943 0.9943 0.1069 37.5592 57.6682)" class="st431" cx="50.9" cy="7.9" rx="1" ry="1"/>
									
										<ellipse transform="matrix(0.1069 -0.9943 0.9943 0.1069 37.7331 57.6078)" class="st432" cx="50.9" cy="7.8" rx="1" ry="1"/>
									
										<ellipse transform="matrix(0.1069 -0.9943 0.9943 0.1069 37.7987 57.6254)" class="st433" cx="51" cy="7.8" rx="1" ry="1"/>
									
										<ellipse transform="matrix(0.1069 -0.9943 0.9943 0.1069 38.0507 57.6734)" class="st434" cx="51.1" cy="7.7" rx="1" ry="1"/>
									
										<ellipse transform="matrix(0.1069 -0.9943 0.9943 0.1069 38.2247 57.6128)" class="st435" cx="51.2" cy="7.5" rx="1" ry="1"/>
									
										<ellipse transform="matrix(0.1069 -0.9943 0.9943 0.1069 38.2902 57.6306)" class="st436" cx="51.2" cy="7.5" rx="1" ry="1"/>
									
										<ellipse transform="matrix(0.1069 -0.9943 0.9943 0.1069 38.4642 57.5701)" class="st437" cx="51.3" cy="7.4" rx="1" ry="1"/>
									
										<ellipse transform="matrix(0.1069 -0.9943 0.9943 0.1069 38.5297 57.5878)" class="st438" cx="51.3" cy="7.3" rx="1" ry="1"/>
									
										<ellipse transform="matrix(0.1069 -0.9943 0.9943 0.1069 38.7037 57.5273)" class="st439" cx="51.4" cy="7.2" rx="1" ry="1"/>
									
										<ellipse transform="matrix(0.1069 -0.9943 0.9943 0.1069 38.8775 57.4668)" class="st440" cx="51.4" cy="7.1" rx="1" ry="1"/>
								</g>
								<g>
									
										<ellipse transform="matrix(0.1069 -0.9943 0.9943 0.1069 39.0206 57.6086)" class="st441" cx="51.6" cy="7.1" rx="1.7" ry="1.7"/>
									
										<ellipse transform="matrix(0.1069 -0.9943 0.9943 0.1069 39.1531 57.5507)" class="st442" cx="51.6" cy="7" rx="1.6" ry="1.6"/>
									
										<ellipse transform="matrix(0.1069 -0.9943 0.9943 0.1069 39.1772 57.5707)" class="st443" cx="51.6" cy="7" rx="1.6" ry="1.6"/>
									
										<ellipse transform="matrix(0.1069 -0.9943 0.9943 0.1069 39.2012 57.5908)" class="st444" cx="51.7" cy="7" rx="1.6" ry="1.6"/>
									
										<ellipse transform="matrix(0.1069 -0.9943 0.9943 0.1069 39.2253 57.6108)" class="st445" cx="51.7" cy="7" rx="1.6" ry="1.6"/>
									
										<ellipse transform="matrix(0.1069 -0.9943 0.9943 0.1069 39.2493 57.631)" class="st446" cx="51.7" cy="7" rx="1.6" ry="1.6"/>
									
										<ellipse transform="matrix(0.1069 -0.9943 0.9943 0.1069 39.2734 57.651)" class="st447" cx="51.7" cy="7" rx="1.6" ry="1.6"/>
									
										<ellipse transform="matrix(0.1069 -0.9943 0.9943 0.1069 39.2192 57.5627)" class="st448" cx="51.7" cy="6.9" rx="1.6" ry="1.6"/>
									
										<ellipse transform="matrix(0.1069 -0.9943 0.9943 0.1069 39.2433 57.5827)" class="st449" cx="51.7" cy="6.9" rx="1.5" ry="1.5"/>
									
										<ellipse transform="matrix(0.1069 -0.9943 0.9943 0.1069 39.2673 57.6028)" class="st450" cx="51.7" cy="6.9" rx="1.5" ry="1.5"/>
									
										<ellipse transform="matrix(0.1069 -0.9943 0.9943 0.1069 39.2915 57.623)" class="st451" cx="51.7" cy="6.9" rx="1.5" ry="1.5"/>
									
										<ellipse transform="matrix(0.1069 -0.9943 0.9943 0.1069 39.4239 57.5649)" class="st452" cx="51.8" cy="6.8" rx="1.5" ry="1.5"/>
									
										<ellipse transform="matrix(0.1069 -0.9943 0.9943 0.1069 39.448 57.5849)" class="st453" cx="51.8" cy="6.8" rx="1.5" ry="1.5"/>
									
										<ellipse transform="matrix(0.1069 -0.9943 0.9943 0.1069 39.472 57.605)" class="st454" cx="51.8" cy="6.8" rx="1.5" ry="1.5"/>
									
										<ellipse transform="matrix(0.1069 -0.9943 0.9943 0.1069 39.4179 57.5167)" class="st455" cx="51.7" cy="6.8" rx="1.4" ry="1.4"/>
									
										<ellipse transform="matrix(0.1069 -0.9943 0.9943 0.1069 39.4419 57.5368)" class="st456" cx="51.7" cy="6.8" rx="1.4" ry="1.4"/>
									
										<ellipse transform="matrix(0.1069 -0.9943 0.9943 0.1069 39.466 57.5568)" class="st457" cx="51.8" cy="6.8" rx="1.4" ry="1.4"/>
									
										<ellipse transform="matrix(0.1069 -0.9943 0.9943 0.1069 39.49 57.5769)" class="st458" cx="51.8" cy="6.8" rx="1.4" ry="1.4"/>
									
										<ellipse transform="matrix(0.1069 -0.9943 0.9943 0.1069 39.5141 57.597)" class="st459" cx="51.8" cy="6.8" rx="1.4" ry="1.4"/>
									
										<ellipse transform="matrix(0.1069 -0.9943 0.9943 0.1069 39.5382 57.6172)" class="st460" cx="51.8" cy="6.8" rx="1.4" ry="1.4"/>
									
										<ellipse transform="matrix(0.1069 -0.9943 0.9943 0.1069 39.5623 57.6372)" class="st461" cx="51.9" cy="6.8" rx="1.4" ry="1.4"/>
									
										<ellipse transform="matrix(0.1069 -0.9943 0.9943 0.1069 39.5081 57.5489)" class="st462" cx="51.8" cy="6.8" rx="1.3" ry="1.3"/>
									
										<ellipse transform="matrix(0.1069 -0.9943 0.9943 0.1069 39.6406 57.4908)" class="st463" cx="51.8" cy="6.7" rx="1.3" ry="1.3"/>
									
										<ellipse transform="matrix(0.1069 -0.9943 0.9943 0.1069 39.6646 57.5109)" class="st464" cx="51.8" cy="6.7" rx="1.3" ry="1.3"/>
									
										<ellipse transform="matrix(0.1069 -0.9943 0.9943 0.1069 39.6887 57.5309)" class="st465" cx="51.9" cy="6.7" rx="1.3" ry="1.3"/>
									
										<ellipse transform="matrix(0.1069 -0.9943 0.9943 0.1069 39.7127 57.551)" class="st466" cx="51.9" cy="6.7" rx="1.3" ry="1.3"/>
									
										<ellipse transform="matrix(0.1069 -0.9943 0.9943 0.1069 39.7368 57.5711)" class="st467" cx="51.9" cy="6.7" rx="1.3" ry="1.3"/>
									
										<ellipse transform="matrix(0.1069 -0.9943 0.9943 0.1069 39.7608 57.5912)" class="st468" cx="51.9" cy="6.7" rx="1.2" ry="1.2"/>
									
										<ellipse transform="matrix(0.1069 -0.9943 0.9943 0.1069 39.7067 57.5029)" class="st469" cx="51.9" cy="6.6" rx="1.2" ry="1.2"/>
									
										<ellipse transform="matrix(0.1069 -0.9943 0.9943 0.1069 39.7308 57.523)" class="st470" cx="51.9" cy="6.6" rx="1.2" ry="1.2"/>
								</g>
							</g>
						</g>
						<g>
							<g>
								<path class="st471" d="M53.9,41.5c-7.3,8.6-25.2,2.4-19-9.9c4.5-8.8,19.7-14.4,22.7-1.2c0,0.2,0.4,0.1,0.3-0.1
									c-3.1-13.6-20.1-7.8-23.9,2.5C29.5,45,47.1,50,54.2,41.7C54.3,41.5,54.1,41.3,53.9,41.5L53.9,41.5z"/>
							</g>
						</g>
					</g>
					<g>
						<g>
							<path class="st471" d="M52.8,42.3c0.6-0.4,1.1-0.9,1.7-1.3c-0.1,0-0.2-0.1-0.2-0.1c0,0.7,0,1.5,0,2.2c0,0.2,0.3,0.2,0.3,0
								c0-0.7,0-1.5,0-2.2c0-0.1-0.1-0.2-0.2-0.1c-0.6,0.4-1.1,0.9-1.7,1.3C52.4,42.2,52.6,42.4,52.8,42.3L52.8,42.3z"/>
						</g>
					</g>
				</g>
			</g>
		</g>
	</g>
</g>
<text transform="matrix(0.9963 -8.597705e-02 8.597705e-02 0.9963 151.5645 28.3694)" class="st472 st473">And make fee payment right here.</text>
<text transform="matrix(0.9963 -8.597705e-02 8.597705e-02 0.9963 152.6994 41.5205)" class="st472 st473">Many other services are here at your </text>
<text transform="matrix(0.9963 -8.597705e-02 8.597705e-02 0.9963 153.8343 54.6717)" class="st472 st473">disposal too</text>
<g>
	<g>
		<g class="st11">
			<polygon class="st12" points="119.4,50.3 119.4,50.3 117.7,48.6 13.1,54.9 13.1,74.1 126.1,67.3 126.1,56.6 120.8,51.6 			"/>
			<polygon class="st13" points="119.4,50.2 119.4,50.2 117.6,48.5 13,54.8 13,74 126,67.2 126,56.4 120.7,51.5 			"/>
			<polygon class="st14" points="119.3,50.1 119.3,50.1 117.5,48.4 12.9,54.7 12.9,73.8 125.9,67.1 125.9,56.3 120.7,51.3 			"/>
			<polygon class="st15" points="119.2,49.9 119.2,49.9 117.4,48.3 12.9,54.5 12.9,73.7 125.9,66.9 125.9,56.2 120.6,51.2 			"/>
			<polygon class="st16" points="119.1,49.8 119.1,49.8 117.4,48.1 12.8,54.4 12.8,73.6 125.8,66.8 125.8,56.1 120.5,51.1 			"/>
			<polygon class="st17" points="119,49.7 119,49.7 117.3,48 12.7,54.3 12.7,73.5 125.7,66.7 125.7,55.9 120.4,50.9 			"/>
			<polygon class="st18" points="119,49.5 119,49.5 117.2,47.9 12.6,54.1 12.6,73.3 125.6,66.5 125.6,55.8 120.3,50.8 			"/>
			<polygon class="st19" points="118.9,49.4 118.9,49.4 117.1,47.7 12.5,54 12.5,73.2 125.6,66.4 125.6,55.7 120.3,50.7 			"/>
			<polygon class="st20" points="118.8,49.3 118.8,49.3 117,47.6 12.5,53.9 12.5,73.1 125.5,66.3 125.5,55.5 120.2,50.6 			"/>
			<polygon class="st21" points="118.7,49.1 118.7,49.1 117,47.5 12.4,53.7 12.4,72.9 125.4,66.2 125.4,55.4 120.1,50.4 			"/>
			<polygon class="st22" points="118.7,49 118.7,49 116.9,47.3 12.3,53.6 12.3,72.8 125.3,66 125.3,55.3 120,50.3 			"/>
			<polygon class="st23" points="118.6,48.9 118.6,48.9 116.8,47.2 12.2,53.5 12.2,72.7 125.2,65.9 125.2,55.1 120,50.2 			"/>
			<polygon class="st24" points="118.5,48.7 118.5,48.7 116.7,47.1 12.1,53.4 12.1,72.5 125.2,65.8 125.2,55 119.9,50 			"/>
			<polygon class="st25" points="118.4,48.6 118.4,48.6 116.6,46.9 12.1,53.2 12.1,72.4 125.1,65.6 125.1,54.9 119.8,49.9 			"/>
			<polygon class="st26" points="118.3,48.5 118.3,48.5 116.6,46.8 12,53.1 12,72.3 125,65.5 125,54.8 119.7,49.8 			"/>
			<polygon class="st27" points="118.3,48.4 118.3,48.4 116.5,46.7 11.9,53 11.9,72.2 124.9,65.4 124.9,54.6 119.6,49.6 			"/>
			<polygon class="st28" points="118.2,48.2 118.2,48.2 116.4,46.6 11.8,52.8 11.8,72 124.9,65.2 124.9,54.5 119.6,49.5 			"/>
			<polygon class="st29" points="118.1,48.1 118.1,48.1 116.3,46.4 11.8,52.7 11.8,71.9 124.8,65.1 124.8,54.4 119.5,49.4 			"/>
			<polygon class="st30" points="118,48 118,48 116.3,46.3 11.7,52.6 11.7,71.8 124.7,65 124.7,54.2 119.4,49.3 			"/>
			<polygon class="st31" points="118,47.8 118,47.8 116.2,46.2 11.6,52.4 11.6,71.6 124.6,64.9 124.6,54.1 119.3,49.1 			"/>
			<polygon class="st32" points="117.9,47.7 117.9,47.7 116.1,46 11.5,52.3 11.5,71.5 124.5,64.7 124.5,54 119.2,49 			"/>
			<polygon class="st33" points="117.8,47.6 117.8,47.6 116,45.9 11.4,52.2 11.4,71.4 124.5,64.6 124.5,53.8 119.2,48.9 			"/>
			<polygon class="st34" points="117.7,47.4 117.7,47.4 115.9,45.8 11.4,52.1 11.4,71.2 124.4,64.5 124.4,53.7 119.1,48.7 			"/>
			<polygon class="st35" points="117.6,47.3 117.6,47.3 115.9,45.6 11.3,51.9 11.3,71.1 124.3,64.3 124.3,53.6 119,48.6 			"/>
			<polygon class="st36" points="117.6,47.2 117.6,47.2 115.8,45.5 11.2,51.8 11.2,71 124.2,64.2 124.2,53.5 118.9,48.5 			"/>
			<polygon class="st37" points="117.5,47.1 117.5,47.1 115.7,45.4 11.1,51.7 11.1,70.9 124.2,64.1 124.2,53.3 118.9,48.3 			"/>
			<polygon class="st38" points="117.4,46.9 117.4,46.9 115.6,45.3 11.1,51.5 11.1,70.7 124.1,63.9 124.1,53.2 118.8,48.2 			"/>
			<polygon class="st39" points="117.3,46.8 117.3,46.8 115.6,45.1 11,51.4 11,70.6 124,63.8 124,53.1 118.7,48.1 			"/>
			<polygon class="st40" points="117.3,46.7 117.3,46.7 115.5,45 10.9,51.3 10.9,70.5 123.9,63.7 123.9,52.9 118.6,48 			"/>
			<polygon class="st41" points="117.2,46.5 117.2,46.5 115.4,44.9 10.8,51.1 10.8,70.3 123.8,63.6 123.8,52.8 118.5,47.8 			"/>
			<polygon class="st42" points="117.1,46.4 117.1,46.4 115.3,44.7 10.7,51 10.7,70.2 123.8,63.4 123.8,52.7 118.5,47.7 			"/>
			<polygon points="117,46.3 117,46.3 115.2,44.6 10.7,50.9 10.7,70.1 123.7,63.3 123.7,52.5 118.4,47.6 			"/>
		</g>
		<polygon id="XMLID_2_" class="st0" points="10.7,50.9 10.7,70.1 123.7,63.3 123.7,52.5 115.2,44.6 		"/>
		<polygon id="XMLID_1_" class="st43" points="12.4,52.6 12.4,68.2 121.9,61.6 121.9,50.9 117,46.3 		"/>
	</g>
	<text transform="matrix(0.9983 -5.747825e-02 5.747825e-02 0.9983 17.6851 65.2559)" class="st474 st475">Now book slot</text>
	
		<linearGradient id="XMLID_6_" gradientUnits="userSpaceOnUse" x1="115.7109" y1="133.5732" x2="120.9811" y2="138.6982" gradientTransform="matrix(1 -6.000000e-02 0 -1 0 193.0279)">
		<stop  offset="0" style="stop-color:#FFFFFF"/>
		<stop  offset="0.1665" style="stop-color:#FAFAFA"/>
		<stop  offset="0.3725" style="stop-color:#EBEBEB"/>
		<stop  offset="0.5992" style="stop-color:#D1D2D3"/>
		<stop  offset="0.8392" style="stop-color:#AFB0B2"/>
		<stop  offset="1" style="stop-color:#939598"/>
	</linearGradient>
	<polygon id="XMLID_712_" class="st476" points="123.8,52.6 115.2,44.6 115.2,53.1 	"/>
</g>
</svg>
